<?xml version="1.0" encoding="utf-8"?>
<!-- Generator: Adobe Illustrator 19.0.0, SVG Export Plug-In . SVG Version: 6.00 Build 0)  -->
<svg version="1.1" id="Layer_1" xmlns="http://www.w3.org/2000/svg" xmlns:xlink="http://www.w3.org/1999/xlink" x="0px" y="0px"
	 viewBox="0 0 330 200" style="enable-background:new 0 0 330 200;" xml:space="preserve">
<style type="text/css">
	.st0{fill:#981D1F;}
	.st1{fill:#9B2324;}
	.st2{fill:#9B2425;}
	.st3{fill:#0C0C0C;}
	.st4{fill:#0A0A0A;}
	.st5{fill:#9D272A;}
	.st6{fill:#050505;}
	.st7{fill:#9C2629;}
	.st8{fill:#070707;}
	.st9{fill:#090909;}
	.st10{fill:#991E21;}
	.st11{fill:#9C2225;}
	.st12{fill:#9B2023;}
	.st13{fill:#FCFAFA;}
	.st14{fill:#FCFCFC;}
</style>
<path class="st0" d="M165.5,14.8c0,13.3,0,26.6,0,40c0,6.5,0,13.1,0,19.6c0,1.3-0.3,1.4-1.5,1.1c-14.1-3.8-24.7-17.4-24.4-31.7
	c0.2-7.1,0-14.3,0-21.4c0-0.9,0.3-1.4,1.1-1.9c5.8-3,12-4.6,18.4-5.4c0.3,0,0.7,0.2,0.9-0.3C161.8,14.8,163.6,14.8,165.5,14.8z
	 M147.7,39.7c0.2,0.1,0.3,0.3,0.5,0.4c2.8,2.1,2.8,2.1,1.5,5.5c0,0.1,0.1,0.1,0.1,0.3c1.2-0.5,2.1-2,3.2-2c1.1,0.1,2.2,1.3,3.3,2
	c0,0,0.1,0,0.3-0.1c-0.2-0.8-0.4-1.6-0.7-2.3c-0.5-1.1-0.4-1.8,0.7-2.5c0.7-0.4,1.3-1,2.3-1.7c-0.7,0-1.1,0-1.4,0
	c-2.9,0-2.9,0-3.9-2.8c-0.1-0.4-0.2-0.8-0.7-1.2c0,3.6-2,4.5-5,4.1C147.9,39.5,147.8,39.5,147.7,39.7z"/>
<path class="st1" d="M168.8,14.8c0.5,4.4,0.9,8.8,1.4,13.1c0.9,8,1.7,15.9,2.6,23.8c0.6,5.9,1.3,11.8,1.9,17.7
	c0.3,3,0.6,2.2-1.9,3.6c-0.5,0.3-1.1,0.5-1.7,0.8c-0.5-2.3-0.4-4.5-0.6-6.7c-0.7-10.4-1.3-20.8-2-31.2c-0.4-6.7-0.9-13.3-1.3-20
	c0-0.4-0.1-0.8-0.2-1.2C167.6,14.8,168.2,14.8,168.8,14.8z"/>
<path class="st2" d="M170.9,14.8c0.7,0.2,1.1,0.7,1.3,1.5c3.4,15.8,6.8,31.6,10.3,47.4c0.6,2.7-1.8,3.1-2.9,5
	c-1.1-6.4-2.1-12.3-3.1-18.2c-2-11.8-4-23.6-6-35.5c0-0.1-0.1-0.2-0.2-0.2C170.5,14.8,170.7,14.8,170.9,14.8z"/>
<path class="st3" d="M179.6,96.8c4.2,0.7,6,3.1,5.3,6.8c-0.4,2.3-2.5,4.1-5.7,4.5c-4.3,0.4-8.6,0.1-12.9,0.2c-0.6,0-0.6-0.3-0.6-0.8
	c0-0.4,0-0.7,0.6-0.8c2.6-0.4,2.6-0.4,2.6-3c0-4.7,0-9.3,0-14c0-1.5-0.5-2.1-1.9-1.9c-0.5,0-1.3,0.4-1.3-0.7c0-1.2,0.8-0.8,1.3-0.8
	c3.8,0,7.7-0.1,11.5,0.1c3.9,0.2,6.1,3.2,5.1,6.7c-0.4,1.5-1.5,2.4-2.9,3.1C180.5,96.3,179.8,96.2,179.6,96.8z M172.3,101.8
	C172.3,101.8,172.3,101.8,172.3,101.8c0,1.2,0,2.4,0,3.6c0,0.7,0.2,1.2,1,1.2c1.6,0,3.2,0.2,4.8-0.1c1.1-0.2,2-0.7,2.5-1.7
	c1.7-3,0.1-6.4-3.3-7c-0.6-0.1-1.3-0.2-2-0.2c-3.2-0.1-3.2-0.1-3.2,3C172.3,101,172.3,101.4,172.3,101.8z M172.3,92.2
	c0,4.2,0,4.2,4.1,3.8c2.6-0.2,3.9-1.5,3.9-4.1c0-2.7-1.1-4-3.8-4.2c-0.9-0.1-1.8-0.1-2.7-0.1c-1,0-1.5,0.4-1.5,1.5
	C172.3,90.2,172.3,91.2,172.3,92.2z"/>
<path class="st4" d="M86.5,104.1c0-1.2,0-2.4,0-3.6c0-0.3-0.1-0.7,0.5-0.7c0.4,0,0.8-0.1,0.9,0.5c0.3,1,0.5,2,0.9,2.9
	c1.6,3.5,5.3,5.2,8.8,3.8c1.6-0.6,2.5-2,2.6-3.8c0-1.9-0.6-2.9-2.5-3.5c-2.2-0.8-4.6-1.3-6.8-2.1c-3.5-1.3-4.8-3.7-4-7.2
	c0.8-3.3,3.8-5.1,7.6-4.6c1.3,0.2,2.6,0.6,3.6,1.4c0.7,0.5,1,0.4,1.4-0.3c0.3-0.6,0.7-1.1,1.4-0.9c0.8,0.2,0.4,0.9,0.4,1.4
	c0.1,1.9,0.2,3.7,0.3,5.6c0,0.3,0.2,0.9-0.5,0.9c-0.5,0-0.9-0.1-1-0.7c-0.4-1.4-1-2.7-2-3.9c-1.6-1.9-4.3-2.7-6.6-2
	c-1.5,0.5-2.3,1.5-2.5,3.1c-0.1,1.6,0.6,2.8,2.1,3.3c2.2,0.7,4.4,1.2,6.6,1.9c3.9,1.2,5.6,4.1,4.8,8.1c-0.4,2.1-1.6,3.6-3.6,4.4
	c-3.1,1.1-6.2,1-9-0.9c-0.8-0.6-1.2-0.5-1.5,0.4c-0.1,0.3-0.3,0.5-0.5,0.8c-0.2,0.4-0.6,0.3-1,0.3c-0.4-0.1-0.3-0.4-0.3-0.7
	c0-1.3,0-2.5,0-3.8C86.6,104.1,86.5,104.1,86.5,104.1z"/>
<path class="st5" d="M101.1,126.5c0-2.5-0.1-4.5,0-6.4c0.1-1.4-0.5-2-1.9-1.8c-0.2,0-0.5,0-0.8,0c-0.6,0.1-0.8-0.3-0.8-0.8
	c0-0.5,0.2-0.7,0.7-0.7c2.8,0,5.7,0,8.5,0c0.5,0,0.7,0.2,0.7,0.7c0,0.5-0.1,0.8-0.7,0.9c-2.5,0.3-2.5,0.3-2.5,2.7
	c0,3.9,0,7.8,0.1,11.7c0.1,2.7,1.4,4,4,4.6c1.5,0.3,2.9,0.3,4.4-0.2c1.8-0.6,3.1-1.8,3.3-3.8c0.4-4.2,0.2-8.5,0.2-12.8
	c0-1.9-0.5-2.2-2.6-2.3c-0.5,0-1,0.1-1-0.7c0-0.7,0.3-0.8,0.9-0.8c2.2,0,4.5,0,6.7,0c0.6,0,0.9,0.1,0.9,0.8c0,0.8-0.5,0.7-1,0.7
	c-1.9,0.1-2.3,0.5-2.3,2.4c0,3.4,0,6.8,0,10.2c0,1.1-0.1,2.1-0.3,3.2c-0.5,2.5-2,4.2-4.5,4.8c-2.6,0.6-5.1,0.7-7.6-0.2
	c-2.5-0.8-3.9-2.6-4.2-5.2C100.9,130.9,101.2,128.4,101.1,126.5z"/>
<path class="st6" d="M232.5,100.7c1.7-1.5,3.1-2.8,4.4-4c0.3-0.2,0.6-0.5,0.5-0.9c-0.1-0.4-0.6-0.3-0.9-0.4c-0.3,0-0.6,0-0.9,0
	c-0.4,0-0.6-0.2-0.7-0.6c0-0.5,0.2-0.6,0.7-0.6c2.2,0,4.5,0,6.7,0c0.3,0,0.6,0.1,0.6,0.5c0,0.4,0,0.7-0.5,0.7
	c-2.3,0.1-3.6,1.8-5.2,3.1c-0.5,0.4-0.6,0.8-0.1,1.4c1.5,1.8,2.8,3.7,4.2,5.6c0.6,0.8,1.3,1.2,2.3,1.4c0.4,0.1,0.9,0.1,0.8,0.8
	c0,0.8-0.5,0.6-0.9,0.6c-2.1,0-4.2,0-6.2,0c-0.4,0-0.8,0.1-0.9-0.5c0-0.6,0.2-0.9,0.8-0.9c1.7,0,1.2-0.8,0.5-1.6
	c-0.8-1-1.5-2.1-2.3-3c-0.3-0.4-0.5-1.3-1.1-1c-0.7,0.3-1.5,0.8-1.6,1.7c-0.1,1-0.1,2,0,3c0.1,1,0.9,0.8,1.5,0.9
	c0.5,0.1,0.9,0,0.9,0.7c0,0.7-0.4,0.7-0.9,0.7c-2,0-4,0-5.9,0c-0.4,0-0.8,0.1-0.8-0.6c0-0.6,0.2-0.8,0.8-0.8c1.4,0.1,1.7-0.7,1.7-2
	c-0.1-5.3-0.1-10.5,0-15.8c0-1.3-0.4-1.9-1.7-1.9c-0.5,0-1,0.1-0.9-0.6c0-0.7,0.5-0.6,1-0.6c0.2,0,0.4,0,0.6,0
	c1.2-0.1,2.9-0.6,3.5-0.1c0.8,0.8,0.3,2.5,0.3,3.8C232.5,93.2,232.5,96.7,232.5,100.7z"/>
<path class="st7" d="M124.9,126.6c1.1-1.3,2.2-2.2,3.8-2.4c3.4-0.5,5.6,1.2,5.7,4.7c0.1,2.3,0,4.6,0,6.8c0,1,0.2,1.6,1.3,1.5
	c0.6,0,1,0.1,1,0.8c0,0.8-0.5,0.6-1,0.6c-1.9,0-3.8,0-5.6,0c-0.4,0-0.8,0.1-0.8-0.6c0-0.6,0.2-0.9,0.8-0.8c1.3,0.1,1.5-0.5,1.5-1.7
	c-0.1-2.1,0-4.3,0-6.4c0-1.4-0.4-2.6-2-3c-1.6-0.4-3.2,0.3-3.9,1.7c-0.4,0.8-0.7,1.7-0.7,2.6c0,1.8,0,3.7,0,5.5
	c0,0.9,0.3,1.3,1.2,1.3c0.6,0,1.1,0,1,0.9c-0.1,0.9-0.8,0.5-1.2,0.5c-1.7,0-3.4,0-5.2,0c-0.4,0-1.1,0.3-1.1-0.6c0-0.8,0.4-0.8,1-0.8
	c1,0.1,1.3-0.4,1.3-1.4c-0.1-2.9-0.1-5.8,0-8.7c0-1.1-0.4-1.5-1.4-1.4c-0.4,0-1.1,0.3-1.1-0.6c-0.1-0.9,0.7-0.7,1.1-0.8
	c0.5-0.1,1.1-0.1,1.7-0.1C124.6,124.2,124.6,124.2,124.9,126.6z"/>
<path class="st2" d="M186.1,60.5c-4.1-15-8.3-30-12.4-45c1.1-0.4,1.5,0.1,1.8,1.1c4.1,13,8.3,26,12.5,39
	C188.7,57.7,186.9,58.9,186.1,60.5z"/>
<path class="st8" d="M133.8,96.3c1.6-1.9,3.3-2.8,5.6-2.5c2.4,0.3,3.8,1.8,3.9,4.3c0.1,2.3,0.1,4.7,0,7c0,1.1,0.2,1.9,1.5,1.9
	c0.5,0,1,0.1,0.9,0.8c-0.1,0.8-0.6,0.5-1,0.5c-1.9,0-3.7,0-5.6,0c-0.4,0-0.8,0.1-0.9-0.5c0-0.6,0.2-0.9,0.8-0.8
	c1.4,0.1,1.6-0.8,1.5-1.9c-0.1-2,0-4.1,0-6.1c0-1.9-0.6-2.8-2-3.1c-1.6-0.3-3.3,0.4-4,1.8c-0.5,1.1-0.6,2.2-0.6,3.4
	c0,1.4,0,2.8,0,4.3c0,1,0.2,1.7,1.4,1.6c0.5,0,1,0,1,0.8c-0.1,0.8-0.6,0.6-1,0.6c-1.9,0-3.7,0-5.6,0c-0.4,0-0.9,0.1-0.9-0.6
	c0-0.7,0.4-0.7,0.9-0.7c1.3,0,1.6-0.6,1.6-1.8c-0.1-2.7-0.1-5.4,0-8.1c0-1.1-0.3-1.8-1.5-1.7c-0.5,0-1.1,0.2-1.1-0.6
	c0-0.8,0.6-0.6,1.1-0.7c0.7-0.1,1.3-0.1,2-0.1C133.7,93.8,133.7,93.8,133.8,96.3z"/>
<path class="st9" d="M153.4,104.3c1.1-2.5,2-4.8,3-7.1c0.5-1.1,0-1.5-1-1.6c-0.5-0.1-1-0.1-0.9-0.8c0.1-0.8,0.6-0.5,1-0.5
	c1.4,0,2.7,0,4.1,0c0.4,0,0.8-0.1,0.8,0.6c0,0.4,0,0.7-0.6,0.8c-1.1,0.2-1.5,1.1-1.9,2c-1.7,4-3.5,8.1-5.2,12.1
	c-0.6,1.4-1.4,2.7-2.5,3.7c-1.3,1.1-2.8,1.5-4.5,0.9c-1.3-0.5-1.8-1.8-1.3-2.9c0.5-0.9,1.2-1.2,2.2-1c0.9,0.2,1.3,0.9,1.1,1.7
	c-0.2,1,0.1,1.1,0.9,0.7c2.1-1,3.5-4.7,2.6-6.8c-1.3-3-2.6-5.9-3.9-8.9c-0.4-0.9-0.8-1.7-1.9-1.7c-0.6,0-0.6-0.3-0.6-0.8
	c0-0.6,0.4-0.6,0.8-0.6c1.9,0,3.8,0,5.6,0c0.4,0,0.8,0,0.8,0.6c0,0.6-0.3,0.8-0.8,0.7c-1.3-0.1-1.3,0.5-0.9,1.5
	C151.3,99.3,152.3,101.7,153.4,104.3z"/>
<path class="st5" d="M225.1,134.6c1.1-2.6,2-4.8,2.9-7c0.4-1,0.1-1.7-1-1.8c-0.6,0-1-0.1-0.9-0.8c0.1-0.7,0.6-0.6,1-0.6
	c1.4,0,2.7,0,4.1,0c0.4,0,0.9-0.1,0.9,0.5c0,0.5,0,0.8-0.6,1c-1,0.2-1.4,1-1.8,1.9c-1.7,4-3.4,8-5.2,12c-0.5,1.3-1.2,2.5-2.1,3.5
	c-1.2,1.3-2.6,1.9-4.3,1.7c-1.3-0.2-2.1-0.9-2.2-2.3c0-1.1,0.9-2,1.9-1.9c1.1,0,1.6,0.6,1.6,1.8c0,0.3-0.2,0.7,0.1,0.8
	c0.3,0.2,0.7,0,1-0.2c1.6-1.2,2.4-3,3.1-4.8c0.1-0.2-0.1-0.6-0.2-0.8c-1.4-3.3-2.9-6.7-4.3-10c-0.4-0.9-0.9-1.6-2-1.6
	c-0.5,0-0.5-0.4-0.5-0.7c0-0.4,0.2-0.7,0.6-0.7c2,0,3.9,0,5.9,0c0.6,0,0.6,0.3,0.6,0.8c0,0.5-0.2,0.6-0.6,0.6
	c-1.7-0.1-1.4,0.8-0.9,1.8C223,129.9,224,132.1,225.1,134.6z"/>
<path class="st10" d="M180.6,17c3.1,0.4,5.7,1.8,8.5,3c1.5,0.7,2,1.6,1.9,3.2c-0.1,5.1,0,10.1-0.3,15.2c-1.8-3.8-3.7-7.6-5.5-11.4
	c-1.5-3.1-2.9-6.1-4.4-9.2C180.8,17.6,180.6,17.3,180.6,17L180.6,17z"/>
<path class="st4" d="M205.3,93.6c4.1,0,6.9,3.1,6.9,7.6c0,4.4-2.8,7.6-6.9,7.6c-4.1,0-6.9-3-6.9-7.6
	C198.4,96.8,201.3,93.6,205.3,93.6z M209,101.2c0-1.5-0.1-2.9-0.7-4.3c-0.6-1.3-1.6-1.9-3-1.9c-1.4,0-2.5,0.6-3,1.9
	c-1,2.8-1,5.7,0,8.5c0.5,1.4,1.6,2.1,3.1,2c1.5,0,2.6-0.8,3.1-2.2C209,103.9,209,102.5,209,101.2z"/>
<path class="st4" d="M128.1,101.3c0,5.3-4,8.5-8.9,7.2c-3.4-0.9-5.5-4.8-4.8-8.9c0.7-4,3.6-6.3,7.5-6C125.7,94,128.1,97,128.1,101.3
	z M125,101.1c-0.1-1.3-0.1-2.7-0.6-4c-0.5-1.3-1.5-2.1-3-2.1c-1.5,0-2.6,0.6-3.1,2c-0.9,2.8-0.9,5.6,0,8.3c0.5,1.5,1.6,2.2,3.2,2.1
	c1.5,0,2.6-0.8,3-2.3C124.8,103.9,124.9,102.6,125,101.1z"/>
<path class="st4" d="M227.2,101.1c0,5.4-3.9,8.7-8.8,7.4c-3.6-0.9-5.6-4.8-4.8-9c0.7-3.9,3.7-6.2,7.4-5.9
	C224.8,94,227.2,96.9,227.2,101.1z M216.7,101.6c0.1,1,0.1,2.2,0.4,3.2c0.6,1.7,1.5,2.5,3.1,2.6c1.7,0,2.8-0.8,3.3-2.5
	c0.7-2.5,0.7-5,0-7.5c-0.5-1.7-1.6-2.5-3.2-2.4c-1.6,0-2.6,0.8-3.2,2.5C216.8,98.8,216.8,100.2,216.7,101.6z"/>
<path class="st7" d="M167.5,131.9c-1.3,0-2.6,0-4,0c-0.7,0-0.9,0.3-0.9,1c0.1,2.2,1,3.7,2.7,4.4c1.7,0.6,3.7,0,5.1-1.6
	c0.2-0.3,0.4-0.6,0.6-0.9c0.3-0.5,0.6-0.6,1.1-0.3c0.5,0.3,0.3,0.6,0.1,1c-1.3,2.5-3.4,3.7-6.2,3.7c-2.7,0-4.8-1.3-5.8-3.9
	c-1.1-2.4-1-4.9,0-7.4c1.2-3,4.4-4.5,7.6-3.7c3,0.8,5,3.7,4.8,6.9c-0.1,0.7-0.3,0.8-0.9,0.8C170.2,131.9,168.8,131.9,167.5,131.9z
	 M165.9,130.5c0.8,0,1.5,0,2.3,0c0.4,0,0.8,0,1-0.5c0.5-1-0.3-3.4-1.3-4.1c-1.3-0.9-3-0.7-4,0.5c-0.9,1.1-1.4,2.6-1,3.8
	c0.3,0.9,1.7,0.2,2.6,0.3C165.6,130.5,165.7,130.5,165.9,130.5z"/>
<path class="st7" d="M196.5,126.8c0,0.4,0.1,0.7,0,1.1c-0.1,0.5,0.4,1.2-0.4,1.4c-0.8,0.2-0.8-0.5-1.1-1c-0.7-1.4-1.7-2.5-3.3-2.8
	c-0.7-0.1-1.3-0.1-1.9,0.2c-0.9,0.3-1.5,0.9-1.5,1.9c0,1,0.6,1.6,1.5,1.8c1.6,0.4,3.3,0.7,4.8,1.2c2.1,0.7,2.9,1.9,2.9,4.1
	c0,2.2-1.2,3.8-3.1,4.4c-1.7,0.5-3.4,0.4-5-0.5c-0.7-0.4-1.2-0.7-1.7,0.3c-0.2,0.4-0.6,0.5-1.1,0.4c-0.6-0.1-0.4-0.6-0.4-1
	c0-1.4,0-2.7,0-4.1c0-0.4-0.1-1,0.6-1c0.6,0,0.7,0.4,0.9,0.8c0.3,1,0.8,2,1.6,2.7c1.3,1.2,3.3,1.6,4.8,0.9c1-0.4,1.5-1.2,1.4-2.3
	c0-1-0.7-1.5-1.6-1.8c-1.4-0.4-2.9-0.6-4.3-1.1c-2.6-0.8-3.6-2.5-3.1-5.1c0.4-2.2,2.2-3.4,4.8-3.2c0.6,0.1,1.3,0.2,1.9,0.4
	c0.8,0.3,1.4,0.8,2.2-0.2c0.3-0.4,1.1-0.3,1.1,0.6C196.4,125.6,196.5,126.2,196.5,126.8z"/>
<path class="st3" d="M105.3,101c0-1.3,0-2.3,0-3.3c0.1-1.3,0.2-2.6-1.8-2.2c-0.3,0.1-0.6,0-0.6-0.5c0-0.3-0.2-0.7,0.4-0.8
	c2.7-0.6,3.3-2.7,3.6-5c0-0.3,0.1-0.5,0.1-0.8c0.1-0.5,0.4-0.5,0.8-0.5c0.5,0,0.6,0.3,0.6,0.7c0,1.5,0,2.9,0,4.4
	c0,0.9,0.3,1.2,1.1,1.1c0.9-0.1,1.7,0,2.6,0c0.6,0,0.7,0.2,0.7,0.7c0,0.5-0.2,0.6-0.7,0.6c-0.2,0-0.4,0-0.6,0c-3.2,0-3.2,0-3.2,3.2
	c0,2,0,4.1,0,6.1c0,0.9,0.1,1.8,1.2,2c1.1,0.2,2-0.2,2.5-1.3c0.3-0.7,0.4-1.4,0.4-2.1c0-0.5,0.2-0.7,0.7-0.7c0.5,0,0.5,0.3,0.6,0.7
	c0.3,3.4-2.5,6-5.8,5.4c-1.3-0.2-2.1-1-2.3-2.3C105.1,104.6,105.4,102.6,105.3,101z"/>
<path class="st5" d="M208.1,131.5c0-1.7-0.1-3.1,0-4.4c0-0.9-0.2-1.3-1.2-1.2c-0.4,0-1.2,0.4-1.3-0.6c-0.1-0.8,0.5-0.7,1-0.9
	c1.9-0.7,2.5-2.3,2.9-4.1c0.1-0.4,0.1-0.9,0.2-1.4c0-0.5,0.3-0.7,0.8-0.7c0.6,0,0.6,0.4,0.6,0.8c0,1.4,0.1,2.8,0,4.3
	c-0.1,1,0.3,1.2,1.2,1.2c0.8-0.1,1.5,0,2.3,0c0.6,0,1,0.1,1,0.8c0,0.7-0.4,0.7-0.9,0.7c-0.9,0-1.7,0-2.6,0c-0.8,0-1.1,0.2-1.1,1
	c0,2.7,0,5.4,0,8.1c0,0.9,0,2,1.4,2.2c1.3,0.2,2.1-0.5,2.5-1.7c0.2-0.6,0.2-1.2,0.3-1.8c0.1-0.5,0.4-0.5,0.7-0.5
	c0.4,0,0.5,0.2,0.5,0.6c0.6,3.6-3.1,6.5-6.5,5.3c-0.9-0.3-1.4-1-1.7-2C207.9,135.1,208.2,133.1,208.1,131.5z"/>
<path class="st5" d="M152.9,134.9c1-2.5,1.9-4.8,2.8-7.2c0.4-1,0.1-1.7-1.1-1.8c-0.6,0-0.8-0.2-0.8-0.8c0-0.6,0.4-0.6,0.8-0.6
	c1.5,0,2.9,0,4.4,0c0.4,0,0.8,0.1,0.8,0.6c0,0.5-0.1,0.7-0.6,0.9c-1.1,0.3-1.6,1.1-2,2.1c-1.3,3.3-2.7,6.7-4.1,10
	c-0.2,0.5-0.2,1.2-1,1.2c-0.8,0-0.8-0.7-1-1.1c-1.5-3.4-3-6.8-4.5-10.3c-0.4-0.9-0.7-1.9-2-1.9c-0.5,0-0.5-0.4-0.5-0.8
	c0-0.5,0.2-0.6,0.7-0.6c1.9,0,3.7,0,5.6,0c0.4,0,0.6,0.2,0.6,0.6c0,0.5-0.1,0.8-0.6,0.8c-1.2,0-1.3,0.6-0.8,1.6
	C150.7,129.9,151.7,132.3,152.9,134.9z"/>
<path class="st11" d="M100.7,166.6c0,1,0,2,0,3c0,0.2,0.1,0.5-0.3,0.6c-0.3,0.1-0.4-0.3-0.5-0.5c-0.4-1.2-0.8-2.3-1.5-3.3
	c-1.2-1.8-2.8-2.8-5-2.5c-2.1,0.3-3.3,1.7-3.9,3.6c-1,3-1.1,6.2-0.1,9.3c0.9,2.9,2.8,4.3,5.4,4.1c2.6-0.1,4.6-2,5.2-4.7
	c0.1-0.6-0.2-1.8,0.8-1.6c0.8,0.2,0.2,1.3,0,1.8c-0.7,2.8-2.4,4.8-5.4,5.3c-3.3,0.5-6.1-0.7-8.1-3.4c-2.7-3.8-2.2-9.4,1-12.8
	c2.5-2.7,5.6-3.2,8.8-1.6c1.1,0.6,2.1,1,2.7-0.6c0.1-0.2,0.3-0.4,0.6-0.3c0.2,0.1,0.2,0.3,0.2,0.5
	C100.7,164.6,100.6,165.6,100.7,166.6C100.7,166.6,100.7,166.6,100.7,166.6z"/>
<path class="st11" d="M184.3,166.6c0,1,0,2,0,3c0,0.2,0.1,0.5-0.3,0.6c-0.4,0.1-0.4-0.2-0.5-0.5c-0.4-1.2-0.8-2.3-1.5-3.3
	c-1.2-1.8-2.8-2.8-5-2.5c-2.1,0.3-3.3,1.7-3.9,3.6c-1,3-1.1,6.2-0.2,9.3c0.9,2.9,2.8,4.3,5.4,4.2c2.6-0.1,4.6-2,5.2-4.7
	c0.1-0.6-0.2-1.8,0.8-1.6c0.8,0.2,0.2,1.3,0,1.8c-0.7,2.8-2.4,4.8-5.4,5.3c-3.3,0.5-6.1-0.7-8.1-3.4c-2.7-3.8-2.2-9.4,1-12.8
	c2.5-2.7,5.6-3.2,8.8-1.6c1.1,0.6,2.1,1,2.7-0.6c0.1-0.2,0.3-0.5,0.6-0.3c0.3,0.1,0.2,0.4,0.2,0.7
	C184.3,164.7,184.3,165.6,184.3,166.6C184.3,166.6,184.3,166.6,184.3,166.6z"/>
<path class="st3" d="M191,96.9c0.8-0.9,1.3-1.9,2.3-2.6c1.1-0.8,2.3-1,3.6-0.3c0.9,0.5,1.3,1.2,1.3,2.2c0,1.2-0.5,2-1.8,2
	c-1.2,0-1.8-0.7-1.8-1.9c0-0.3,0.3-0.6,0-0.8c-0.4-0.2-0.7,0.1-0.9,0.3c-1.4,1.2-2,2.8-2.2,4.5c-0.3,1.6-0.2,3.2-0.3,4.8
	c0,1.2,0.4,1.8,1.6,1.7c0.2,0,0.5,0.1,0.8,0.1c0.5,0,0.6,0.3,0.6,0.7c0,0.4-0.1,0.7-0.6,0.7c-2.3,0-4.6,0-6.8,0
	c-0.4,0-0.7,0-0.7-0.6c0-0.4,0-0.8,0.6-0.8c1.9,0.2,1.9-1.1,1.8-2.4c-0.1-2.4-0.1-4.9,0-7.3c0-1.3-0.3-1.9-1.7-1.8
	c-0.4,0-1.1,0.2-1.1-0.6c0-0.8,0.6-0.7,1.1-0.7c1.1-0.1,2.2-0.1,3.3-0.2c0.9-0.1,1,0.2,1,1C190.9,95.5,191,96.2,191,96.9z"/>
<path class="st7" d="M178.4,127.6c0.6-1.2,1.1-2.2,2.1-2.9c2-1.4,4.6-0.7,5,1.5c0.2,1.2-0.4,2.2-1.6,2.3c-1.2,0.2-1.9-0.5-2-1.8
	c0-0.3,0.3-0.7-0.2-0.9c-0.4-0.1-0.7,0.2-0.9,0.4c-1.2,1.1-1.8,2.6-2,4.1c-0.4,1.9-0.2,3.8-0.2,5.8c0,0.7,0.3,1,1,1
	c0.4,0,0.8,0,1.2,0c0.5,0,0.6,0.3,0.7,0.8c0,0.5-0.2,0.6-0.6,0.6c-2.3,0-4.6,0-6.8,0c-0.5,0-0.7-0.2-0.7-0.7c0-0.5,0.3-0.8,0.8-0.7
	c1.7,0.2,1.7-0.8,1.7-2c-0.1-2.6-0.1-5.2,0-7.8c0-1.3-0.4-1.8-1.6-1.7c-0.4,0-1.1,0.2-1.1-0.6c0-0.9,0.7-0.7,1.2-0.8
	c0.2,0,0.4,0,0.6,0c1.2,0,2.6-0.5,3.4,0C178.8,124.8,178,126.4,178.4,127.6z"/>
<path class="st2" d="M190.1,50.7c-4.4-11.5-8.7-23-13.1-34.6c1-0.3,1.5,0.1,1.9,1c3.9,9.3,7.8,18.6,11.7,28
	C191.5,47,190.5,48.8,190.1,50.7z"/>
<path class="st7" d="M203.2,172.2c0.5-0.8,0.8-1.3,1.2-1.8c0.9-1.1,2.1-1.6,3.5-1.3c1.4,0.3,2.1,1.4,2.3,2.7c0.4,2.3,0.1,4.7,0.2,7
	c0,0.8-0.1,1.7,1.1,1.8c0.3,0,0.4,0.2,0.4,0.5c0,0.3-0.3,0.4-0.5,0.4c-1.3,0-2.6,0-3.9,0c-0.2,0-0.5,0-0.6-0.3
	c-0.1-0.3,0-0.6,0.4-0.6c1-0.2,1.1-0.9,1.1-1.7c0-2,0-3.9,0-5.9c0-0.9-0.1-1.9-1.1-2.3c-1.1-0.4-2,0.2-2.7,1c-0.9,1-1.3,2.3-1.4,3.6
	c-0.1,1.1,0,2.1-0.1,3.2c0,1,0,2.1,1.5,2.1c0.3,0,0.4,0.2,0.4,0.5c0,0.3-0.2,0.4-0.5,0.4c-1.6,0-3.1,0-4.7,0c-0.2,0-0.5,0-0.6-0.3
	c0-0.4,0.1-0.6,0.5-0.6c1.3,0,1.4-0.9,1.4-1.9c0-2.2,0-4.4,0-6.5c0-1,0-2-1.5-1.9c-0.3,0-0.5-0.1-0.5-0.4c0-0.4,0.2-0.5,0.6-0.5
	c1-0.1,1.9-0.2,2.9-0.3c0.6-0.1,0.6,0.3,0.6,0.8C203.2,170.5,203.2,171.1,203.2,172.2z"/>
<path class="st11" d="M114.5,178.3c0.4,1.6-0.2,3.2-1.4,3.5c-1.1,0.4-1.8-0.2-2.5-2.3c-0.9,1.6-2.3,2.3-4,2.4c-1.4,0-2.5-0.4-3-1.8
	c-0.5-1.4,0-2.6,1.2-3.5c1.3-1.1,3-1.5,4.6-2c0.8-0.2,1.7-0.3,1.5-1.6c-0.2-1.2,0-2.5-1.6-2.9c-0.7-0.2-1.3-0.2-2-0.1
	c-0.8,0.1-2.1,0.2-0.6,1.4c0.5,0.4,0.5,1,0.2,1.5c-0.3,0.6-0.9,0.8-1.6,0.7c-0.6-0.1-1.1-0.5-1.3-1.1c-0.2-1.2,0.3-2.1,1.3-2.7
	c1.8-1,3.8-1,5.7-0.3c1.2,0.5,1.5,1.6,1.5,2.8c0.1,2,0,4.1,0.1,6.1c0,0.7-0.3,1.7,0.6,1.8c1,0.2,0.8-0.9,1-1.6
	C114.2,178.5,114.2,178.3,114.5,178.3z M110.6,175.1c-1.6,0.5-3.2,1.1-4.3,2.4c-0.6,0.8-0.8,1.7-0.2,2.5c0.6,0.9,1.6,0.8,2.5,0.4
	c1.1-0.5,1.7-1.4,2-2.5C110.7,177,110.7,176.1,110.6,175.1z"/>
<path class="st11" d="M127.1,175.8c0.1-3.5,1.7-5.9,4.3-6.6c3.5-0.9,6.9,2.5,6.2,6c-0.2,0.7-0.6,0.5-1,0.5c-2,0-3.9,0.1-5.9,0
	c-0.9,0-1.3,0.2-1.1,1.2c0.2,1.8,1.1,3.1,2.6,3.6c1.6,0.5,3.1,0,4.3-1.5c0.1-0.1,0.2-0.3,0.3-0.4c0.2-0.2,0.3-0.7,0.8-0.5
	c0.6,0.3,0.2,0.7,0,1c-1.1,2-2.8,2.8-5,2.7c-2.3-0.1-4-1.2-4.9-3.4C127.1,177.5,127,176.6,127.1,175.8z M131.9,174.8
	c0.4,0,0.8,0,1.2,0c1.9,0,2.2-0.3,1.9-2.2c-0.1-0.3-0.1-0.7-0.3-1c-0.6-1.3-1.6-1.9-2.9-1.5c-1.3,0.4-2.7,2.6-2.3,4.2
	c0.3,1.3,1.5,0.3,2.2,0.6C131.8,174.9,131.9,174.8,131.9,174.8z"/>
<path class="st11" d="M145.6,175.8c-1,0-1.9,0-2.9,0c-0.8-0.1-1.2,0.2-1.1,1.1c0.2,1.9,1.1,3.2,2.7,3.7c1.6,0.5,3.1-0.1,4.3-1.6
	c0.3-0.3,0.3-1.2,1-0.7c0.6,0.4,0,0.9-0.2,1.3c-2,3.4-7.4,3.2-9.4-0.3c-1.4-2.4-1-6.3,0.9-8.4c1.5-1.7,4-2.2,6-1.3
	c1.8,0.9,3.2,3.6,2.9,5.6c-0.1,0.6-0.4,0.6-0.8,0.6C147.8,175.8,146.7,175.8,145.6,175.8z M144.2,174.8c3.2,0,3.7-0.6,2.8-3.1
	c-0.5-1.4-1.5-2-2.8-1.8c-1.4,0.3-2.8,2.5-2.5,4.2c0.3,1.4,1.6,0.3,2.4,0.6C144.1,174.9,144.2,174.8,144.2,174.8z"/>
<path class="st11" d="M193.4,175.8c-0.8,0-1.6,0-2.4,0c-1.7,0-1.8,0.1-1.5,1.8c0.3,1.5,1.1,2.6,2.7,3c1.6,0.4,2.9-0.1,3.9-1.3
	c0.2-0.2,0.4-0.5,0.5-0.7c0.2-0.3,0.3-0.5,0.7-0.3c0.5,0.3,0.2,0.6,0.1,0.9c-0.9,1.7-2.3,2.7-4.2,2.8c-2.2,0.2-4.1-0.5-5.3-2.5
	c-2.3-3.7-0.4-9.3,3.6-10.2c3.8-0.8,6.2,2.3,6,6.1c0,0.6-0.5,0.5-0.9,0.5C195.6,175.8,194.5,175.8,193.4,175.8z M191.9,174.8
	c0.6,0,1.2,0,1.8,0c1.1,0,1.4-0.5,1.3-1.5c-0.1-0.8-0.2-1.5-0.6-2.2c-0.7-1.1-1.6-1.5-2.8-1c-1.3,0.5-2.5,2.7-2.2,4.1
	c0.3,1.1,1.4,0.3,2.1,0.6C191.7,174.9,191.8,174.8,191.9,174.8z"/>
<path class="st11" d="M229.1,175.8c-0.9,0-1.8,0.1-2.7,0c-1.2-0.1-1.5,0.3-1.3,1.4c0.3,1.6,1,2.9,2.7,3.3c1.6,0.4,3-0.1,4.1-1.5
	c0.1-0.1,0.2-0.3,0.3-0.4c0.2-0.3,0.4-0.8,0.9-0.4c0.5,0.4,0,0.7-0.1,1c-1.3,2.6-5,3.5-7.7,1.8c-2.3-1.4-2.8-3.7-2.6-6.2
	c0.2-2.4,1.2-4.3,3.4-5.4c1.7-0.8,3.5-0.7,5,0.5c1.7,1.3,2,3.2,2.1,5.2c0,0.6-0.4,0.6-0.8,0.6C231.2,175.8,230.2,175.8,229.1,175.8z
	 M227.6,174.8c0.7,0,1.3,0,2,0c0.6,0,1.1-0.2,1.1-0.9c0-1.1-0.1-2.1-0.8-3c-0.7-1-1.7-1.2-2.8-0.7c-1.2,0.5-2.4,2.8-2,4.1
	c0.3,1.1,1.4,0.3,2,0.5C227.2,174.9,227.4,174.8,227.6,174.8z"/>
<path class="st5" d="M142.5,130.6c0,1.8,0,3.5,0,5.3c0,1,0.3,1.4,1.3,1.4c0.6,0,1.1,0,1.1,0.8c-0.1,0.9-0.7,0.5-1.1,0.5
	c-1.9,0-3.7,0-5.6,0c-0.4,0-0.9,0.2-0.9-0.6c0-0.7,0.4-0.9,0.9-0.8c1.2,0.1,1.6-0.4,1.5-1.6c-0.1-2.7-0.1-5.5,0-8.2
	c0-1.1-0.3-1.7-1.5-1.6c-0.4,0-0.9,0.2-1-0.6c-0.1-0.8,0.4-0.8,0.9-0.8c0.8,0,1.6-0.1,2.4-0.1c2-0.1,2-0.1,2,2
	C142.5,127.7,142.5,129.1,142.5,130.6z"/>
<path class="st5" d="M203.8,130.5c0,1.8,0,3.5,0,5.3c0,0.9,0.2,1.5,1.2,1.4c0.6,0,1.2-0.1,1.1,0.8c0,0.9-0.7,0.6-1.1,0.6
	c-1.9,0-3.7,0-5.6,0c-0.4,0-1.1,0.3-1.1-0.6c0-0.8,0.4-0.8,1-0.8c1.2,0.1,1.6-0.4,1.5-1.6c-0.1-2.7-0.1-5.5,0-8.2
	c0-1.1-0.2-1.8-1.5-1.7c-0.5,0-1.1,0.2-1.1-0.7c0-0.8,0.6-0.7,1.1-0.7c0.8-0.1,1.5-0.1,2.3-0.1c2.2-0.1,2.2-0.1,2.2,2.2
	C203.8,127.8,203.8,129.2,203.8,130.5z"/>
<path class="st12" d="M123.6,170c-1.3,0.1-1.8,0.9-2.3,1.6c-1.5,2.3-1.9,4.9-1.8,7.6c0.1,1,0.9,1.3,1.7,1.5c0.3,0.1,0.8-0.1,0.7,0.5
	c0,0.6-0.4,0.5-0.8,0.5c-1.7,0-3.4,0-5.2,0c-0.3,0-0.8,0.1-0.7-0.5c0-0.6,0.5-0.4,0.8-0.4c1.1,0,1.5-0.6,1.5-1.6c0-2.3,0-4.6,0-6.8
	c0-1.2-0.3-2-1.7-1.9c-0.3,0-0.6,0-0.6-0.5c0-0.4,0.3-0.5,0.6-0.5c0.1,0,0.1,0,0.2,0c1.2,0.1,2.7-0.9,3.4,0.1
	c0.6,0.7,0.1,2.2,0.3,3.4c0.3-0.6,0.7-1.3,1-1.9c0.6-0.9,1.4-1.7,2.5-1.9c1.4-0.2,2.6,0.6,2.6,2c0,0.8-0.2,1.5-1.1,1.8
	c-0.7,0.2-1.3,0.1-1.8-0.5c-0.5-0.7-0.3-1.3,0.3-1.9C123.4,170.4,123.4,170.3,123.6,170z"/>
<path class="st12" d="M159.3,170c-0.9,0-1.4,0.6-1.9,1.3c-1.7,2.4-2.1,5.1-2,7.9c0.1,1,0.9,1.2,1.7,1.4c0.3,0.1,0.7,0,0.7,0.5
	c0,0.6-0.5,0.4-0.8,0.4c-1.7,0-3.3,0-5,0c-0.3,0-0.8,0.2-0.8-0.4c-0.1-0.5,0.3-0.6,0.7-0.5c1.3,0.1,1.6-0.7,1.6-1.8
	c0-2.2,0-4.5,0-6.7c0-1.1-0.3-1.9-1.6-1.8c-0.3,0-0.7,0.1-0.7-0.5c0-0.5,0.4-0.4,0.7-0.4c0.1,0,0.1,0,0.2,0c1.1,0.1,2.6-1,3.3,0.1
	c0.5,0.8,0.1,2.2,0.3,3.4c0.3-0.6,0.6-1.3,1.1-1.9c0.7-1,1.6-1.9,3-1.8c1.6,0,2.6,1.6,2,3c-0.4,1-1.2,1.2-2.1,0.8
	c-0.9-0.4-1-1.2-0.6-2C159.1,170.6,159.4,170.5,159.3,170z"/>
<path class="st12" d="M242.4,170c-0.9,0.1-1.5,0.7-2,1.4c-1.6,2.4-2.1,5-1.9,7.8c0.1,1,0.9,1.2,1.7,1.4c0.3,0.1,0.7,0,0.7,0.5
	c0,0.6-0.5,0.4-0.8,0.4c-1.7,0-3.4,0-5.2,0c-0.3,0-0.6,0.1-0.7-0.4c-0.1-0.5,0.3-0.6,0.7-0.5c1.3,0.1,1.6-0.7,1.6-1.8
	c0-2.2,0-4.5,0-6.7c0-1.1-0.2-1.9-1.6-1.8c-0.3,0-0.7,0.1-0.7-0.5c0-0.5,0.4-0.4,0.7-0.4c3.5-0.6,3.5-0.6,3.6,3.1
	c0,0.1,0,0.2,0.1,0.6c0.4-0.8,0.7-1.5,1.2-2.1c0.7-1,1.6-1.9,3-1.8c1.6,0,2.6,1.6,2,3c-0.4,1-1.2,1.2-2.1,0.8c-0.9-0.4-1-1.2-0.6-2
	C242.1,170.6,242.5,170.5,242.4,170z"/>
<path class="st11" d="M214.9,174.9c0-0.8,0-1.6,0-2.4c0-1,0.3-2.3-1.5-1.9c-0.3,0.1-0.4-0.2-0.4-0.5c0-0.3,0-0.6,0.4-0.7
	c2.1-0.7,2.2-2.5,2.6-4.3c0.1-0.4-0.1-0.9,0.6-0.8c0.5,0.1,0.3,0.5,0.3,0.9c0,0.4,0,0.7,0,1.1c0,1-0.3,2.2,0.2,3
	c0.5,0.7,1.8,0.2,2.7,0.3c0.4,0,0.8,0,0.8,0.6c0,0.6-0.3,0.6-0.8,0.6c-0.9,0.1-2.3-0.5-2.7,0.2c-0.5,0.7-0.2,1.9-0.2,2.9
	c0,1.5,0,3,0,4.6c0,1,0.3,1.8,1.4,2c1.1,0.1,1.8-0.4,2.2-1.4c0.1-0.2,0.1-0.4,0.2-0.6c0.2-0.5-0.1-1.5,0.6-1.3
	c0.8,0.2,0.3,1.1,0.2,1.7c-0.2,1.4-0.8,2.5-2.2,3c-2.1,0.8-4-0.2-4.2-2.5C214.9,177.8,215,176.4,214.9,174.9
	C215,174.9,214.9,174.9,214.9,174.9z"/>
<path class="st7" d="M140.9,116.6c1.2,0,1.8,0.7,2,1.7c0.1,1-0.9,2-1.9,1.9c-1.1-0.1-1.8-0.7-1.8-1.8
	C139.1,117.3,139.8,116.7,140.9,116.6z"/>
<path class="st7" d="M202.1,116.6c1.1,0.1,1.8,0.6,1.9,1.7c0.1,1-0.8,2.1-1.8,2c-1-0.1-1.8-0.6-1.8-1.8
	C200.4,117.3,201,116.8,202.1,116.6z"/>
<path class="st10" d="M180.7,16.9c0,0-0.1,0-0.1-0.1c0,0,0-0.1,0-0.1C180.6,16.8,180.6,16.9,180.7,16.9
	C180.6,17,180.7,16.9,180.7,16.9z"/>
<path class="st13" d="M147.7,39.7c0.1-0.1,0.1-0.2,0.2-0.2c3.1,0.5,5.1-0.5,5-4.1c0.6,0.5,0.6,0.9,0.7,1.2c0.9,2.7,0.9,2.7,3.9,2.8
	c0.3,0,0.7,0,1.4,0c-1,0.7-1.6,1.3-2.3,1.7c-1.1,0.6-1.3,1.4-0.7,2.5c0.3,0.7,0.5,1.5,0.7,2.3c-0.1,0-0.2,0.1-0.3,0.1
	c-1.1-0.7-2.1-2-3.3-2c-1.1-0.1-2,1.5-3.2,2c-0.1-0.2-0.2-0.2-0.1-0.3c1.4-3.4,1.4-3.4-1.5-5.5C148.1,39.9,147.9,39.8,147.7,39.7z"
	/>
<path class="st14" d="M172.3,101.8c0-0.4,0-0.8,0-1.2c0-3.1,0-3.1,3.2-3c0.7,0,1.3,0.1,2,0.2c3.4,0.6,4.9,4,3.3,7
	c-0.6,1-1.5,1.5-2.5,1.7c-1.6,0.3-3.2,0.2-4.8,0.1c-0.8,0-1-0.6-1-1.2C172.3,104.3,172.3,103,172.3,101.8
	C172.3,101.8,172.3,101.8,172.3,101.8z"/>
<path class="st14" d="M172.3,92.2c0-1,0-2,0-3c0-1,0.5-1.5,1.5-1.5c0.9,0,1.8,0,2.7,0.1c2.8,0.2,3.9,1.5,3.8,4.2
	c0,2.6-1.3,3.9-3.9,4.1C172.3,96.4,172.3,96.4,172.3,92.2z"/>
<path class="st14" d="M209,101.2c0,1.4-0.1,2.7-0.5,4c-0.5,1.5-1.6,2.2-3.1,2.2c-1.5,0-2.6-0.6-3.1-2c-1-2.8-0.9-5.7,0-8.5
	c0.5-1.3,1.6-1.9,3-1.9c1.4,0,2.4,0.6,3,1.9C209,98.2,209,99.7,209,101.2z"/>
<path class="st14" d="M125,101.1c-0.1,1.5-0.2,2.8-0.6,4c-0.5,1.5-1.5,2.2-3,2.3c-1.5,0-2.7-0.6-3.2-2.1c-0.9-2.8-0.9-5.6,0-8.3
	c0.5-1.4,1.6-2,3.1-2c1.5,0,2.5,0.7,3,2.1C124.8,98.4,124.8,99.8,125,101.1z"/>
<path class="st14" d="M216.7,101.6c0-1.4,0-2.8,0.5-4.1c0.5-1.7,1.5-2.5,3.2-2.5c1.6,0,2.7,0.7,3.2,2.4c0.7,2.5,0.7,5,0,7.5
	c-0.5,1.8-1.6,2.6-3.3,2.5c-1.6,0-2.6-0.9-3.1-2.6C216.8,103.8,216.8,102.7,216.7,101.6z"/>
<path class="st13" d="M165.9,130.5c-0.2,0-0.3,0-0.5,0c-0.9-0.2-2.3,0.5-2.6-0.3c-0.4-1.3,0.1-2.7,1-3.8c1-1.1,2.8-1.3,4-0.5
	c1,0.7,1.8,3.2,1.3,4.1c-0.2,0.5-0.6,0.5-1,0.5C167.4,130.5,166.7,130.5,165.9,130.5z"/>
<path class="st13" d="M110.6,175.1c0.1,1,0.2,2,0,2.8c-0.3,1.1-0.8,2-2,2.5c-0.9,0.4-1.8,0.4-2.5-0.4c-0.6-0.8-0.5-1.7,0.2-2.5
	C107.4,176.2,108.9,175.6,110.6,175.1z"/>
<path class="st13" d="M131.9,174.8c-0.1,0-0.1,0-0.2,0c-0.7-0.3-2,0.7-2.2-0.6c-0.4-1.6,1-3.8,2.3-4.2c1.2-0.4,2.3,0.2,2.9,1.5
	c0.1,0.3,0.2,0.7,0.3,1c0.3,1.9,0.1,2.2-1.9,2.2C132.7,174.8,132.3,174.8,131.9,174.8z"/>
<path class="st13" d="M144.2,174.8c-0.1,0-0.1,0-0.1,0c-0.8-0.4-2.1,0.8-2.4-0.6c-0.3-1.7,1.1-3.9,2.5-4.2c1.2-0.3,2.3,0.4,2.8,1.8
	C147.9,174.3,147.4,174.8,144.2,174.8z"/>
<path class="st13" d="M191.9,174.8c-0.1,0-0.2,0-0.3,0c-0.7-0.2-1.8,0.6-2.1-0.6c-0.4-1.5,0.9-3.7,2.2-4.1c1.2-0.4,2.2-0.1,2.8,1
	c0.4,0.7,0.5,1.4,0.6,2.2c0.1,1-0.3,1.5-1.3,1.5C193.1,174.8,192.5,174.8,191.9,174.8z"/>
<path class="st13" d="M227.6,174.8c-0.2,0-0.3,0-0.5,0c-0.7-0.3-1.7,0.6-2-0.5c-0.4-1.3,0.8-3.6,2-4.1c1.1-0.5,2.1-0.3,2.8,0.7
	c0.7,0.9,0.8,1.9,0.8,3c0,0.7-0.5,0.9-1.1,0.9C228.9,174.9,228.2,174.8,227.6,174.8z"/>
</svg>
