<svg id="Layer_1" data-name="Layer 1" xmlns="http://www.w3.org/2000/svg" viewBox="0 0 1152 864"><defs><style>.cls-1,.cls-2{fill:#fff;}.cls-2{opacity:0.86;isolation:isolate;}.cls-3{fill:#c41230;}</style></defs><title>SBUCEAS_White</title><path class="cls-1" d="M237,376.58c-8.35,0-13.73-1.92-20.16-7.2l-4.32,6.53h-3.75l-.38-27.37h4.13C214,355.94,216,360.45,220,365c4.51,5,9.6,7.2,16.7,7.2,5.28,0,8.45-1.05,11.62-3.84a12.38,12.38,0,0,0,4.32-9.6,11.13,11.13,0,0,0-4.42-9.12c-2-1.54-2.69-1.73-9.79-3.55l-9.12-2.31C215.2,340.14,210,335,210,324.49c0-12,8.45-20.07,21-20.07A24.89,24.89,0,0,1,248.54,311l3.84-5.77h3.55l1.15,25H253a37.39,37.39,0,0,0-5.76-12.86,18.78,18.78,0,0,0-16-8.35c-8.16,0-13.63,4.61-13.63,11.33,0,5.85,4,9.6,12.58,11.81l10.27,2.59c7.68,1.92,11.43,3.55,14,6a20,20,0,0,1,5.76,14.68C260.16,368.32,251.13,376.58,237,376.58Z"/><path class="cls-1" d="M731.23,575.27c-8.35,0-13.73-1.92-20.16-7.2l-4.32,6.53H703l-.38-27.36h4.13c1.44,7.39,3.45,11.9,7.48,16.41,4.52,5,9.61,7.2,16.71,7.2,5.28,0,8.45-1.05,11.62-3.84a12.38,12.38,0,0,0,4.32-9.6,11.13,11.13,0,0,0-4.42-9.12c-2-1.54-2.69-1.73-9.79-3.55l-9.12-2.31c-14.12-3.64-19.3-8.83-19.3-19.29,0-12,8.45-20.07,21-20.07a24.88,24.88,0,0,1,17.47,6.63l3.84-5.77h3.55l1.15,25h-4.13A37,37,0,0,0,741.4,516a18.78,18.78,0,0,0-16-8.35c-8.16,0-13.63,4.61-13.63,11.33,0,5.85,4,9.6,12.57,11.81l10.28,2.59c7.68,1.92,11.42,3.55,14,6a20,20,0,0,1,5.76,14.69C754.37,567,745.34,575.27,731.23,575.27Z"/><path class="cls-1" d="M281.32,376.58c-5.67,0-9.32-2.21-10.95-6.24-1-2.21-1.15-4.51-1.15-11.33V334.53h-7.87v-3.75c7.77-.58,12-6.91,13-19.39h3.93v19H292.4v4.13H278.24v26.21c0,7.58,1.25,10,5.67,10,4.7,0,7.2-4.41,7.49-13.05h4a20.23,20.23,0,0,1,.09,2.2C295.52,369,290.82,376.58,281.32,376.58Z"/><path class="cls-1" d="M319.62,376.58c-12.16,0-21.88-10.56-21.88-23.72,0-13.44,9.72-23.9,22.08-23.9,11.95,0,21.67,10.65,21.67,23.81S331.77,376.58,319.62,376.58Zm.27-43.49c-7.2,0-10.85,6.72-10.85,19.77,0,12.68,3.74,19.59,10.65,19.59s10.66-6.91,10.66-19.68-3.74-19.68-10.46-19.68Z"/><path class="cls-1" d="M373.33,374.32v-3.53h1.35c6.24,0,6.33.22,6.33-3.62V347.78c0-4.61-.67-7.59-2.11-9.61a9.23,9.23,0,0,0-6.81-3.36c-4.13,0-8.45,3-10.47,7.3-1.06,2.21-1.73,6.53-1.73,11.24v13.82c0,3.84.1,3.62,6.34,3.62h1.34v3.53H343.28v-3.53h1.35c6.14,0,6.24.22,6.24-3.62V340.38c0-4.12-1.45-6.43-5-6.43h-3.45V330.4l16.08-1v7.77c5.63-5.33,10.43-8.21,16.57-8.21a14.34,14.34,0,0,1,13,7.39c1.73,3.26,2,5,2,11.91v18.91c0,3.84.09,3.62,6.24,3.62h1.34v3.53Z"/><path class="cls-1" d="M821.21,374.32v-3.53h1.31c6.08,0,6.17.22,6.17-3.62V347.78c0-4.61-.65-7.59-2.06-9.61a8.93,8.93,0,0,0-6.64-3.36c-4,0-8.23,3-10.19,7.3-1,2.21-1.68,6.53-1.68,11.24v13.82c0,3.84.09,3.62,6.17,3.62h1.31v3.53H791.94v-3.53h1.31c6,0,6.08.22,6.08-3.62V340.38c0-4.12-1.41-6.43-4.87-6.43h-3.37V330.4l15.66-1v7.77c5.48-5.33,10.16-8.21,16.14-8.21a13.82,13.82,0,0,1,12.63,7.39c1.68,3.26,2,5,2,11.91v18.91c0,3.84.09,3.62,6.08,3.62h1.31v3.53Z"/><path class="cls-1" d="M441.27,333.85c-3.65,0-5.09,1.93-7.49,7.78L422.84,368.7c-4.32,10.66-6.15,14.5-9.12,18.54-3.84,5.18-8.16,7.68-13.25,7.68s-8.74-3.17-8.74-7.39a5.65,5.65,0,0,1,5.29-6h.47c2.79,0,4.9,1.83,4.9,4.32,0,1.06-.67,2.69-.67,3.36s.67,1,1.53,1c3.07,0,7.49-5.09,11-12.38l1.64-3.36L400.28,339c-1.73-3.84-3.27-5.19-6.34-5.19h-1.25V330.4h22.85v3.45h-2c-3.27,0-4.42.68-4.42,2.41a5.37,5.37,0,0,0,.58,2L420.25,363,429,341.3a10.7,10.7,0,0,0,1-3.84c0-2.5-1.53-3.56-5.18-3.56h-1.54v-3.5h19.2v3.45Z"/><path class="cls-1" d="M494.25,375.14H459.4v-4.51h1.72c7.78,0,8.64-.48,8.64-4.52V314.85c0-4-.86-4.52-8.64-4.52H459.4v-4.51h34.46c14.5,0,23.33,5.76,23.33,16.9,0,7.87-5,14-15.55,16.22,13.06,2.31,19.2,7.87,19.2,17.38C520.84,368,510.85,375.14,494.25,375.14Zm-3.56-64.81h-3.84c-5,0-6.33,1.06-6.33,4.8V337h8.54c12.29,0,17-3.64,17-13,0-9.06-4.06-13.67-15.37-13.67ZM489,341.54h-8.45v23c0,5.28.67,6,5.57,6h4c13.25,0,18.91-3.27,18.91-14.6C509,345.47,503.85,341.54,489,341.54Z"/><path class="cls-1" d="M556.48,342.76a5.09,5.09,0,0,1-5.28-4.89v-.39a5.58,5.58,0,0,1,1.73-4.32c-4,.48-7.3,3.45-9.6,8.83a51.68,51.68,0,0,0-3.74,20v4.8c0,3.84,1,4.51,7.2,4.51h1.82v3.46H523V371.3h1.34c6.24,0,6.34-.67,6.34-4.51V340c0-4.13-.58-4.8-4.13-4.8h-3.94v-4.13l17-1.06v11.9c3.07-8.45,8.35-13.34,14.4-13.34,5.09,0,8.35,3.07,8.35,7.68C562.34,340.17,559.94,342.76,556.48,342.76Z"/><path class="cls-1" d="M584.48,376.58c-11.67,0-21-10.56-21-23.72,0-13.44,9.33-23.9,21.19-23.9,11.48,0,20.81,10.65,20.81,23.81S596.15,376.58,584.48,376.58Zm.19-43.49c-7.29,0-11,6.72-11,19.77,0,12.68,3.79,19.59,10.79,19.59s10.79-6.91,10.79-19.68S591.48,333.09,584.67,333.09Z"/><path class="cls-1" d="M632,376.58c-12.07,0-21.73-10.56-21.73-23.72,0-13.44,9.66-23.9,21.93-23.9,11.87,0,21.53,10.65,21.53,23.81S644.08,376.58,632,376.58Zm.2-43.49c-7.55,0-11.37,6.72-11.37,19.77,0,12.68,3.93,19.59,11.17,19.59s11.17-6.91,11.17-19.68-3.92-19.68-11-19.68Z"/><path class="cls-1" d="M682.27,374.26v-3.45h1.83c3.17,0,4.22-.39,4.22-1.64a4.08,4.08,0,0,0-.67-1.72l-11.43-16L670.37,357v9.31c0,3.84.1,4.52,6.33,4.52h1.35v3.45H653.76v-3.45h1.34c6.15,0,6.24-.68,6.24-4.52v-52.8c0-4.13-.57-4.8-4.12-4.8h-4.61v-4.13l17.76-1.05V351l13-12.48c1.53-1.54,2.21-2.69,2.21-3.75,0-1.24-1.75-.77-4.82-.77h-3v-3.46H703V334c-6.52.76-10.35,1.83-15.92,7.3l-4.32,4.23,13.64,18.62c3.93,5,5.85,6.15,11.23,6.63v3.45Z"/><path class="cls-1" d="M786.64,326.7v21.79c0,20.26-9.89,28.14-27.17,28.14-15.75,0-26.6-6.15-26.6-20.74v-41c0-4-.86-4.51-8.54-4.51H722.7v-4.51h31.39v4.51h-1.82c-7.78,0-8.64.48-8.64,4.51v34.95c0,13.73,4.22,21.6,18.43,21.6,14.88,0,19.39-9.79,19.39-23.52V326.7c0-13.15-1.92-15.94-11-16.32v-4.51h27.36v4.51C788.56,310.76,786.64,313.55,786.64,326.7Z"/><path class="cls-1" d="M1039.63,374.69v-3.46h1.15c6.15,0,6.87.19,6.87-3.65V340.79c0-4,.29-5.69-3.27-5.69h-4.89V331l16.64-1.06.28,37.67c0,3.84.44,3.65,6.68,3.65h1.15v3.46Zm12.13-58.54a5.38,5.38,0,1,1,5.39-5.37A5.38,5.38,0,0,1,1051.76,316.15Z"/><path class="cls-1" d="M847.13,375.55V372.1h1.15c6.15,0,6.87.19,6.87-3.65V341.66c0-4,.29-5.7-3.27-5.7H847v-4.12l16.64-1.06.28,37.67c0,3.84.44,3.65,6.68,3.65h1.15v3.45ZM859.26,317a5.38,5.38,0,1,1,5.39-5.37A5.38,5.38,0,0,1,859.26,317Z"/><path class="cls-1" d="M916.69,333.9c-3.65,0-5.38,1.92-8,8.26l-13.63,33.7H891.7L875.21,338c-1.44-3.26-2.11-4.13-5.76-4.13h-1.34v-3.45h22.66v3.45h-1.35c-3.93,0-5.18.58-5.18,2.21a5.15,5.15,0,0,0,.48,2l10.95,24.67,8.83-22.27a10.61,10.61,0,0,0,.86-3.27c0-2.21-1.82-3.36-5.18-3.36h-1.35V330.4H918v3.45Z"/><path class="cls-1" d="M938.44,376.59c-13,0-21.7-9.21-21.7-22.78,0-14.54,9.22-25.3,21.51-25.3,11.81,0,19.78,10.27,19.78,24.81H926.92c0,12.22,5.38,18,13.35,18,6.43,0,10.46-2.91,14.4-10.37l3.36,1.84Q952.12,376.61,938.44,376.59Zm-.38-43.91c-5.86,0-11,6.1-11,16.47h16.8c3.07,0,3.94-.77,3.94-3.58C947.76,337.81,943.92,332.68,938.06,332.68Z"/><path class="cls-1" d="M992.83,342.71a5.09,5.09,0,0,1-5.28-4.89v-.38a5.54,5.54,0,0,1,1.73-4.32c-4,.48-6.71,3.45-9,8.83a51.68,51.68,0,0,0-3.74,20v4.8c0,3.84,1,4.37,7.14,4.37h1.82l.06,3.6H960.39v-3.46h1.35c6.24,0,6.34-.67,6.34-4.51V339.93c0-4.13-1.07-5.72-4.62-5.72h-3.94v-4l17-1.06V341.9c3.07-8.45,7.77-13.34,13.81-13.34,5.09,0,8.94,3.07,8.94,7.68a6.34,6.34,0,0,1-6.21,6.47Z"/><path class="cls-1" d="M1021.39,377a20.49,20.49,0,0,1-13.15-4.7l-3.36,3.93h-3.37V358.05h3.85c2.3,9.6,8.06,14.78,16.13,14.78,5.66,0,9.6-3.16,9.6-7.68,0-3.84-2.69-5.76-10.27-7.58l-5.09-1.15c-5.77-1.35-8-2.31-10.18-4.32s-3.36-5.09-3.36-8.84c0-8.35,5.57-13.92,14-13.92a17.55,17.55,0,0,1,11.71,3.84l2.78-3.45H1034v16.12h-3.36c-1.53-4.41-2.59-6.33-4.7-8.45a12.77,12.77,0,0,0-9.31-3.83c-5.28,0-8.93,2.78-8.93,6.62a5.62,5.62,0,0,0,3.36,5.09c1.73,1,1.73,1,7,2.11l4.81,1.06c5.85,1.24,7.77,2,10.08,4,2.68,2.21,4,5.47,4,9.7C1037,371.1,1030.8,377,1021.39,377Z"/><path class="cls-1" d="M1082.57,376.58c-5.67,0-9.32-2.21-11-6.24-1-2.21-1.15-4.51-1.15-11.33V334.53h-7.88v-3.75c7.78-.58,12-6.91,13-19.39h3.93v19h14.12v4.13h-14.12v26.21c0,7.58,1.25,10,5.67,10,4.7,0,7.2-4.41,7.48-13.05h4a20.23,20.23,0,0,1,.09,2.2C1096.77,369,1092.07,376.58,1082.57,376.58Z"/><path class="cls-1" d="M1146.59,332.85c-3.65,0-5.09,1.93-7.49,7.78l-10.94,27.07c-4.32,10.66-6.15,14.5-9.12,18.54-3.84,5.18-8.16,7.68-13.25,7.68s-8.74-3.17-8.74-7.39a5.65,5.65,0,0,1,5.29-6h.47c2.78,0,4.9,1.83,4.9,4.32,0,1.06-.67,2.69-.67,3.36s.67,1,1.53,1c3.07,0,7.49-5.09,11-12.38l1.63-3.36L1105.59,338c-1.72-3.84-3.26-5.19-6.33-5.19H1098V329.4h22.85v3.45h-2c-3.26,0-4.41.68-4.41,2.41a5.35,5.35,0,0,0,.57,2L1125.56,362l8.74-21.7a10.7,10.7,0,0,0,1-3.84c0-2.5-1.53-3.56-5.18-3.56h-1.54v-3.5h19.2v3.45Z"/><path class="cls-2" d="M413.54,574.5V570h4c3.56,0,6-1,6-2.49a7.72,7.72,0,0,0-.77-2.6L417.57,552H392.13L389,560.49a11.7,11.7,0,0,0-.86,4q0,5.47,7.78,5.47h1.92v4.51H372.36V570h1.34c4.8,0,6.14-1.44,9.6-10.17l22.08-56h4l24.49,60c2.2,5.37,2.78,6.14,7.58,6.14h1.82v4.51Zm-8.83-54.91-10.66,27.26h21.51Z"/><path class="cls-2" d="M314.68,473.93v-3.45h1.63c6.15,0,6.24-.68,6.24-4.51V413.16c0-4.13-.57-4.8-4-4.8h-4.7v-4.13l17.76-1.05V466c0,3.83.1,4.51,6.34,4.51h1.63V474Z"/><path class="cls-2" d="M340.41,473.93v-3.45H342c6.15,0,6.24-.68,6.24-4.51V413.16c0-4.13-.57-4.8-4-4.8h-4.7v-4.13l17.76-1.05V466c0,3.83.1,4.51,6.34,4.51h1.63V474Z"/><path class="cls-2" d="M537.47,574.55v-3.46h1.63c6.15,0,6.25-.67,6.25-4.51v-52.8c0-4.13-.58-4.8-4-4.8h-4.7v-4.13l17.76-1.06v62.79c0,3.84.1,4.51,6.34,4.51h1.63v3.46Z"/><path class="cls-2" d="M563.45,573.87v-3.51h1.11c5.93,0,6.49-.69,6.49-4.59V538.55c0-4.1-.56-4.88-4-4.88h-4.73v-4.19l17.42-1.08v37.37c0,3.9.56,4.59,6.58,4.59h1.11v3.51Zm11.2-58.73a5.34,5.34,0,1,1,5.47-5.33A5.41,5.41,0,0,1,574.65,515.14Z"/><path class="cls-2" d="M801.1,573.87v-3.51h1.11c5.93,0,6.49-.69,6.49-4.59V538.55c0-4.1-.56-4.88-4-4.88H800v-4.19l17.43-1.08v37.37c0,3.9.55,4.59,6.58,4.59h1.11v3.51Zm11.19-58.73a5.34,5.34,0,1,1,5.48-5.33A5.41,5.41,0,0,1,812.29,515.14Z"/><path class="cls-2" d="M795.45,473.25v-3.51h1.11c5.94,0,6.49-.68,6.49-4.59V437.93c0-4.1-.55-4.87-4-4.87h-4.73v-4.2l17.42-1.07v37.36c0,3.91.56,4.59,6.58,4.59h1.11v3.51Zm11.2-58.73a5.33,5.33,0,1,1,5.47-5.33A5.41,5.41,0,0,1,806.65,414.52Z"/><path class="cls-2" d="M1000.38,473.25v-3.51h1.12c5.93,0,6.48-.68,6.48-4.59V437.93c0-4.1-.55-4.87-4-4.87h-4.73v-4.2l17.42-1.07v37.36c0,3.91.56,4.59,6.58,4.59h1.11v3.51Zm11.2-58.73a5.33,5.33,0,1,1,5.47-5.33A5.41,5.41,0,0,1,1011.58,414.52Z"/><path class="cls-2" d="M1027.48,575.68a20.5,20.5,0,0,1-13.15-4.71l-3.36,3.94h-3.36V556.77h3.84c2.3,9.6,8.07,14.78,16.13,14.78,5.67,0,9.6-3.17,9.6-7.68,0-3.84-2.69-5.76-10.27-7.58l-5.09-1.16c-5.76-1.34-8-2.3-10.18-4.32s-3.36-5.09-3.36-8.83c0-8.35,5.57-13.92,14-13.92A17.53,17.53,0,0,1,1034,531.9l2.79-3.46h3.36v16.13h-3.36c-1.54-4.41-2.59-6.34-4.71-8.45a12.76,12.76,0,0,0-9.31-3.84c-5.28,0-8.93,2.79-8.93,6.63a5.62,5.62,0,0,0,3.36,5.09c1.73,1,1.73,1,7,2.11l4.8,1c5.86,1.25,7.78,2,10.08,4,2.69,2.21,4,5.47,4,9.7C1043.13,569.82,1036.89,575.68,1027.48,575.68Z"/><path class="cls-2" d="M292.09,475.54c-12.08,0-21.73-10.56-21.73-23.71,0-13.45,9.65-23.91,21.93-23.91,11.87,0,21.53,10.66,21.53,23.81S304.16,475.54,292.09,475.54Zm.2-43.49c-7.55,0-11.37,6.72-11.37,19.78,0,12.67,3.92,19.58,11.17,19.58s11.17-6.91,11.17-19.68-3.93-19.68-11-19.68Z"/><path class="cls-2" d="M780.4,575.68c-11.9,0-20.06-9.41-20.06-23,0-14.31,8.93-24.58,21.41-24.58,8.54,0,15,5,15,11.42,0,3.84-2.5,6.53-5.86,6.53s-5.76-2.2-5.76-5.37c0-1.64.38-2.6,1.92-4.42.39-.57.58-.86.58-1.15,0-1.54-2.5-2.88-5.38-2.88-7.1,0-11.81,7.78-11.81,19.39,0,11.23,4.8,18.24,12.48,18.24,5,0,8.26-2.78,11.33-9.69l3.74,1.44C793.85,571.74,789,575.68,780.4,575.68Z"/><path class="cls-2" d="M941,575.68c-12.49,0-21-9.41-21-23,0-14.31,9.37-24.58,22.47-24.58,9,0,15.71,5,15.71,11.42,0,3.84-2.62,6.53-6.14,6.53s-6-2.2-6-5.37c0-1.64.4-2.6,2-4.42.41-.57.61-.86.61-1.15,0-1.54-2.62-2.88-5.64-2.88-7.45,0-12.39,7.78-12.39,19.39,0,11.23,5,18.24,13.1,18.24,5.23,0,8.66-2.78,11.88-9.69l3.93,1.44C955.06,571.74,949.92,575.68,941,575.68Z"/><path class="cls-2" d="M246.72,574.56c-4.43,0-6.78-1.89-8.29-6.71a21,21,0,0,1-16.37,7.47c-8.29,0-13.65-4.35-13.65-11.06,0-9.27,7.62-13.9,29.55-17.69v-3.69c0-8.31-3.86-10.39-10.16-10.39-4.52,0-8.38,1.7-8.38,3.68,0,.47,2.07,3.41,2.07,5.11a4.78,4.78,0,0,1-4.73,4.83h-.35c-3.29,0-5.46-2.27-5.46-5.86,0-6.81,7.81-11.82,18.36-11.82,10.82,0,17.5,2.93,17.5,15v19c0,4.73.94,6.52,3.57,6.52.57,0,2.74-1,4.05-1a1,1,0,0,1,.94,1.13C255.37,571.82,251,574.56,246.72,574.56ZM238,550.64c-16.28,2.74-20,5.58-20,12.29a7.2,7.2,0,0,0,7,7.38h.4a13.55,13.55,0,0,0,10.73-5.87c1.6-2.45,1.88-3.78,1.88-9.45Z"/><path class="cls-2" d="M720,473.93v-3.46h1.33c6.17,0,6.27-.67,6.27-4.52V446.52c0-4.62-.67-7.6-2.09-9.62a9,9,0,0,0-6.74-3.37c-4.08,0-8.35,3-10.35,7.31-1,2.22-1.7,6.54-1.7,11.26V466c0,3.85.09,4.52,6.26,4.52h1.33V474h-24v-3.46h1.33c6.07,0,6.16-.67,6.16-4.52V439.11c0-4.13-.56-4.81-4.08-4.81h-3.41v-4.13l16.42-1.06v7.79c4.17-6.35,8.92-9.23,15-9.23a14,14,0,0,1,12.81,7.4c1.71,3.27,2,5,2,11.93v19c0,3.85.09,4.52,6.17,4.52H744V474Z"/><path class="cls-2" d="M283.36,573.67v-3.46h1.33c6.17,0,6.26-.68,6.26-4.52V546.25c0-4.61-.66-7.59-2.09-9.61a9,9,0,0,0-6.74-3.37c-4.08,0-8.35,3-10.34,7.31-1,2.21-1.71,6.54-1.71,11.26v13.85c0,3.84.1,4.52,6.27,4.52h1.33v3.46h-24v-3.46H255c6.08,0,6.17-.68,6.17-4.52V538.85c0-4.14-.57-4.81-4.08-4.81h-3.42V529.9l16.42-1v7.79c4.18-6.35,8.92-9.24,15-9.24a14,14,0,0,1,12.81,7.41c1.71,3.27,2,5,2,11.93v19c0,3.84.1,4.52,6.17,4.52h1.33v3.46Z"/><path class="cls-2" d="M849.83,473.93v-3.46h1.33c6.17,0,6.27-.67,6.27-4.52V446.52c0-4.62-.67-7.6-2.09-9.62a9,9,0,0,0-6.74-3.37c-4.08,0-8.35,3-10.35,7.31-1,2.22-1.7,6.54-1.7,11.26V466c0,3.85.09,4.52,6.26,4.52h1.33V474h-24v-3.46h1.33c6.07,0,6.16-.67,6.16-4.52V439.11c0-4.13-.56-4.81-4.08-4.81h-3.41v-4.13l16.42-1.06v7.79c4.17-6.35,8.92-9.23,15-9.23a14,14,0,0,1,12.81,7.4c1.71,3.27,2,5,2,11.93v19c0,3.85.09,4.52,6.17,4.52h1.32V474Z"/><path class="cls-2" d="M1055.67,473.93v-3.46H1057c6.17,0,6.27-.67,6.27-4.52V446.52c0-4.62-.67-7.6-2.09-9.62a9,9,0,0,0-6.74-3.37c-4.08,0-8.35,3-10.35,7.31-1,2.22-1.7,6.54-1.7,11.26V466c0,3.85.09,4.52,6.26,4.52H1050V474h-24v-3.46h1.33c6.07,0,6.16-.67,6.16-4.52V439.11c0-4.13-.56-4.81-4.08-4.81H1026v-4.13l16.42-1.06v7.79c4.17-6.35,8.92-9.23,15-9.23a14,14,0,0,1,12.81,7.4c1.71,3.27,2,5,2,11.93v19c0,3.85.09,4.52,6.17,4.52h1.32V474Z"/><path class="cls-2" d="M897.82,573.67v-3.46h1.32c6.17,0,6.27-.68,6.27-4.52V546.25c0-4.61-.67-7.59-2.09-9.61a9,9,0,0,0-6.74-3.37c-4.08,0-8.35,3-10.34,7.31-1,2.21-1.71,6.54-1.71,11.26v13.85c0,3.84.09,4.52,6.26,4.52h1.33v3.46h-24v-3.46h1.33c6.07,0,6.17-.68,6.17-4.52V538.85c0-4.14-.57-4.81-4.09-4.81h-3.41V529.9l16.42-1v7.79c4.17-6.35,8.92-9.24,15-9.24a14.07,14.07,0,0,1,12.82,7.41c1.7,3.27,2,5,2,11.93v19c0,3.84.09,4.52,6.17,4.52h1.33v3.46Z"/><path class="cls-3" d="M89.42,245.61S51.36,244,8.55,264.72v74a85.52,85.52,0,0,0,9,38.26C27.92,397.7,49,426.18,89.46,437.5Z"/><polygon class="cls-3" points="94.94 245.58 107.45 431.05 119.96 425.75 100.27 245.86 94.94 245.58"/><polygon class="cls-3" points="105.7 245.88 134.91 413.82 143.74 405.42 110.35 246.14 105.7 245.88"/><polygon class="cls-3" points="116.91 247.83 155.53 389.89 161.98 379.44 121.15 248.03 116.91 247.83"/><path class="cls-3" d="M127.73,249.21l40.33,109.15s1.93-5.48,1.82-14.54l-37.52-93.67Z"/><path class="cls-3" d="M138.62,251.45,170.77,322l.68-55S159,257.47,138.62,251.45Z"/><polygon class="cls-1" points="67.42 322.08 52.96 321.37 48.99 308.47 49 307.61 48.86 308.04 48.74 307.65 48.73 308.42 44.65 321.07 30.3 320.2 41.56 329.45 37.32 342.76 48.66 335.1 59.83 343.82 55.87 330.05 67.42 322.08"/><path class="cls-1" d="M238.81,476.49c-18.4,0-31.57-15-31.57-36,0-20.38,14.48-37.34,31.66-37.34,6.26,0,9.9,1.46,16.54,6.53l3.73-5.75h4.95V432.1H260c-2.15-7.5-3.55-11.31-5.32-14.52-3.55-6.24-9.34-9.85-15.88-9.85-13,0-19.24,11.89-19.24,33.15,0,21,6.54,31,20.36,31,11,0,18.4-6.63,21.11-21.74l4.39.78C263.28,467.33,253.75,476.49,238.81,476.49Z"/><path class="cls-1" d="M387.35,475.54c-12.41,0-20.78-9.07-20.78-22.42,0-14.31,8.83-24.89,20.6-24.89,11.32,0,18.95,10.11,18.95,24.41h-29.8c0,12,5.15,17.75,12.78,17.75,6.17,0,10-2.86,13.8-10.21l3.22,1.81C402.35,471.06,396.09,475.54,387.35,475.54ZM387,432.33c-5.61,0-10.58,6-10.58,16.22h16.1c2.94,0,3.77-.77,3.77-3.54C396.28,437.38,392.6,432.33,387,432.33Z"/><path class="cls-1" d="M609.72,575.53c-12.41,0-20.78-9.07-20.78-22.42,0-14.31,8.83-24.9,20.6-24.9,11.31,0,19,10.11,19,24.42h-29.8c0,12,5.15,17.74,12.78,17.74,6.17,0,10-2.86,13.8-10.2l3.22,1.81Q622.81,575.51,609.72,575.53Zm-.36-43.21c-5.62,0-10.58,6-10.58,16.21h16.1c2.94,0,3.77-.76,3.77-3.53C618.65,537.37,615,532.32,609.36,532.32Z"/><path class="cls-1" d="M846.88,575.53c-13,0-21.79-9.07-21.79-22.42,0-14.31,9.26-24.9,21.6-24.9,11.86,0,19.86,10.11,19.86,24.42H835.31c0,12,5.4,17.74,13.4,17.74,6.47,0,10.51-2.86,14.47-10.2l3.37,1.81C862.6,571,856,575.53,846.88,575.53Zm-.38-43.21c-5.88,0-11.09,6-11.09,16.21h16.87c3.09,0,4-.76,4-3.53C856.24,537.37,852.38,532.32,846.5,532.32Z"/><path class="cls-1" d="M982.88,575.53c-13,0-21.79-9.07-21.79-22.42,0-14.31,9.26-24.9,21.6-24.9,11.86,0,19.86,10.11,19.86,24.42H971.31c0,12,5.4,17.74,13.4,17.74,6.47,0,10.51-2.86,14.47-10.2l3.37,1.81C998.6,571,992,575.53,982.88,575.53Zm-.38-43.21c-5.88,0-11.09,6-11.09,16.21h16.87c3.09,0,4-.76,4-3.53C992.24,537.37,988.38,532.32,982.5,532.32Z"/><path class="cls-1" d="M939,475.41c-13,0-21.79-9.07-21.79-22.42,0-14.31,9.25-24.9,21.6-24.9,11.86,0,19.86,10.11,19.86,24.42H927.45c0,12,5.4,17.75,13.4,17.75,6.46,0,10.51-2.86,14.46-10.21l3.38,1.81C954.74,470.92,948.18,475.41,939,475.41Zm-.39-43.21c-5.88,0-11.09,6-11.09,16.21H944.4c3.09,0,4-.76,4-3.53,0-7.63-3.88-12.68-9.77-12.68Z"/><path class="cls-1" d="M893.69,475.41c-13,0-21.8-9.07-21.8-22.42,0-14.31,9.26-24.9,21.6-24.9,11.86,0,19.87,10.11,19.87,24.42H882.12c0,12,5.39,17.75,13.4,17.75,6.46,0,10.51-2.86,14.46-10.21l3.38,1.81C909.4,470.92,902.85,475.41,893.69,475.41Zm-.39-43.21c-5.88,0-11.09,6-11.09,16.21h16.88c3.08,0,3.95-.76,3.95-3.53C903,437.25,899.18,432.2,893.3,432.2Z"/><path class="cls-1" d="M480.18,475.39c-12.41,0-20.78-9.07-20.78-22.42,0-14.31,8.83-24.9,20.6-24.9,11.31,0,18.95,10.11,18.95,24.42h-29.8c0,12,5.15,17.74,12.78,17.74,6.17,0,10-2.86,13.8-10.2l3.22,1.81C495.18,470.9,488.92,475.39,480.18,475.39Zm-.36-43.21c-5.62,0-10.58,6-10.58,16.21h16.1c2.94,0,3.77-.76,3.77-3.53,0-7.63-3.68-12.68-9.29-12.68Z"/><path class="cls-1" d="M455.19,437.75c-4,0-4.11-4.87-5.14-4.87-.75,0-1.59.57-3.18,2.29a12.78,12.78,0,0,1,3.46,9.35,14.58,14.58,0,0,1-8.78,13.84c-3.09,1.43-4.49,1.62-13.37,1.81-6.26.2-8.78,1.44-8.78,4.3a3,3,0,0,0,1.12,2.48c1.12.58,1.4.86,6.54.86h9.53c6.45,0,9.44.38,11.87,1.34,3.46,1.43,5.61,5.25,5.61,10,0,10-7.85,15.07-23.46,15.07-12.52,0-19.72-3.52-19.72-9.83,0-3.91,2.81-7,8.6-9.06-4.39-1.53-6.26-4-6.26-8.21,0-5.25,2.62-8.11,8.88-9.54a13.85,13.85,0,0,1-7.85-12.79c0-9.55,7.29-15.84,18.41-15.84a18.3,18.3,0,0,1,11.59,3.62c4.29-4,6-5,9-5,3.64,0,6.17,2.29,6.17,5.53a4.36,4.36,0,0,1-4.08,4.64Zm-13.74,38.46c-1.4-.19-2-.19-9.72-.19h-6.91c-4.49,2.38-6.17,4.48-6.17,7.63,0,4.29,4.48,6.68,12.33,6.68,10.47,0,16.55-3.15,16.55-8.59C447.53,478.69,445.19,476.59,441.45,476.21Zm-8.88-43.14c-6.26,0-9.81,4.29-9.81,11.84,0,7.15,3.65,11.64,9.44,11.64,6,0,9.53-4.49,9.53-11.93S438.46,433.07,432.57,433.07Z"/><path class="cls-1" d="M1124,437.14c-4,0-4.11-4.87-5.14-4.87-.75,0-1.59.57-3.18,2.29a12.78,12.78,0,0,1,3.46,9.35,14.57,14.57,0,0,1-8.78,13.84c-3.09,1.43-4.49,1.62-13.37,1.82-6.26.19-8.78,1.43-8.78,4.29a3,3,0,0,0,1.12,2.48c1.12.58,1.4.86,6.54.86h9.53c6.45,0,9.44.38,11.87,1.34,3.46,1.43,5.61,5.25,5.61,10,0,10-7.85,15.07-23.46,15.07-12.52,0-19.72-3.52-19.72-9.82,0-3.91,2.81-7,8.6-9.07-4.39-1.52-6.26-4-6.26-8.21,0-5.25,2.62-8.11,8.88-9.54a13.85,13.85,0,0,1-7.85-12.79c0-9.54,7.29-15.84,18.41-15.84a18.23,18.23,0,0,1,11.59,3.63c4.3-4,6-5,9-5,3.64,0,6.17,2.29,6.17,5.54a4.37,4.37,0,0,1-4.1,4.62Zm-13.74,38.46c-1.4-.19-2-.19-9.72-.19h-6.91c-4.49,2.39-6.17,4.49-6.17,7.63,0,4.3,4.49,6.68,12.34,6.68,10.46,0,16.54-3.15,16.54-8.58,0-3.06-2.34-5.14-6.1-5.54Zm-8.87-43.14c-6.27,0-9.82,4.3-9.82,11.84,0,7.16,3.65,11.64,9.44,11.64,6,0,9.53-4.48,9.53-11.93s-3.29-11.55-9.17-11.55Z"/><path class="cls-1" d="M788.34,437.14c-4,0-4.11-4.87-5.14-4.87-.74,0-1.59.57-3.18,2.29a12.78,12.78,0,0,1,3.46,9.35,14.57,14.57,0,0,1-8.78,13.84c-3.09,1.43-4.49,1.62-13.37,1.82-6.26.19-8.78,1.43-8.78,4.29a3,3,0,0,0,1.12,2.48c1.12.58,1.4.86,6.54.86h9.53c6.45,0,9.44.38,11.87,1.34,3.46,1.43,5.61,5.25,5.61,10,0,10-7.85,15.07-23.46,15.07-12.52,0-19.72-3.52-19.72-9.82,0-3.91,2.81-7,8.6-9.07-4.39-1.52-6.26-4-6.26-8.21,0-5.25,2.62-8.11,8.88-9.54a13.85,13.85,0,0,1-7.85-12.79c0-9.54,7.29-15.84,18.41-15.84A18.23,18.23,0,0,1,777.41,432c4.3-4,6-5,9-5,3.64,0,6.17,2.29,6.17,5.54a4.37,4.37,0,0,1-4.13,4.6ZM774.6,475.6c-1.4-.19-2-.19-9.72-.19H758c-4.49,2.39-6.17,4.49-6.17,7.63,0,4.3,4.49,6.68,12.34,6.68,10.46,0,16.54-3.15,16.54-8.58C780.68,478.08,778.34,476,774.6,475.6Zm-8.87-43.14c-6.26,0-9.82,4.3-9.82,11.84,0,7.16,3.65,11.64,9.44,11.64,6,0,9.53-4.48,9.53-11.93s-3.27-11.55-9.15-11.55Z"/><path class="cls-1" d="M992,441.78a5,5,0,0,1-5.18-4.81,2.54,2.54,0,0,1,0-.39,5.54,5.54,0,0,1,1.69-4.26c-4,.48-7.16,3.41-9.43,8.7a51.3,51.3,0,0,0-3.67,19.66v4.73c0,3.78,1,4.44,7.07,4.44h1.79v3.4h-25.2v-3.4h1.32c6.13,0,6.22-.66,6.22-4.44V439c0-4.07-.57-4.73-4.05-4.73h-3.87v-4.06l16.69-1v11.72c3-8.32,8.2-13.14,14.14-13.14,5,0,8.2,3,8.2,7.56C997.72,439.23,995.36,441.78,992,441.78Z"/><path class="cls-1" d="M339,574.4v-7.49c-3.05,5.69-7.15,8.25-13.15,8.25-11.06,0-19-9.58-19-23,0-13.66,8.2-24,19-24,5.52,0,9.62,2.18,13.15,7V513.7c0-4.08-.67-4.74-4.1-4.74h-5.62v-4.08l18.68-1v58.89c0,6,.76,6.93,5.91,6.93h1.71v4.07Zm-1.91-33.95c-1.71-4.37-5.43-7.21-9.34-7.21s-7.43,2.75-9.05,6.92c-1.24,3.23-1.81,7.49-1.81,13.09,0,10.53,4.1,16.79,10.76,16.79,6.87,0,11.25-7.21,11.25-18.21a31.52,31.52,0,0,0-1.84-11.38Z"/><path class="cls-1" d="M665.38,574.07v-7.49c-3,5.69-7.15,8.25-13.15,8.25-11.06,0-19-9.58-19-23.05,0-13.65,8.2-24,19-24,5.53,0,9.62,2.18,13.15,7V513.37c0-4.07-.66-4.74-4.1-4.74h-5.62v-4.08l18.68-1v58.9c0,6,.76,6.92,5.91,6.92H682v4.08Zm-1.9-34c-1.72-4.37-5.44-7.21-9.35-7.21s-7.43,2.75-9,6.92c-1.24,3.23-1.81,7.5-1.81,13.09,0,10.53,4.1,16.79,10.77,16.79,6.86,0,11.25-7.21,11.25-18.21a31.89,31.89,0,0,0-1.86-11.33Z"/><path class="cls-1" d="M467.31,575.84c-5.91,0-9.6-2.25-12.79-7.92V586c0,3.9.77,4.59,7.07,4.59H463v3.51H437.8v-3.51h1.35c6.21,0,6.3-.69,6.3-4.59V539c0-4.19-.58-4.88-4.16-4.88H437.8v-4.2l16.77-1.07v6.93c3.39-5.86,7.36-8.4,13.37-8.4,10.66,0,19,10.55,19,24C486.89,565.39,478.55,575.84,467.31,575.84Zm-1.16-43.16c-7.37,0-11.73,7.32-11.73,19.43,0,11.23,4.55,18.45,11.44,18.45s10.85-7.12,10.85-19.72c0-11.43-3.88-18.16-10.56-18.16Z"/><path class="cls-1" d="M516.45,575.84c-5.91,0-9.59-2.25-12.79-7.92V586c0,3.9.77,4.59,7.07,4.59h1.36v3.51h-25.2v-3.51h1.36c6.2,0,6.29-.69,6.29-4.59V539c0-4.19-.58-4.88-4.16-4.88h-3.49v-4.2l16.77-1.07v6.93c3.39-5.86,7.36-8.4,13.37-8.4,10.66,0,19,10.55,19,24C536,565.39,527.69,575.84,516.45,575.84Zm-1.16-43.16c-7.37,0-11.73,7.32-11.73,19.43,0,11.23,4.56,18.45,11.44,18.45s10.85-7.12,10.85-19.72c0-11.43-3.85-18.16-10.56-18.16Z"/><path class="cls-1" d="M684.52,473.25H627.09v-4.44h1.68c7.58,0,8.42-.47,8.42-4.45V413.87c0-4-.84-4.44-8.42-4.44h-1.68V405h57.52v24.21h-4c-2.71-16.55-6.64-19.76-22.17-19.76h-4.86c-5,0-5.89.66-5.89,4.72v21.56h2.24c8.89,0,12.63-3.68,13.1-13h4.39v31H663c-.29-8.88-1.87-13.61-13.47-13.61h-1.87v24.11c0,4,2,4.54,6.73,4.54h6.17c14.59,0,18.8-5.2,21.7-20.8h4.12Z"/><path class="cls-1" d="M557.35,466.72c-4.64,5.71-10.62,8.67-17.57,8.67-10.53,0-17.19-7.71-17.19-19.76a33,33,0,0,1,8.11-22.4c5.21-5.91,11.49-9.08,17.77-9.08,9.36,0,17.08,9,17.08,20A37.27,37.27,0,0,1,557.35,466.72Zm-1-25.56c0-8.14-3.09-13-8.4-13-3.66,0-6.75,1.9-9.46,5.71-4,5.81-7.24,17.64-7.24,26.41,0,7.18,3,11.09,8.59,11.09,5.12,0,8.69-3.17,12-10.46,2.61-5.81,4.54-14.26,4.54-19.75Z"/><path class="cls-1" d="M613.05,411.66a4.91,4.91,0,0,0,1-2.93,5,5,0,0,0-.51-2.15c-.37-3.31-2.52-6.9-10.19-6.67-14.09.42-20.59,20.67-21.75,24.83-.07.23-.15.59-.24,1v-.11H571.1l-1.28,4.85H580.4v-.05c-2.39,11.8-7.4,38.08-11.73,53.7,0,0-5.25,12.62-9.13,7.75l-.19.07a5,5,0,0,0,.65-2.35,5.11,5.11,0,1,0-7.13,4.67h0s8.28,6.68,16.51-2.92S584.3,453,588.8,431.24l11.14-.07.61-5.36-10.68.14s3.3-20,12.37-22c0,0,2.44-.75,3.25.5l.29.36a5,5,0,0,0-1.89,3.88,5.1,5.1,0,0,0,5.1,5.1,5,5,0,0,0,3.93-2l.05,0A1.42,1.42,0,0,0,613.05,411.66Z"/></svg>