<?xml version="1.0" encoding="utf-8"?>
<!-- Generator: Adobe Illustrator 13.0.0, SVG Export Plug-In . SVG Version: 6.00 Build 14948)  -->
<!DOCTYPE svg PUBLIC "-//W3C//DTD SVG 1.1//EN" "http://www.w3.org/Graphics/SVG/1.1/DTD/svg11.dtd">
<svg version="1.1" xmlns="http://www.w3.org/2000/svg" xmlns:xlink="http://www.w3.org/1999/xlink" x="0px" y="0px" width="800px"
	 height="600px" viewBox="0 0 800 600" enable-background="new 0 0 800 600" xml:space="preserve">
<g id="Layer_1" display="none">
	<rect x="-42.5" y="-60.167" display="inline" fill="#E6E6E6" stroke="#000000" width="889" height="669"/>
</g>
<g id="Layer_4">
	<g>
		<defs>
			<rect id="SVGID_1_" x="-40.675" y="-263.563" width="1032.056" height="1032.057"/>
		</defs>
		<clipPath id="SVGID_2_">
			<use xlink:href="#SVGID_1_"  overflow="visible"/>
		</clipPath>
		<g opacity="0.4" clip-path="url(#SVGID_2_)">
			<g>
				<defs>
					<rect id="SVGID_3_" x="201.571" y="89.057" width="548.997" height="326.818"/>
				</defs>
				<clipPath id="SVGID_4_">
					<use xlink:href="#SVGID_3_"  overflow="visible"/>
				</clipPath>
			</g>
		</g>
	</g>
	<g>
		<defs>
			<rect id="SVGID_5_" x="-40.675" y="-263.563" width="1032.056" height="1032.057"/>
		</defs>
		<clipPath id="SVGID_6_">
			<use xlink:href="#SVGID_5_"  overflow="visible"/>
		</clipPath>
		<g clip-path="url(#SVGID_6_)">
			<defs>
				<rect id="SVGID_7_" x="248.903" y="158.089" width="475.261" height="207.173"/>
			</defs>
			<clipPath id="SVGID_8_">
				<use xlink:href="#SVGID_7_"  overflow="visible"/>
			</clipPath>
			<g clip-path="url(#SVGID_8_)">
				<defs>
					<rect id="SVGID_9_" x="248.903" y="158.089" width="475.261" height="207.173"/>
				</defs>
				<clipPath id="SVGID_10_">
					<use xlink:href="#SVGID_9_"  overflow="visible"/>
				</clipPath>
				<path clip-path="url(#SVGID_10_)" fill="#FFFFFF" d="M312.331,207.041c6.623,0,11.984,5.361,11.984,11.983
					s-5.361,11.983-11.984,11.983c-6.622,0-11.983-5.36-11.983-11.983S305.709,207.041,312.331,207.041 M319.069,219.024
					c0-0.402-0.058-0.803-0.129-1.19h-6.279l2.753-4.759c-0.933-0.488-1.964-0.789-3.083-0.789c-3.712,0-6.737,3.025-6.737,6.737
					c0,3.712,3.024,6.737,6.737,6.737C316.044,225.762,319.069,222.736,319.069,219.024"/>
				<path clip-path="url(#SVGID_10_)" fill="#FFFFFF" d="M623.854,301.604c5.578,5.619,8.072,8.571,4.043,14.148
					c-2.266,2.422-49.824,29.93-86.75,40.207c-4.916,1.375-8.055-0.474-13.23-2.051c-3.154-0.945-9.762-2.351-13.459-3.439
					l5.018,4.314c2.42,2.105,2.336,1.92,3.77,3.066c2.594,2.064,3.311,2.725,3.41,3.225c-8.242,3.039-23.293-0.027-27.809-1.059
					c-4.615-1.062-22.129-6.91-28.023-9.936c23.021-8.584,83.211-30.602,84.758-31.09c0.703-0.215,4.574-1.648,10.422-3.799
					c13.889-5.116,39.748-14.663,46.27-16.471c0.029,0,2.998-0.758,6.781-0.758c0.459,0,0.916,0.014,1.361,0.027
					C621.561,299.281,622.721,300.457,623.854,301.604"/>
				<path clip-path="url(#SVGID_10_)" fill="#FFFFFF" d="M286.773,289.734c-0.029,3.254-0.015,6.221,1.146,8.801
					c-1.992-0.1-4.214-0.186-6.451-0.229C280.796,295.195,284.809,291.713,286.773,289.734"/>
				<path clip-path="url(#SVGID_10_)" fill="#FFFFFF" d="M271.809,286.395c1.763,4.357,2.953,8.285,6.35,11.826
					c-4.085-0.072-7.813-0.044-9.675,0.143C268.612,293.877,269.645,290.336,271.809,286.395"/>
				<path clip-path="url(#SVGID_10_)" fill="#FFFFFF" d="M265.759,298.809c-2.781,0.53-7.253,1.461-10.908,2.451
					c0.788-3.8,1.434-12.6,3.856-16.657C260.556,288.172,260.685,293.648,265.759,298.809"/>
				<path clip-path="url(#SVGID_10_)" fill="#FFFFFF" d="M260.37,257.885c1.519,0.515,4.601,0.946,8.443,1.362
					c-6.623,5.69-11.668,15.881-13.016,17.86c0-6.149-0.157-14.965,3.684-20.068c0.015,0.042,0.043,0.071,0.058,0.113l0.258,0.546
					L260.37,257.885z"/>
				<path clip-path="url(#SVGID_10_)" fill="#FFFFFF" d="M278.66,260.177c1.591,0.145,3.226,0.287,4.831,0.43
					c-4.544,4.07-10.75,13.374-12.228,16.501c-1.232-2.597-0.917-11.37,0.287-17.576
					C273.787,259.748,276.209,259.963,278.66,260.177"/>
				<path clip-path="url(#SVGID_10_)" fill="#FFFFFF" d="M298.599,262.743c0.115,0.043,0.215,0.101,0.33,0.158
					c-3.77,1.806-9.676,7.999-12.399,10.75c-0.043-1.247,0.717-8.127,0.874-12.671C292.607,261.51,297.08,262.084,298.599,262.743"
					/>
				<path clip-path="url(#SVGID_10_)" fill="#FFFFFF" d="M408.039,161.63c-0.172,2.093-2.895,8.342-5.617,13.474l-1.82,3.411
					l3.596-1.405c2.883-1.118,5.992-5.547,9.477-10.793c0.889-1.362,1.992-3.01,2.494-3.569c7.969-0.673,48.707,6.351,72.586,14.922
					c35.779,12.844,71.17,28.611,73.393,30.891c1.963,2.422-1.09,5.977-6.279,10.579l1.334,2.451
					c2.107-0.573,4.988-2.265,8.701-5.074c1.375-1.046,3.34-3.469,4.07-4.415c2.021-0.287,8.4,4.372,10.121,6.651
					c-0.689,1.247-11.082,12.485-11.082,12.485s4.76-1.261,9.418-3.612c2.566-1.304,4.258-4.013,6.623-4.745
					c2.924,0.172,22.059,12.715,29.27,18.262c3.213,2.479,10.004,10.377,10.795,14.778c-4.473-0.602-9.205-1.318-12.4-2.021
					l-13.848-3.827l5.936,2.609l6.393,2.436c4.043,1.52,20.154,4.516,24.539,5.046c11.24,1.347,23.996-2.968,26.447-3.841
					c14.865-5.333,41.254-22.878,52.707-30.748c-5.275,8.558-11.883,18.319-14.664,19.91l-9.818,8.042l5.23-0.273
					c1.221-0.058,2.539-0.129,3.857-0.315c-0.359,1.018-0.703,2.021-1.076,2.952l-0.445,1.104
					c-2.752,6.923-4.256,10.75-4.916,19.007c-0.615,7.711-0.76,16.914-0.357,24.023l0.043,0.961
					c0.416,7.626,0.988,18.062,4.043,26.29c0.631,1.719,1.736,4.429,2.895,7.296c1.709,4.213,4.328,10.707,5.348,13.875
					c-3.396-1.318-9.475-5.477-13.373-8.142c-1.908-1.305-3.557-2.437-4.832-3.226c-1.305-0.831-24.354-19.008-39.563-31.047
					c-4.816-3.642-10.678-7.698-19.25-9.877c-0.646-0.172-3.025-0.66-5.805-0.918c-1.018-0.085-2.094-0.143-3.154-0.143
					c-4.172,0-7.367,0.816-7.512,0.859c-6.664,1.85-31.621,11.052-46.529,16.542c-5.389,1.991-9.645,3.556-10.291,3.756
					c-2.047,0.659-69.865,25.673-88.729,32.638c-2.951,1.104-4.715,1.75-4.816,1.792c-15.381,6.423-31.275,9.046-31.275,9.046
					c-22.463,2.565-57.968,0.945-60.821,0.717c-54.799-4.357-110.716-42.658-114.286-47.174c-1.061-1.348-2.122-5.332-2.695-8.156
					c4.057-1.548,14.076-3.541,16.326-3.855c2.709-0.373,13.259-0.201,20.412,0.186c1.362,0.071,2.594,0.158,3.626,0.244
					c7.798,0.645,11.181,1.031,18.634,2.709c3.269,0.731,6.351,1.777,9.619,2.881c4.186,1.42,8.515,2.881,13.761,3.898
					c1.247,0.488,2.007-0.085,2.293-0.371c1.233-1.262,0.932-3.742-4.099-14.521l-0.071-0.172
					c-1.605-3.411-16.786-29.113-32.869-36.007c-2.781-1.19-11.54-1.964-20.813-2.795c-2.307-0.2-4.63-0.416-6.809-0.616v-0.014
					c-4.444-0.416-8.314-0.861-10.249-1.348c-4.745-11.597,14.592-30.919,23.665-37.168c6.565-4.515,6.666-4.644,11.209-13.417
					c3.57-6.91,6.924-7.081,12.486-7.368c0.559-0.028,1.146-0.071,1.734-0.1c0.788-0.057,2.981-0.057,5.748-0.057
					c5.705-0.015,14.334-0.015,19.824-0.473c3.483-0.287,6.379-0.659,8.901-1.061c2.523-0.401,4.688-0.846,6.709-1.247
					c5.403-1.09,10.048-2.035,18.936-2.035c14.706,0,49.367,3.339,58.066,5.088l26.133,3.569l-11.238-3.669
					c-14.191-4.057-58.584-7.855-72.96-7.855c-9.174,0-14.191,1.018-19.495,2.093c-1.691,0.344-3.411,0.688-5.317,1.018
					c4.07-6.034,21.143-23.909,27.119-29.7c1.491-1.434,8.572-2.824,33.873-1.361L408.039,161.63z M324.314,219.024
					c0-6.623-5.361-11.983-11.983-11.983c-6.623,0-11.984,5.361-11.984,11.983s5.361,11.983,11.984,11.983
					C318.953,231.007,324.314,225.647,324.314,219.024"/>
				<path clip-path="url(#SVGID_10_)" d="M628.012,256.307c0.043,0.431,0.027,0.845-0.029,1.247l-2.824-0.43
					c0.059-0.358,0.029-0.774-0.041-1.204C626.105,256.063,627.064,256.192,628.012,256.307"/>
				<path clip-path="url(#SVGID_10_)" d="M624.787,298.464c-1.234-0.2-2.783-0.386-4.373-0.474c-0.145-0.143-0.273-0.287-0.4-0.443
					l2.148-1.893C623.037,296.645,623.912,297.574,624.787,298.464"/>
				<path clip-path="url(#SVGID_10_)" d="M627.309,298.938c-0.328-0.086-1.262-0.287-2.508-0.474h-0.014
					c-0.875-0.89-1.748-1.819-2.625-2.81l0.045-0.416c2.779,0.258,5.158,0.746,5.805,0.918c8.572,2.179,14.434,6.235,19.25,9.877
					c15.209,12.039,38.258,30.216,39.564,31.047c1.273,0.789,2.922,1.921,4.83,3.226c3.898,2.665,9.977,6.823,13.373,8.142
					c-1.02-3.168-3.641-9.662-5.348-13.875c-1.16-2.867-2.264-5.577-2.895-7.296c-3.055-8.229-3.627-18.664-4.043-26.29
					l-0.043-0.961c-0.402-7.109-0.258-16.312,0.357-24.023c0.66-8.256,2.164-12.083,4.916-19.007l0.445-1.104
					c0.373-0.931,0.717-1.935,1.076-2.952c-1.318,0.186-2.637,0.257-3.857,0.315l-5.229,0.273l9.816-8.042
					c2.781-1.591,9.389-11.353,14.664-19.91c-11.453,7.87-37.842,25.415-52.707,30.748c-2.451,0.874-15.207,5.188-26.447,3.841
					c-4.385-0.531-20.496-3.526-24.539-5.046l-6.393-2.436l-5.936-2.609l13.848,3.827c3.195,0.703,7.928,1.419,12.4,2.021
					c0.072,0.43,0.1,0.846,0.041,1.204l2.824,0.43c0.057-0.402,0.074-0.816,0.029-1.247c3.396,0.445,6.379,0.803,8.07,1.003
					c10.592,1.275,22.793-2.853,25.127-3.683c18.592-6.667,57.152-33.944,57.537-34.231l5.418-3.841l-3.354,5.733
					c-1.404,2.408-13.789,23.408-19.051,26.618l-2.666,2.194c0.746-0.115,1.477-0.273,2.18-0.502l2.867-0.96l-1.076,2.823
					c-0.285,0.774-0.572,1.592-0.859,2.409c-0.373,1.06-0.73,2.121-1.117,3.081l-0.445,1.104c-2.738,6.88-4.1,10.335-4.73,18.175
					c-0.602,7.597-0.746,16.657-0.357,23.637l0.057,0.961c0.402,7.438,0.961,17.63,3.855,25.457c0.631,1.676,1.721,4.357,2.867,7.21
					c5.146,12.685,6.25,15.896,5.891,17.171l-0.273,1.018l-1.045,0.044c-3.197,0.187-9.246-3.841-16.871-9.06
					c-1.877-1.289-3.498-2.394-4.73-3.168c-1.703-1.06-35.893-28.123-39.791-31.205
					C640.939,304.843,635.365,300.973,627.309,298.938"/>
				<path clip-path="url(#SVGID_10_)" d="M525.594,356.058c3.211,2.565,4.631,3.886,3.67,6.552l-0.215,0.588l-0.574,0.243
					c-3.08,1.333-7.053,1.821-11.166,1.821c-7.338,0-15.107-1.534-19.105-2.467c-0.273-0.057-24.6-6.994-30.605-11.495
					c0.961-0.372,2.051-0.774,3.225-1.22c5.891,3.025,23.408,8.874,28.023,9.936c4.516,1.031,19.566,4.098,27.809,1.059
					c-0.1-0.5-0.816-1.16-3.41-3.225c-1.434-1.146-1.35-0.961-3.77-3.066l-5.018-4.314c3.697,1.089,10.305,2.494,13.459,3.439
					c5.176,1.577,8.314,3.426,13.23,2.051c36.926-10.277,84.484-37.785,86.75-40.207c4.029-5.577,1.535-8.529-4.043-14.148
					c-1.133-1.146-2.293-2.322-3.439-3.613c1.59,0.088,3.139,0.273,4.373,0.474h0.014c0.357,0.388,0.73,0.746,1.088,1.118
					c5.133,5.176,9.963,10.048,4.287,17.904c-2.178,2.908-51.459,30.99-88.254,41.238c-5.879,1.633-9.748,0.043-15.096-2.164
					C526.426,356.402,526.01,356.23,525.594,356.058"/>
				<path clip-path="url(#SVGID_10_)" d="M566.002,315.191c-5.848,2.15-9.719,3.584-10.422,3.799
					c-1.547,0.488-61.736,22.506-84.756,31.09c-0.932-0.473-1.578-0.887-1.82-1.189c0.027,0.043,0.086,0.158,0.115,0.303
					l-2.824,0.545l-0.303-0.848c18.863-6.965,86.68-31.979,88.729-32.638c0.646-0.2,4.902-1.765,10.291-3.756
					c14.908-5.49,39.865-14.692,46.529-16.542c0.145-0.043,3.34-0.859,7.512-0.859c1.061,0,2.137,0.059,3.154,0.143l-0.045,0.416
					l-2.148,1.893c0.127,0.156,0.256,0.301,0.4,0.443c-0.445-0.014-0.902-0.027-1.361-0.027c-3.783,0-6.752,0.758-6.781,0.758
					C605.748,300.529,579.891,310.075,566.002,315.191"/>
				<path clip-path="url(#SVGID_10_)" d="M466.295,349.738l2.824-0.545c-0.029-0.143-0.088-0.26-0.115-0.303
					c0.242,0.303,0.889,0.717,1.82,1.189c-1.176,0.445-2.266,0.848-3.225,1.22C466.854,350.727,466.381,350.211,466.295,349.738"/>
				<path clip-path="url(#SVGID_10_)" d="M407.252,161.588c-25.299-1.462-32.38-0.072-33.872,1.362
					c-5.977,5.791-23.049,23.666-27.12,29.7c-1.09,0.187-2.236,0.358-3.483,0.531c2.839-6.737,28.339-32.022,28.611-32.281
					c2.909-2.824,13.688-3.469,36.036-2.164l1.893,0.129c0.615,0.172,1.104,0.602,1.361,1.204c0.631,1.477-0.344,4.73-1.777,8.185
					c0.873-1.247,1.705-2.494,2.379-3.512c2.438-3.698,3.125-4.658,4.199-4.802c8.301-1.046,50.572,6.536,74.252,15.036
					c34.23,12.285,72.287,28.855,74.652,31.793c1.863,2.308,1.461,4.816,0.1,7.196c1.232-1.104,2.883-3.168,3.484-3.957l0.213-0.272
					l0.316-0.158c4.258-2.035,13.273,6.063,14.434,8.3l0.188,0.358l-0.029,0.416c-0.043,0.702-4.744,5.833-5.49,6.823
					c0.789-0.444,5.893-5.117,6.738-5.375c4.342-1.275,31.477,18.577,31.734,18.778c2.867,2.208,11.512,11.425,11.941,17.43
					c-0.947-0.115-1.906-0.244-2.895-0.387c-0.791-4.401-7.584-12.299-10.795-14.778c-7.211-5.547-26.346-18.09-29.27-18.261
					c-2.365,0.73-4.057,3.44-6.623,4.744c-4.658,2.351-9.418,3.612-9.418,3.612s10.393-11.238,11.082-12.485
					c-1.721-2.279-8.1-6.938-10.121-6.651c-0.73,0.946-2.695,3.369-4.07,4.415c-3.713,2.81-6.594,4.501-8.701,5.074l-1.334-2.451
					c5.189-4.602,8.242-8.156,6.279-10.579c-2.223-2.279-37.613-18.046-73.393-30.89c-23.879-8.572-64.617-15.596-72.586-14.922
					c-0.502,0.559-1.605,2.207-2.494,3.568c-3.484,5.247-6.594,9.676-9.475,10.794l-3.598,1.405l1.82-3.412
					c2.723-5.132,5.447-11.382,5.617-13.475L407.252,161.588z"/>
				<path clip-path="url(#SVGID_10_)" d="M342.777,193.18c1.247-0.172,2.394-0.344,3.483-0.531c-0.502,0.731-0.803,1.29-0.875,1.634
					l-2.867-0.143C342.533,193.882,342.619,193.567,342.777,193.18"/>
				<path clip-path="url(#SVGID_10_)" d="M371.073,189.539c14.376,0,58.769,3.798,72.96,7.855l11.238,3.67l-26.133-3.57
					c-8.699-1.748-43.36-5.088-58.066-5.088c-8.888,0-13.532,0.946-18.936,2.035c-2.021,0.402-4.186,0.846-6.709,1.247l-0.043-1.405
					c0.072-0.344,0.373-0.903,0.875-1.634c1.906-0.33,3.627-0.673,5.317-1.018C356.881,190.557,361.899,189.539,371.073,189.539"/>
				<path clip-path="url(#SVGID_10_)" d="M318.939,217.834c0.071,0.387,0.129,0.788,0.129,1.19c0,3.712-3.024,6.736-6.737,6.736
					c-3.713,0-6.737-3.024-6.737-6.736c0-3.713,3.024-6.737,6.737-6.737c1.118,0,2.15,0.301,3.082,0.789l-2.752,4.759H318.939z"/>
				<path clip-path="url(#SVGID_10_)" d="M278.66,260.177c-2.451-0.214-4.873-0.43-7.109-0.645c0.144-0.774,0.315-1.519,0.487-2.191
					l0.072-0.646c2.179,0.2,4.5,0.416,6.809,0.616c9.274,0.832,18.033,1.605,20.813,2.795c16.083,6.894,31.263,32.596,32.868,36.007
					l0.072,0.172c5.03,10.779,5.332,13.26,4.099,14.521c-0.286,0.287-1.046,0.859-2.293,0.371
					c-5.247-1.018-9.575-2.479-13.761-3.898c-3.268-1.104-6.35-2.149-9.619-2.881c-7.453-1.678-10.836-2.064-18.634-2.709
					c-1.032-0.086-2.265-0.173-3.626-0.244l0.057-1.203c-0.402-0.545-0.716-1.119-0.975-1.707c1.849,0.087,3.497,0.201,4.773,0.301
					c7.956,0.66,11.41,1.047,19.021,2.752c3.426,0.774,6.579,1.85,9.919,2.982c3.942,1.334,7.999,2.695,12.786,3.67
					c-0.301-1.405-1.404-4.43-4.343-10.736l-0.086-0.172c-1.448-3.111-16.126-27.78-31.062-34.431
					c-0.115-0.057-0.215-0.115-0.33-0.158c-1.52-0.659-5.992-1.233-11.195-1.761c-1.261-0.132-2.581-0.247-3.913-0.375
					C281.885,260.464,280.251,260.322,278.66,260.177"/>
				<path clip-path="url(#SVGID_10_)" d="M261.861,255.333c1.935,0.487,5.806,0.933,10.249,1.348v0.014l-0.071,0.645
					c-0.172,0.673-0.344,1.418-0.487,2.192c-0.946-0.1-1.864-0.187-2.738-0.286c-3.842-0.416-6.924-0.847-8.443-1.362l-0.573-0.187
					l-0.258-0.546c-0.014-0.042-0.043-0.071-0.058-0.113c-6.694-14.034,15.539-35.119,24.412-41.225
					c6.048-4.158,6.048-4.158,10.292-12.385c4.328-8.371,8.987-8.615,14.893-8.916c0.544-0.029,1.119-0.058,1.706-0.1
					c0.875-0.057,2.982-0.057,5.906-0.057c5.676-0.014,14.233-0.014,19.595-0.458c2.451-0.201,4.587-0.445,6.493-0.717
					c-0.158,0.387-0.244,0.702-0.258,0.96l2.866,0.143l0.044,1.405c-2.523,0.401-5.419,0.774-8.902,1.061
					c-5.489,0.459-14.118,0.459-19.823,0.473c-2.767,0-4.96,0-5.749,0.057c-0.588,0.029-1.175,0.072-1.734,0.1
					c-5.562,0.287-8.916,0.459-12.485,7.368c-4.544,8.772-4.645,8.901-11.209,13.417
					C276.453,224.414,257.116,243.736,261.861,255.333"/>
				<path clip-path="url(#SVGID_10_)" d="M252.543,315.049c-2.064-2.609-3.325-9.747-3.469-10.564l-0.172-1.031l0.931-0.487
					c1.061-0.546,2.896-1.133,5.017-1.706c3.656-0.99,8.128-1.921,10.909-2.451c1.061-0.187,1.863-0.33,2.279-0.389
					c0.129-0.014,0.272-0.027,0.445-0.041v-0.016c1.863-0.187,5.59-0.215,9.675-0.143c1.089,0.029,2.193,0.043,3.312,0.086
					c2.236,0.043,4.458,0.129,6.45,0.229c0.258,0.588,0.573,1.162,0.974,1.707l-0.057,1.203c-7.152-0.387-17.702-0.559-20.412-0.186
					c-2.25,0.314-12.27,2.308-16.327,3.855c0.573,2.824,1.634,6.809,2.695,8.156c3.569,4.516,59.486,42.816,114.287,47.174
					c2.852,0.229,38.357,1.849,60.82-0.717c0,0,15.895-2.623,31.277-9.046c0.1-0.042,1.863-0.688,4.814-1.792l0.303,0.848
					c0.086,0.473,0.559,0.988,1.303,1.562c-2.895,1.075-4.816,1.806-5.402,2.063c-16.227,6.967-31.594,9.131-31.594,9.131
					c-32.294,2.768-58.913,1.033-61.75,0.804C315.441,359.055,257.689,321.57,252.543,315.049"/>
			</g>
		</g>
		<path clip-path="url(#SVGID_6_)" fill="none" stroke="#000000" stroke-width="2" d="M324.314,219.024
			c0,6.623-5.361,11.983-11.983,11.983c-6.623,0-11.984-5.36-11.984-11.983s5.361-11.983,11.984-11.983
			C318.953,207.041,324.314,212.402,324.314,219.024z"/>
		<path clip-path="url(#SVGID_6_)" fill="none" stroke="#000000" stroke-width="2" d="M259.983,256.408
			c-0.172,0.2-0.344,0.416-0.502,0.631c-3.841,5.103-3.684,13.918-3.684,20.068c1.347-1.979,6.393-12.17,13.016-17.86
			c0.53-0.459,1.075-0.889,1.633-1.277"/>
		<path clip-path="url(#SVGID_6_)" fill="none" stroke="#000000" stroke-width="2" d="M272.038,257.34
			c-0.172,0.673-0.344,1.418-0.487,2.192c-1.205,6.207-1.52,14.978-0.287,17.575c1.477-3.126,7.683-12.429,12.227-16.5
			c0.587-0.531,1.146-0.96,1.663-1.29"/>
		<path clip-path="url(#SVGID_6_)" fill="none" stroke="#000000" stroke-width="2" d="M287.447,259.862
			c0,0.358-0.014,0.731-0.042,1.119c-0.158,4.544-0.918,11.424-0.875,12.671c2.724-2.752,8.629-8.945,12.399-10.75
			c0.516-0.244,0.989-0.416,1.419-0.473"/>
		<path clip-path="url(#SVGID_6_)" fill="none" stroke="#000000" stroke-width="2" d="M254.364,302.879
			c0.187-0.271,0.345-0.846,0.487-1.619c0.789-3.8,1.434-12.6,3.856-16.657c1.849,3.569,1.979,9.045,7.053,14.206
			c0.387,0.401,0.817,0.802,1.275,1.203"/>
		<path clip-path="url(#SVGID_6_)" fill="none" stroke="#000000" stroke-width="2" d="M268.469,299.295c0-0.314,0-0.615,0.014-0.916
			v-0.016c0.129-4.486,1.161-8.027,3.326-11.969c1.763,4.357,2.953,8.285,6.35,11.826c0.244,0.287,0.53,0.559,0.817,0.831"/>
		<path clip-path="url(#SVGID_6_)" fill="none" stroke="#000000" stroke-width="2" d="M281.728,299.052
			c-0.115-0.243-0.201-0.487-0.258-0.745c-0.673-3.111,3.34-6.594,5.304-8.572c-0.029,3.254-0.015,6.221,1.146,8.801
			c0.258,0.588,0.574,1.162,0.975,1.707"/>
	</g>
	<g>
		<g id="XMLID_2_">
			<g>
				<path d="M363.883,205.527c-0.031,3.987,1.089,7.053-2.362,8.683c-3.452,1.63-3.529,11.563-7.177,21.47
					c-3.641,9.906-14.511,15.172-27.121,15.074c-12.609-0.099-25.423-3.024-30.193-15.648c-3.614-9.582-5.616-14.18-9.948-14.214
					c-4.333-0.034-5.528,6.578-9.406,13.168c-3.872,6.597-7.511,16.246-32.092,16.054s-25.979-17.396-26.85-19.441
					c-0.878-2.045-3.053-17.349-6.612-17.889c-3.565-0.535-2.62-7.148-2.351-8.803c0.263-1.655-0.225-4.06,2.451-4.057
					c15.155-0.006,27.897-0.038,42.649,2.753c14.751,2.792,18.668,7.149,31.919,6.871c13.25-0.278,15.2-5.739,40.951-8.082
					c12.108-1.306,28.025-0.472,31.72-0.443C363.149,201.052,363.914,201.535,363.883,205.527z M361.443,208.094
					c0.007-0.84-1.746-1.539-3.921-1.556s-3.938,0.654-3.945,1.495c-0.007,0.846,1.746,1.545,3.921,1.563
					S361.437,208.94,361.443,208.094z M351.51,227.635c1.005-14.134,1.449-22.152-9.121-22.491
					c-10.569-0.339-18.348,0.619-18.348,0.619c-8.802,1.463-26.643,2.724-26.841,12.15c-0.205,9.42,2.724,25.874,21.432,27.933
					S350.506,241.763,351.51,227.635z M254.536,245.344c18.739-1.766,21.924-18.171,21.867-27.594
					c-0.051-9.428-17.87-10.968-26.648-12.568c0,0-7.763-1.08-18.336-0.907c-10.573,0.174-10.255,8.198-9.472,22.346
					C222.73,240.763,235.797,247.11,254.536,245.344z M220.188,206.988c0.007-0.84-1.746-1.54-3.921-1.557
					c-2.175-0.017-3.938,0.655-3.945,1.495c-0.006,0.846,1.746,1.545,3.921,1.563C218.417,208.506,220.181,207.834,220.188,206.988z
					"/>
				<path d="M357.522,206.538c2.175,0.017,3.928,0.716,3.921,1.556c-0.006,0.846-1.77,1.518-3.945,1.501s-3.928-0.716-3.921-1.563
					C353.583,207.192,355.347,206.521,357.522,206.538z"/>
				<path fill="#999999" d="M342.39,205.144c10.57,0.339,10.125,8.357,9.121,22.491c-1.004,14.128-14.169,20.271-32.878,18.211
					s-21.637-18.513-21.432-27.933c0.199-9.426,18.04-10.687,26.841-12.15C324.042,205.763,331.82,204.805,342.39,205.144z"/>
				<path fill="#999999" d="M276.403,217.75c0.057,9.423-3.128,25.828-21.867,27.594c-18.738,1.766-31.806-4.582-32.589-18.724
					c-0.783-14.148-1.102-22.172,9.472-22.346c10.574-0.173,18.336,0.907,18.336,0.907
					C258.533,206.782,276.352,208.322,276.403,217.75z"/>
				<path d="M216.267,205.432c2.175,0.017,3.928,0.716,3.921,1.557c-0.006,0.846-1.77,1.518-3.945,1.5
					c-2.175-0.017-3.928-0.716-3.921-1.563C212.328,206.086,214.091,205.415,216.267,205.432z"/>
			</g>
			<g>
			</g>
		</g>
		
			<ellipse transform="matrix(-0.7129 -0.7013 0.7013 -0.7129 252.0825 537.4148)" fill="#F2F2F2" stroke="#F2F2F2" stroke-width="3" cx="236.048" cy="217.107" rx="1.654" ry="10.723"/>
		
			<ellipse transform="matrix(-0.7131 -0.7011 0.7011 -0.7131 382.1839 592.4213)" fill="#F2F2F2" stroke="#F2F2F2" stroke-width="3" cx="312.322" cy="218.002" rx="1.654" ry="10.724"/>
		
			<ellipse transform="matrix(-0.7131 -0.7011 0.7011 -0.7131 263.6384 554.4366)" fill="#F2F2F2" stroke="#F2F2F2" stroke-width="3" cx="245.268" cy="223.273" rx="3.004" ry="19.47"/>
		
			<ellipse transform="matrix(-0.7131 -0.7011 0.7011 -0.7131 393.8891 608.9349)" fill="#F2F2F2" stroke="#F2F2F2" stroke-width="3" cx="321.544" cy="223.87" rx="3.003" ry="19.469"/>
	</g>
	<g>
		<g id="XMLID_1_">
			<g>
				<polygon fill="#05386B" points="356.99,384.68 356.99,399.9 261.04,399.9 261.04,399.62 270.11,385.87 269.42,384.68 				"/>
				<polygon fill="#05386B" points="261.04,399.62 261.04,399.9 96.08,399.9 96.08,384.68 97.04,384.68 97.08,384.75 252.45,384.75 
									"/>
				<polygon fill="#4D4D4D" points="252.58,384.68 252.62,384.75 252.45,384.75 252.41,384.68 				"/>
				<polygon fill="#05386B" points="252.62,384.75 252.58,384.68 269.42,384.68 270.11,385.87 261.04,399.62 252.45,384.75 				"/>
				<polygon fill="#4D4D4D" points="186.81,270.75 252.58,384.68 252.41,384.68 186.64,270.76 186.65,270.75 				"/>
				<polygon fill="#4D4D4D" points="252.41,384.68 252.45,384.75 97.08,384.75 97.04,384.68 				"/>
				<path fill="#05386B" d="M186.64,270.76l65.77,113.92H97.04L31.26,270.75h155.39L186.64,270.76z M144.38,344.5
					c8.03,0,10.78-6.51,6.14-14.54c-4.63-8.03-14.9-14.53-22.93-14.53c-8.02,0-10.77,6.5-6.14,14.53
					C126.09,337.99,136.35,344.5,144.38,344.5z"/>
				<polygon fill="#4D4D4D" points="195.84,257.17 195.82,257.2 195.8,257.17 				"/>
				<polygon fill="#4D4D4D" points="195.8,257.17 195.82,257.2 188.04,270.5 186.81,270.5 195.6,257.17 				"/>
				<polygon fill="#4D4D4D" points="195.71,257.01 195.8,257.17 195.6,257.17 				"/>
				<polygon fill="#05386B" points="195.6,257.17 186.81,270.5 30.81,270.5 38.6,257.17 				"/>
				<polygon fill="#05386B" points="188.04,270.5 195.82,257.2 269.42,384.68 252.58,384.68 186.81,270.75 186.65,270.75 
					186.81,270.5 				"/>
				<path fill="#F2F2F2" d="M150.52,329.96c4.64,8.03,1.89,14.54-6.14,14.54c-8.03,0-18.29-6.51-22.93-14.54
					c-4.63-8.03-1.88-14.53,6.14-14.53C135.62,315.43,145.89,321.93,150.52,329.96z"/>
			</g>
			<g>
				<line fill="none" stroke="#000000" x1="195.82" y1="257.2" x2="269.42" y2="384.68"/>
				<polyline fill="none" stroke="#000000" points="195.6,257.17 195.71,257.01 195.8,257.17 				"/>
				<line fill="none" stroke="#000000" x1="186.65" y1="270.75" x2="186.81" y2="270.5"/>
				<polyline fill="none" stroke="#000000" stroke-width="2" points="97.04,384.68 31.26,270.75 186.65,270.75 186.81,270.75 
					252.58,384.68 				"/>
				<polygon fill="none" stroke="#000000" points="269.42,384.68 356.99,384.68 356.99,399.9 261.04,399.9 96.08,399.9 
					96.08,384.68 97.04,384.68 252.41,384.68 252.58,384.68 				"/>
				<path fill="none" stroke="#F2F2F2" d="M150.52,329.96c4.64,8.03,1.89,14.54-6.14,14.54c-8.03,0-18.29-6.51-22.93-14.54
					c-4.63-8.03-1.88-14.53,6.14-14.53C135.62,315.43,145.89,321.93,150.52,329.96z"/>
				<polygon fill="none" stroke="#000000" points="195.82,257.2 195.84,257.17 195.8,257.17 195.6,257.17 38.6,257.17 30.81,270.5 
					186.81,270.5 188.04,270.5 				"/>
			</g>
		</g>
	</g>
</g>
<g id="Layer_5">
	<g>
		<g>
			<path fill="#00FFFF" d="M117.07,133.623h10.66c0.82,0,1.453,0.286,1.897,0.861c0.444,0.574,0.557,1.271,0.337,2.091
				c-0.22,0.821-0.706,1.518-1.458,2.093c-0.751,0.574-1.538,0.86-2.358,0.86H115.11c-1.406,0-2.74-0.444-4.001-1.335
				c-1.262-0.891-2.038-1.887-2.328-2.988l-3.288-13.184c-0.405-1.899-0.341-3.844,0.192-5.836c0.59-2.203,1.536-4.114,2.836-5.73
				l10.385-13.043c0.983-1.219,2.29-2.291,3.921-3.218c1.631-0.925,3.091-1.389,4.38-1.389h11.672c0.82,0,1.439,0.294,1.856,0.879
				c0.417,0.586,0.519,1.278,0.306,2.075c-0.22,0.82-0.697,1.528-1.431,2.127c-0.734,0.597-1.512,0.896-2.331,0.896h-11.245
				c-0.937,0.003-1.848,0.555-2.729,1.656l-9.827,12.228c-0.774,0.961-1.335,2.099-1.682,3.413c-0.375,1.386-0.422,2.604-0.143,3.66
				l3.032,12.025C114.938,133.007,115.732,133.627,117.07,133.623z"/>
			<path fill="#00FFFF" d="M166.717,117.105l-5.216,19.466c-0.221,0.822-0.701,1.521-1.44,2.096
				c-0.74,0.574-1.509,0.861-2.306,0.861c-0.844,0-1.481-0.286-1.914-0.86c-0.432-0.575-0.538-1.271-0.318-2.093l5.21-19.446
				l-7.853-15.041l1.677-6.259c0.226-0.844,0.705-1.559,1.436-2.145c0.731-0.585,1.507-0.879,2.327-0.879s1.449,0.301,1.886,0.902
				c0.436,0.602,0.544,1.314,0.323,2.14l-1.089,4.066l5.809,11.384l12.047-11.371l1.1-4.104c0.219-0.817,0.702-1.525,1.447-2.121
				c0.746-0.598,1.517-0.896,2.314-0.896c0.773,0,1.385,0.276,1.835,0.826c0.45,0.551,0.553,1.283,0.308,2.197l-1.658,6.188
				L166.717,117.105z"/>
			<path fill="#00FFFF" d="M219.89,125.045l-0.697,2.602c-0.873,3.258-2.776,6.053-5.709,8.385s-6.029,3.497-9.287,3.497h-18.07
				l12.52-46.723h18.07c3.258,0,5.73,1.16,7.417,3.481c1.687,2.32,2.091,5.121,1.212,8.401l-0.669,2.497
				c-0.936,3.492-3.081,6.468-6.436,8.929C220.263,118.623,220.813,121.599,219.89,125.045z M213.146,127.646l0.66-2.461
				c0.439-1.641,0.236-3.047-0.61-4.22c-0.846-1.172-2.078-1.757-3.695-1.757h-11.953l-3.844,14.343h11.953
				c1.594,0,3.132-0.58,4.615-1.74C211.755,130.651,212.713,129.263,213.146,127.646z M218.647,107.114l0.65-2.426
				c0.439-1.64,0.236-3.046-0.61-4.219c-0.846-1.171-2.078-1.757-3.695-1.757h-12.023l-3.833,14.308h12.023
				c1.594,0,3.132-0.579,4.615-1.739C217.256,110.121,218.214,108.732,218.647,107.114z"/>
			<path fill="#00FFFF" d="M267.462,98.782h-20.883l-3.853,14.38h9c0.797,0,1.409,0.293,1.839,0.878
				c0.429,0.587,0.536,1.278,0.323,2.074c-0.227,0.845-0.705,1.56-1.437,2.146c-0.731,0.586-1.507,0.878-2.327,0.878h-9
				l-3.881,14.485h20.953c0.797,0,1.411,0.286,1.843,0.861c0.432,0.574,0.538,1.271,0.319,2.091
				c-0.22,0.821-0.706,1.518-1.458,2.093c-0.751,0.574-1.538,0.86-2.358,0.86h-26.789l12.52-46.723h26.789
				c0.82,0,1.449,0.299,1.887,0.897c0.438,0.597,0.546,1.307,0.327,2.126c-0.213,0.797-0.698,1.489-1.452,2.074
				C269.07,98.49,268.282,98.782,267.462,98.782z"/>
			<path fill="#00FFFF" d="M274.105,136.575l11.728-43.77h20.883c2.414,0,4.259,0.879,5.534,2.637
				c1.274,1.758,1.586,3.856,0.933,6.294l-0.904,3.375c-0.66,2.461-2.091,4.564-4.293,6.311s-4.521,2.618-6.959,2.618h-3.762
				l6.502,20.743c0.209,0.609,0.234,1.219,0.071,1.828c-0.214,0.797-0.703,1.481-1.468,2.057c-0.765,0.574-1.536,0.86-2.311,0.86
				c-1.177,0.006-1.928-0.519-2.252-1.574l-7.419-23.914h-4.268l-6.038,22.535c-0.22,0.821-0.706,1.518-1.458,2.093
				c-0.751,0.574-1.538,0.86-2.358,0.86s-1.44-0.286-1.861-0.86C273.985,138.093,273.885,137.396,274.105,136.575z M287.632,108.135
				h14.977c0.82,0,1.595-0.287,2.323-0.861c0.728-0.575,1.202-1.271,1.422-2.093l0.923-3.444c0.22-0.821,0.119-1.519-0.301-2.093
				c-0.421-0.573-1.041-0.861-1.861-0.861h-14.977L287.632,108.135z"/>
			<path fill="#00FFFF" d="M335.903,92.806h15.381c1.877,0,3.443,0.792,4.697,2.374c1.253,1.581,1.579,3.497,0.977,5.748
				c-0.227,0.843-0.717,1.559-1.472,2.144c-0.754,0.586-1.495,0.88-2.222,0.88c-1.008,0-1.638-0.229-1.891-0.687
				c-0.252-0.456-0.382-1.306-0.39-2.549c-0.008-1.242-0.6-1.862-1.773-1.862h-14.617c-0.704,0-1.118,0.228-1.239,0.681
				c-0.096,0.287-0.041,0.618,0.164,0.992l14.458,28c0.693,1.358,0.833,2.811,0.418,4.357c-0.471,1.758-1.524,3.305-3.16,4.642
				c-1.635,1.336-3.238,2.003-4.809,2.003h-15.926c-2.109,0-3.728-0.803-4.856-2.408s-1.435-3.369-0.92-5.29
				c0.59-2.203,1.917-3.305,3.979-3.305c0.797,0,1.4,0.287,1.808,0.861c0.409,0.574,0.51,1.248,0.302,2.021
				c-0.169,0.633-0.094,1.16,0.227,1.582c0.321,0.421,0.809,0.633,1.465,0.633h14.695c0.633,0,1.016-0.251,1.15-0.753
				c0.082-0.238,0.021-0.545-0.185-0.921l-14.421-27.999c-0.676-1.335-0.804-2.789-0.383-4.359c0.49-1.828,1.572-3.415,3.247-4.764
				C332.285,93.48,334.049,92.806,335.903,92.806z"/>
			<path fill="#00FFFF" d="M397.927,98.782h-20.883l-3.853,14.38h9c0.797,0,1.409,0.293,1.839,0.878
				c0.429,0.587,0.536,1.278,0.323,2.074c-0.227,0.845-0.705,1.56-1.437,2.146c-0.73,0.586-1.507,0.878-2.327,0.878h-9
				l-3.881,14.485h20.953c0.797,0,1.411,0.286,1.844,0.861c0.432,0.574,0.538,1.271,0.318,2.091
				c-0.22,0.821-0.706,1.518-1.457,2.093c-0.752,0.574-1.538,0.86-2.358,0.86H360.22l12.52-46.723h26.789
				c0.82,0,1.449,0.299,1.887,0.897c0.438,0.597,0.546,1.307,0.327,2.126c-0.214,0.797-0.698,1.489-1.452,2.074
				C399.535,98.49,398.747,98.782,397.927,98.782z"/>
			<path fill="#00FFFF" d="M421.488,133.623h10.66c0.82,0,1.453,0.286,1.896,0.861c0.444,0.574,0.557,1.271,0.338,2.091
				c-0.221,0.821-0.706,1.518-1.457,2.093c-0.752,0.574-1.538,0.86-2.358,0.86h-11.039c-1.406,0-2.739-0.444-4.001-1.335
				s-2.037-1.887-2.328-2.988l-3.288-13.184c-0.405-1.899-0.341-3.844,0.192-5.836c0.59-2.203,1.536-4.114,2.836-5.73l10.386-13.043
				c0.983-1.219,2.29-2.291,3.921-3.218c1.631-0.925,3.091-1.389,4.38-1.389h11.672c0.82,0,1.438,0.294,1.856,0.879
				c0.417,0.586,0.519,1.278,0.306,2.075c-0.22,0.82-0.697,1.528-1.431,2.127c-0.734,0.597-1.512,0.896-2.331,0.896h-11.245
				c-0.938,0.003-1.848,0.555-2.729,1.656l-9.827,12.228c-0.774,0.961-1.335,2.099-1.682,3.413c-0.375,1.386-0.423,2.604-0.144,3.66
				l3.032,12.025C419.356,133.007,420.15,133.627,421.488,133.623z"/>
			<path fill="#00FFFF" d="M449.5,130.67l9.336-34.841c0.219-0.819,0.702-1.529,1.448-2.126c0.746-0.599,1.518-0.897,2.314-0.897
				s1.409,0.294,1.839,0.879c0.429,0.586,0.536,1.278,0.323,2.075l-9.354,34.91c-0.207,0.773-0.095,1.446,0.338,2.021
				c0.432,0.575,1.046,0.861,1.843,0.861h12.094c0.82,0,1.593-0.28,2.317-0.843c0.726-0.563,1.195-1.242,1.408-2.039l9.336-34.841
				c0.226-0.844,0.704-1.559,1.436-2.145c0.73-0.585,1.507-0.879,2.327-0.879s1.438,0.294,1.856,0.879
				c0.417,0.586,0.513,1.301,0.287,2.145l-9.316,34.77c-0.654,2.438-2.089,4.535-4.306,6.294c-2.218,1.757-4.533,2.636-6.947,2.636
				h-12.094c-2.438,0-4.291-0.866-5.561-2.602C449.155,135.193,448.847,133.106,449.5,130.67z"/>
			<path fill="#00FFFF" d="M491.547,136.575l11.728-43.77h20.883c2.414,0,4.259,0.879,5.534,2.637
				c1.274,1.758,1.586,3.856,0.933,6.294l-0.904,3.375c-0.659,2.461-2.091,4.564-4.293,6.311s-4.521,2.618-6.959,2.618h-3.762
				l6.503,20.743c0.209,0.609,0.233,1.219,0.07,1.828c-0.214,0.797-0.703,1.481-1.469,2.057c-0.765,0.574-1.535,0.86-2.311,0.86
				c-1.177,0.006-1.928-0.519-2.252-1.574l-7.419-23.914h-4.268l-6.038,22.535c-0.221,0.821-0.706,1.518-1.457,2.093
				c-0.752,0.574-1.538,0.86-2.358,0.86s-1.44-0.286-1.86-0.86C491.427,138.093,491.326,137.396,491.547,136.575z M505.073,108.135
				h14.977c0.82,0,1.595-0.287,2.323-0.861c0.728-0.575,1.201-1.271,1.422-2.093l0.923-3.444c0.22-0.821,0.119-1.519-0.301-2.093
				c-0.421-0.573-1.041-0.861-1.861-0.861h-14.977L505.073,108.135z"/>
			<path fill="#00FFFF" d="M549.575,92.806h23.906c0.773,0,1.38,0.294,1.821,0.879c0.44,0.586,0.554,1.278,0.341,2.075
				c-0.22,0.82-0.703,1.528-1.449,2.127c-0.746,0.597-1.518,0.896-2.314,0.896h-8.93l-9.335,34.841h8.93
				c0.82,0,1.44,0.286,1.861,0.861c0.42,0.574,0.52,1.271,0.301,2.091c-0.221,0.821-0.7,1.518-1.439,2.093
				c-0.74,0.574-1.509,0.86-2.306,0.86h-23.906c-0.82,0-1.44-0.286-1.86-0.86c-0.421-0.575-0.521-1.271-0.301-2.093
				c0.219-0.819,0.693-1.517,1.422-2.091c0.728-0.575,1.502-0.861,2.322-0.861h9.07l9.335-34.841h-9.07
				c-0.82,0-1.438-0.292-1.856-0.879c-0.417-0.585-0.519-1.277-0.305-2.074c0.226-0.844,0.704-1.559,1.436-2.145
				C547.979,93.1,548.755,92.806,549.575,92.806z"/>
			<path fill="#00FFFF" d="M587.953,100.856l2.139-7.979h29.813l-2.157,8.051c-0.22,0.82-0.7,1.518-1.439,2.091
				c-0.74,0.575-1.509,0.861-2.306,0.861c-0.82,0-1.45-0.292-1.891-0.878c-0.441-0.586-0.555-1.277-0.341-2.074l0.574-2.146h-5.977
				l-10.126,37.793c-0.221,0.821-0.7,1.518-1.439,2.093c-0.74,0.574-1.509,0.86-2.306,0.86c-0.844,0-1.481-0.286-1.913-0.86
				c-0.433-0.575-0.539-1.271-0.318-2.093l10.126-37.793h-5.977l-0.556,2.074c-0.22,0.821-0.693,1.519-1.422,2.093
				s-1.502,0.861-2.322,0.861s-1.441-0.287-1.861-0.861S587.733,101.678,587.953,100.856z"/>
			<path fill="#00FFFF" d="M645.088,117.105l-5.216,19.466c-0.221,0.822-0.7,1.521-1.44,2.096c-0.74,0.574-1.509,0.861-2.306,0.861
				c-0.844,0-1.481-0.286-1.913-0.86c-0.433-0.575-0.539-1.271-0.318-2.093l5.211-19.446l-7.854-15.041l1.678-6.259
				c0.226-0.844,0.704-1.559,1.436-2.145c0.73-0.585,1.507-0.879,2.327-0.879s1.448,0.301,1.886,0.902
				c0.436,0.602,0.544,1.314,0.322,2.14l-1.089,4.066l5.809,11.384l12.047-11.371l1.101-4.104c0.219-0.817,0.701-1.525,1.447-2.121
				c0.745-0.598,1.517-0.896,2.313-0.896c0.773,0,1.385,0.276,1.835,0.826c0.45,0.551,0.553,1.283,0.309,2.197l-1.658,6.188
				L645.088,117.105z"/>
		</g>
		<g>
			<path fill="#FF00FF" d="M122.203,133.37h10.66c0.82,0,1.453,0.286,1.897,0.861c0.444,0.574,0.557,1.271,0.337,2.091
				c-0.22,0.821-0.706,1.518-1.458,2.093c-0.751,0.574-1.538,0.86-2.358,0.86h-11.039c-1.406,0-2.74-0.444-4.001-1.335
				c-1.262-0.891-2.038-1.887-2.328-2.988l-3.288-13.184c-0.405-1.899-0.341-3.844,0.192-5.836c0.59-2.203,1.536-4.114,2.836-5.73
				l10.385-13.043c0.983-1.219,2.29-2.291,3.921-3.218c1.631-0.925,3.091-1.389,4.38-1.389h11.672c0.82,0,1.439,0.294,1.856,0.879
				c0.417,0.586,0.519,1.278,0.306,2.075c-0.22,0.82-0.697,1.528-1.431,2.127c-0.734,0.597-1.512,0.896-2.331,0.896h-11.245
				c-0.937,0.003-1.848,0.555-2.729,1.656l-9.827,12.228c-0.774,0.961-1.335,2.099-1.682,3.413c-0.375,1.386-0.422,2.604-0.143,3.66
				l3.032,12.025C120.071,132.754,120.865,133.374,122.203,133.37z"/>
			<path fill="#FF00FF" d="M171.849,116.853l-5.216,19.466c-0.221,0.822-0.701,1.521-1.44,2.096
				c-0.74,0.574-1.509,0.861-2.306,0.861c-0.844,0-1.481-0.286-1.914-0.86c-0.432-0.575-0.538-1.271-0.318-2.093l5.21-19.446
				l-7.853-15.041l1.677-6.259c0.226-0.844,0.705-1.559,1.436-2.145c0.731-0.585,1.507-0.879,2.327-0.879s1.449,0.301,1.886,0.902
				c0.436,0.602,0.544,1.314,0.323,2.14l-1.089,4.066l5.809,11.384l12.047-11.371l1.1-4.104c0.219-0.817,0.702-1.525,1.447-2.121
				c0.746-0.598,1.517-0.896,2.314-0.896c0.773,0,1.385,0.276,1.835,0.826c0.45,0.551,0.553,1.283,0.308,2.197l-1.658,6.188
				L171.849,116.853z"/>
			<path fill="#FF00FF" d="M225.022,124.792l-0.697,2.602c-0.873,3.258-2.776,6.053-5.709,8.385s-6.029,3.497-9.287,3.497h-18.07
				l12.52-46.723h18.07c3.258,0,5.73,1.16,7.417,3.481c1.687,2.32,2.091,5.121,1.212,8.401l-0.669,2.497
				c-0.936,3.492-3.081,6.468-6.436,8.929C225.396,118.37,225.946,121.346,225.022,124.792z M218.278,127.394l0.66-2.461
				c0.439-1.641,0.236-3.047-0.61-4.22c-0.846-1.172-2.078-1.757-3.695-1.757H202.68l-3.844,14.343h11.953
				c1.594,0,3.132-0.58,4.615-1.74C216.887,130.398,217.845,129.01,218.278,127.394z M223.78,106.861l0.65-2.426
				c0.439-1.64,0.236-3.046-0.61-4.219c-0.846-1.171-2.078-1.757-3.695-1.757h-12.023l-3.833,14.308h12.023
				c1.594,0,3.132-0.579,4.615-1.739C222.388,109.868,223.346,108.479,223.78,106.861z"/>
			<path fill="#FF00FF" d="M272.594,98.529h-20.883l-3.853,14.38h9c0.797,0,1.409,0.293,1.839,0.878
				c0.429,0.587,0.536,1.278,0.323,2.074c-0.227,0.845-0.705,1.56-1.437,2.146c-0.731,0.586-1.507,0.878-2.327,0.878h-9
				l-3.881,14.485h20.953c0.797,0,1.411,0.286,1.843,0.861c0.432,0.574,0.538,1.271,0.319,2.091
				c-0.22,0.821-0.706,1.518-1.458,2.093c-0.751,0.574-1.538,0.86-2.358,0.86h-26.789l12.52-46.723h26.789
				c0.82,0,1.449,0.299,1.887,0.897c0.438,0.597,0.546,1.307,0.327,2.126c-0.213,0.797-0.698,1.489-1.452,2.074
				C274.202,98.237,273.415,98.529,272.594,98.529z"/>
			<path fill="#FF00FF" d="M279.238,136.322l11.728-43.77h20.883c2.414,0,4.259,0.879,5.534,2.637
				c1.274,1.758,1.586,3.856,0.933,6.294l-0.904,3.375c-0.66,2.461-2.091,4.564-4.293,6.311s-4.521,2.618-6.959,2.618h-3.762
				l6.502,20.743c0.209,0.609,0.234,1.219,0.071,1.828c-0.214,0.797-0.703,1.481-1.468,2.057c-0.765,0.574-1.536,0.86-2.311,0.86
				c-1.177,0.006-1.928-0.519-2.252-1.574l-7.419-23.914h-4.268l-6.038,22.535c-0.22,0.821-0.706,1.518-1.458,2.093
				c-0.751,0.574-1.538,0.86-2.358,0.86s-1.44-0.286-1.861-0.86C279.118,137.84,279.018,137.144,279.238,136.322z M292.764,107.882
				h14.977c0.82,0,1.595-0.287,2.323-0.861c0.728-0.575,1.202-1.271,1.422-2.093l0.923-3.444c0.22-0.821,0.119-1.519-0.301-2.093
				c-0.421-0.573-1.041-0.861-1.861-0.861H295.27L292.764,107.882z"/>
			<path fill="#FF00FF" d="M341.036,92.553h15.381c1.877,0,3.443,0.792,4.697,2.374c1.253,1.581,1.579,3.497,0.977,5.748
				c-0.227,0.843-0.717,1.559-1.472,2.144c-0.754,0.586-1.495,0.88-2.222,0.88c-1.008,0-1.638-0.229-1.891-0.687
				c-0.252-0.456-0.382-1.306-0.39-2.549c-0.008-1.242-0.6-1.862-1.773-1.862h-14.617c-0.704,0-1.118,0.228-1.239,0.681
				c-0.096,0.287-0.041,0.618,0.164,0.992l14.458,28c0.693,1.358,0.833,2.811,0.418,4.357c-0.471,1.758-1.524,3.305-3.16,4.642
				c-1.635,1.336-3.238,2.003-4.809,2.003h-15.926c-2.109,0-3.728-0.803-4.856-2.408s-1.435-3.369-0.92-5.29
				c0.59-2.203,1.917-3.305,3.979-3.305c0.797,0,1.4,0.287,1.808,0.861c0.409,0.574,0.51,1.248,0.302,2.021
				c-0.169,0.633-0.094,1.16,0.227,1.582c0.321,0.421,0.809,0.633,1.465,0.633h14.695c0.633,0,1.016-0.251,1.15-0.753
				c0.082-0.238,0.021-0.545-0.185-0.921l-14.421-27.999c-0.676-1.335-0.804-2.789-0.383-4.359c0.49-1.828,1.572-3.415,3.247-4.764
				C337.417,93.228,339.181,92.553,341.036,92.553z"/>
			<path fill="#FF00FF" d="M403.059,98.529h-20.883l-3.852,14.38h9c0.797,0,1.408,0.293,1.838,0.878
				c0.43,0.587,0.537,1.278,0.324,2.074c-0.227,0.845-0.705,1.56-1.438,2.146c-0.73,0.586-1.506,0.878-2.326,0.878h-9l-3.881,14.485
				h20.953c0.797,0,1.41,0.286,1.844,0.861c0.432,0.574,0.537,1.271,0.318,2.091c-0.221,0.821-0.707,1.518-1.457,2.093
				c-0.752,0.574-1.539,0.86-2.359,0.86h-26.789l12.519-46.723h26.789c0.82,0,1.449,0.299,1.887,0.897
				c0.438,0.597,0.547,1.307,0.328,2.126c-0.215,0.797-0.699,1.489-1.453,2.074C404.668,98.237,403.879,98.529,403.059,98.529z"/>
			<path fill="#FF00FF" d="M426.621,133.37h10.66c0.82,0,1.453,0.286,1.896,0.861c0.443,0.574,0.557,1.271,0.338,2.091
				c-0.221,0.821-0.707,1.518-1.457,2.093c-0.752,0.574-1.539,0.86-2.359,0.86H424.66c-1.406,0-2.738-0.444-4-1.335
				s-2.037-1.887-2.328-2.988l-3.289-13.184c-0.404-1.899-0.34-3.844,0.193-5.836c0.59-2.203,1.535-4.114,2.836-5.73l10.385-13.043
				c0.984-1.219,2.291-2.291,3.922-3.218c1.631-0.925,3.09-1.389,4.379-1.389h11.672c0.82,0,1.439,0.294,1.857,0.879
				c0.416,0.586,0.518,1.278,0.305,2.075c-0.219,0.82-0.697,1.528-1.43,2.127c-0.734,0.597-1.512,0.896-2.332,0.896h-11.244
				c-0.938,0.003-1.848,0.555-2.73,1.656l-9.826,12.228c-0.775,0.961-1.336,2.099-1.682,3.413c-0.375,1.386-0.424,2.604-0.145,3.66
				l3.033,12.025C424.488,132.754,425.283,133.374,426.621,133.37z"/>
			<path fill="#FF00FF" d="M454.633,130.417l9.336-34.841c0.219-0.819,0.701-1.529,1.447-2.126c0.746-0.599,1.518-0.897,2.314-0.897
				s1.41,0.294,1.84,0.879c0.428,0.586,0.535,1.278,0.322,2.075l-9.354,34.91c-0.207,0.773-0.096,1.446,0.338,2.021
				c0.432,0.575,1.045,0.861,1.842,0.861h12.094c0.82,0,1.594-0.28,2.318-0.843c0.725-0.563,1.195-1.242,1.408-2.039l9.336-34.841
				c0.225-0.844,0.703-1.559,1.436-2.145c0.73-0.585,1.506-0.879,2.326-0.879s1.439,0.294,1.857,0.879
				c0.416,0.586,0.512,1.301,0.287,2.145l-9.316,34.77c-0.654,2.438-2.09,4.535-4.307,6.294c-2.217,1.757-4.533,2.636-6.947,2.636
				h-12.094c-2.438,0-4.291-0.866-5.561-2.602C454.287,134.94,453.979,132.854,454.633,130.417z"/>
			<path fill="#FF00FF" d="M496.68,136.322l11.727-43.77h20.883c2.414,0,4.26,0.879,5.535,2.637
				c1.273,1.758,1.586,3.856,0.932,6.294l-0.904,3.375c-0.658,2.461-2.09,4.564-4.293,6.311c-2.201,1.746-4.521,2.618-6.959,2.618
				h-3.762l6.504,20.743c0.209,0.609,0.232,1.219,0.07,1.828c-0.215,0.797-0.703,1.481-1.469,2.057
				c-0.766,0.574-1.535,0.86-2.311,0.86c-1.178,0.006-1.928-0.519-2.252-1.574l-7.42-23.914h-4.268l-6.037,22.535
				c-0.221,0.821-0.707,1.518-1.457,2.093c-0.752,0.574-1.539,0.86-2.359,0.86s-1.439-0.286-1.859-0.86
				C496.559,137.84,496.459,137.144,496.68,136.322z M510.205,107.882h14.977c0.82,0,1.596-0.287,2.324-0.861
				c0.727-0.575,1.201-1.271,1.422-2.093l0.922-3.444c0.221-0.821,0.119-1.519-0.301-2.093c-0.42-0.573-1.041-0.861-1.861-0.861
				h-14.977L510.205,107.882z"/>
			<path fill="#FF00FF" d="M554.707,92.553h23.906c0.773,0,1.381,0.294,1.822,0.879c0.439,0.586,0.553,1.278,0.34,2.075
				c-0.219,0.82-0.703,1.528-1.449,2.127c-0.746,0.597-1.518,0.896-2.314,0.896h-8.93l-9.334,34.841h8.93
				c0.82,0,1.439,0.286,1.861,0.861c0.42,0.574,0.52,1.271,0.301,2.091c-0.221,0.821-0.701,1.518-1.439,2.093
				c-0.74,0.574-1.51,0.86-2.307,0.86h-23.906c-0.82,0-1.439-0.286-1.859-0.86c-0.422-0.575-0.521-1.271-0.301-2.093
				c0.219-0.819,0.693-1.517,1.422-2.091c0.727-0.575,1.502-0.861,2.322-0.861h9.07l9.334-34.841h-9.07
				c-0.82,0-1.438-0.292-1.855-0.879c-0.418-0.585-0.52-1.277-0.305-2.074c0.225-0.844,0.703-1.559,1.436-2.145
				C553.111,92.847,553.887,92.553,554.707,92.553z"/>
			<path fill="#FF00FF" d="M593.086,100.604l2.139-7.979h29.813l-2.158,8.051c-0.219,0.82-0.699,1.518-1.439,2.091
				c-0.74,0.575-1.508,0.861-2.305,0.861c-0.82,0-1.451-0.292-1.891-0.878c-0.441-0.586-0.555-1.277-0.342-2.074l0.574-2.146H611.5
				l-10.125,37.793c-0.221,0.821-0.701,1.518-1.439,2.093c-0.74,0.574-1.51,0.86-2.307,0.86c-0.844,0-1.48-0.286-1.912-0.86
				c-0.434-0.575-0.539-1.271-0.318-2.093l10.125-37.793h-5.977l-0.555,2.074c-0.221,0.821-0.693,1.519-1.422,2.093
				s-1.502,0.861-2.322,0.861s-1.441-0.287-1.861-0.861S592.865,101.425,593.086,100.604z"/>
			<path fill="#FF00FF" d="M650.221,116.853l-5.217,19.466c-0.221,0.822-0.699,1.521-1.439,2.096
				c-0.74,0.574-1.51,0.861-2.307,0.861c-0.844,0-1.48-0.286-1.912-0.86c-0.434-0.575-0.539-1.271-0.318-2.093l5.211-19.446
				l-7.854-15.041l1.678-6.259c0.225-0.844,0.703-1.559,1.436-2.145c0.73-0.585,1.506-0.879,2.326-0.879s1.449,0.301,1.887,0.902
				c0.436,0.602,0.543,1.314,0.322,2.14l-1.09,4.066l5.809,11.384l12.047-11.371l1.102-4.104c0.219-0.817,0.701-1.525,1.447-2.121
				c0.744-0.598,1.516-0.896,2.313-0.896c0.773,0,1.385,0.276,1.836,0.826c0.449,0.551,0.553,1.283,0.309,2.197l-1.658,6.188
				L650.221,116.853z"/>
		</g>
		<g>
			<path d="M119.07,133.289h10.66c0.82,0,1.453,0.286,1.897,0.861c0.444,0.574,0.557,1.271,0.337,2.091
				c-0.22,0.821-0.706,1.518-1.458,2.093c-0.751,0.574-1.538,0.86-2.358,0.86H117.11c-1.406,0-2.74-0.444-4.001-1.335
				c-1.262-0.891-2.038-1.887-2.328-2.988l-3.288-13.184c-0.405-1.899-0.341-3.844,0.192-5.836c0.59-2.203,1.536-4.114,2.836-5.73
				l10.385-13.043c0.983-1.219,2.29-2.291,3.921-3.218c1.631-0.925,3.091-1.389,4.38-1.389h11.672c0.82,0,1.439,0.294,1.856,0.879
				c0.417,0.586,0.519,1.278,0.306,2.075c-0.22,0.82-0.697,1.528-1.431,2.127c-0.734,0.597-1.512,0.896-2.331,0.896h-11.245
				c-0.937,0.003-1.848,0.555-2.729,1.656l-9.827,12.228c-0.774,0.961-1.335,2.099-1.682,3.413c-0.375,1.386-0.422,2.604-0.143,3.66
				l3.032,12.025C116.938,132.673,117.732,133.293,119.07,133.289z"/>
			<path d="M168.717,116.771l-5.216,19.466c-0.221,0.822-0.701,1.521-1.44,2.096c-0.74,0.574-1.509,0.861-2.306,0.861
				c-0.844,0-1.481-0.286-1.914-0.86c-0.432-0.575-0.538-1.271-0.318-2.093l5.21-19.446l-7.853-15.041l1.677-6.259
				c0.226-0.844,0.705-1.559,1.436-2.145c0.731-0.585,1.507-0.879,2.327-0.879s1.449,0.301,1.886,0.902
				c0.436,0.602,0.544,1.314,0.323,2.14l-1.089,4.066l5.809,11.384l12.047-11.371l1.1-4.104c0.219-0.817,0.702-1.525,1.447-2.121
				c0.746-0.598,1.517-0.896,2.314-0.896c0.773,0,1.385,0.276,1.835,0.826c0.45,0.551,0.553,1.283,0.308,2.197l-1.658,6.188
				L168.717,116.771z"/>
			<path d="M221.89,124.711l-0.697,2.602c-0.873,3.258-2.776,6.053-5.709,8.385s-6.029,3.497-9.287,3.497h-18.07l12.52-46.723h18.07
				c3.258,0,5.73,1.16,7.417,3.481c1.687,2.32,2.091,5.121,1.212,8.401l-0.669,2.497c-0.936,3.492-3.081,6.468-6.436,8.929
				C222.263,118.289,222.813,121.265,221.89,124.711z M215.146,127.313l0.66-2.461c0.439-1.641,0.236-3.047-0.61-4.22
				c-0.846-1.172-2.078-1.757-3.695-1.757h-11.953l-3.844,14.343h11.953c1.594,0,3.132-0.58,4.615-1.74
				C213.755,130.317,214.713,128.929,215.146,127.313z M220.647,106.78l0.65-2.426c0.439-1.64,0.236-3.046-0.61-4.219
				c-0.846-1.171-2.078-1.757-3.695-1.757h-12.023l-3.833,14.308h12.023c1.594,0,3.132-0.579,4.615-1.739
				C219.256,109.787,220.214,108.398,220.647,106.78z"/>
			<path d="M269.462,98.448h-20.883l-3.853,14.38h9c0.797,0,1.409,0.293,1.839,0.878c0.429,0.587,0.536,1.278,0.323,2.074
				c-0.227,0.845-0.705,1.56-1.437,2.146c-0.731,0.586-1.507,0.878-2.327,0.878h-9l-3.881,14.485h20.953
				c0.797,0,1.411,0.286,1.843,0.861c0.432,0.574,0.538,1.271,0.319,2.091c-0.22,0.821-0.706,1.518-1.458,2.093
				c-0.751,0.574-1.538,0.86-2.358,0.86h-26.789l12.52-46.723h26.789c0.82,0,1.449,0.299,1.887,0.897
				c0.438,0.597,0.546,1.307,0.327,2.126c-0.213,0.797-0.698,1.489-1.452,2.074C271.07,98.156,270.282,98.448,269.462,98.448z"/>
			<path d="M276.105,136.241l11.728-43.77h20.883c2.414,0,4.259,0.879,5.534,2.637c1.274,1.758,1.586,3.856,0.933,6.294
				l-0.904,3.375c-0.66,2.461-2.091,4.564-4.293,6.311s-4.521,2.618-6.959,2.618h-3.762l6.502,20.743
				c0.209,0.609,0.234,1.219,0.071,1.828c-0.214,0.797-0.703,1.481-1.468,2.057c-0.765,0.574-1.536,0.86-2.311,0.86
				c-1.177,0.006-1.928-0.519-2.252-1.574l-7.419-23.914h-4.268l-6.038,22.535c-0.22,0.821-0.706,1.518-1.458,2.093
				c-0.751,0.574-1.538,0.86-2.358,0.86s-1.44-0.286-1.861-0.86C275.985,137.759,275.885,137.063,276.105,136.241z M289.632,107.801
				h14.977c0.82,0,1.595-0.287,2.323-0.861c0.728-0.575,1.202-1.271,1.422-2.093l0.923-3.444c0.22-0.821,0.119-1.519-0.301-2.093
				c-0.421-0.573-1.041-0.861-1.861-0.861h-14.977L289.632,107.801z"/>
			<path d="M337.903,92.472h15.381c1.877,0,3.443,0.792,4.697,2.374c1.253,1.581,1.579,3.497,0.977,5.748
				c-0.227,0.843-0.717,1.559-1.472,2.144c-0.754,0.586-1.495,0.88-2.222,0.88c-1.008,0-1.638-0.229-1.891-0.687
				c-0.252-0.456-0.382-1.306-0.39-2.549c-0.008-1.242-0.6-1.862-1.773-1.862h-14.617c-0.704,0-1.118,0.228-1.239,0.681
				c-0.096,0.287-0.041,0.618,0.164,0.992l14.458,28c0.693,1.358,0.833,2.811,0.418,4.357c-0.471,1.758-1.524,3.305-3.16,4.642
				c-1.635,1.336-3.238,2.003-4.809,2.003h-15.926c-2.109,0-3.728-0.803-4.856-2.408s-1.435-3.369-0.92-5.29
				c0.59-2.203,1.917-3.305,3.979-3.305c0.797,0,1.4,0.287,1.808,0.861c0.409,0.574,0.51,1.248,0.302,2.021
				c-0.169,0.633-0.094,1.16,0.227,1.582c0.321,0.421,0.809,0.633,1.465,0.633h14.695c0.633,0,1.016-0.251,1.15-0.753
				c0.082-0.238,0.021-0.545-0.185-0.921l-14.421-27.999c-0.676-1.335-0.804-2.789-0.383-4.359c0.49-1.828,1.572-3.415,3.247-4.764
				C334.285,93.146,336.049,92.472,337.903,92.472z"/>
			<path d="M399.927,98.448h-20.883l-3.853,14.38h9c0.797,0,1.409,0.293,1.839,0.878c0.429,0.587,0.536,1.278,0.323,2.074
				c-0.227,0.845-0.705,1.56-1.437,2.146c-0.73,0.586-1.507,0.878-2.327,0.878h-9l-3.881,14.485h20.953
				c0.797,0,1.411,0.286,1.844,0.861c0.432,0.574,0.538,1.271,0.318,2.091c-0.22,0.821-0.706,1.518-1.457,2.093
				c-0.752,0.574-1.538,0.86-2.358,0.86H362.22l12.52-46.723h26.789c0.82,0,1.449,0.299,1.887,0.897
				c0.438,0.597,0.546,1.307,0.327,2.126c-0.214,0.797-0.698,1.489-1.452,2.074C401.535,98.156,400.747,98.448,399.927,98.448z"/>
			<path d="M423.488,133.289h10.66c0.82,0,1.453,0.286,1.896,0.861c0.444,0.574,0.557,1.271,0.338,2.091
				c-0.221,0.821-0.706,1.518-1.457,2.093c-0.752,0.574-1.538,0.86-2.358,0.86h-11.039c-1.406,0-2.739-0.444-4.001-1.335
				s-2.037-1.887-2.328-2.988l-3.288-13.184c-0.405-1.899-0.341-3.844,0.192-5.836c0.59-2.203,1.536-4.114,2.836-5.73l10.386-13.043
				c0.983-1.219,2.29-2.291,3.921-3.218c1.631-0.925,3.091-1.389,4.38-1.389h11.672c0.82,0,1.438,0.294,1.856,0.879
				c0.417,0.586,0.519,1.278,0.306,2.075c-0.22,0.82-0.697,1.528-1.431,2.127c-0.734,0.597-1.512,0.896-2.331,0.896h-11.245
				c-0.938,0.003-1.848,0.555-2.729,1.656l-9.827,12.228c-0.774,0.961-1.335,2.099-1.682,3.413c-0.375,1.386-0.423,2.604-0.144,3.66
				l3.032,12.025C421.356,132.673,422.15,133.293,423.488,133.289z"/>
			<path d="M451.5,130.336l9.336-34.841c0.219-0.819,0.702-1.529,1.448-2.126c0.746-0.599,1.518-0.897,2.314-0.897
				s1.409,0.294,1.839,0.879c0.429,0.586,0.536,1.278,0.323,2.075l-9.354,34.91c-0.207,0.773-0.095,1.446,0.338,2.021
				c0.432,0.575,1.046,0.861,1.843,0.861h12.094c0.82,0,1.593-0.28,2.317-0.843c0.726-0.563,1.195-1.242,1.408-2.039l9.336-34.841
				c0.226-0.844,0.704-1.559,1.436-2.145c0.73-0.585,1.507-0.879,2.327-0.879s1.438,0.294,1.856,0.879
				c0.417,0.586,0.513,1.301,0.287,2.145l-9.316,34.77c-0.654,2.438-2.089,4.535-4.306,6.294c-2.218,1.757-4.533,2.636-6.947,2.636
				h-12.094c-2.438,0-4.291-0.866-5.561-2.602C451.155,134.859,450.847,132.772,451.5,130.336z"/>
			<path d="M493.547,136.241l11.728-43.77h20.883c2.414,0,4.259,0.879,5.534,2.637c1.274,1.758,1.586,3.856,0.933,6.294
				l-0.904,3.375c-0.659,2.461-2.091,4.564-4.293,6.311s-4.521,2.618-6.959,2.618h-3.762l6.503,20.743
				c0.209,0.609,0.233,1.219,0.07,1.828c-0.214,0.797-0.703,1.481-1.469,2.057c-0.765,0.574-1.535,0.86-2.311,0.86
				c-1.177,0.006-1.928-0.519-2.252-1.574l-7.419-23.914h-4.268l-6.038,22.535c-0.221,0.821-0.706,1.518-1.457,2.093
				c-0.752,0.574-1.538,0.86-2.358,0.86s-1.44-0.286-1.86-0.86C493.427,137.759,493.326,137.063,493.547,136.241z M507.073,107.801
				h14.977c0.82,0,1.595-0.287,2.323-0.861c0.728-0.575,1.201-1.271,1.422-2.093l0.923-3.444c0.22-0.821,0.119-1.519-0.301-2.093
				c-0.421-0.573-1.041-0.861-1.861-0.861h-14.977L507.073,107.801z"/>
			<path d="M551.575,92.472h23.906c0.773,0,1.38,0.294,1.821,0.879c0.44,0.586,0.554,1.278,0.341,2.075
				c-0.22,0.82-0.703,1.528-1.449,2.127c-0.746,0.597-1.518,0.896-2.314,0.896h-8.93l-9.335,34.841h8.93
				c0.82,0,1.44,0.286,1.861,0.861c0.42,0.574,0.52,1.271,0.301,2.091c-0.221,0.821-0.7,1.518-1.439,2.093
				c-0.74,0.574-1.509,0.86-2.306,0.86h-23.906c-0.82,0-1.44-0.286-1.86-0.86c-0.421-0.575-0.521-1.271-0.301-2.093
				c0.219-0.819,0.693-1.517,1.422-2.091c0.728-0.575,1.502-0.861,2.322-0.861h9.07l9.335-34.841h-9.07
				c-0.82,0-1.438-0.292-1.856-0.879c-0.417-0.585-0.519-1.277-0.305-2.074c0.226-0.844,0.704-1.559,1.436-2.145
				C549.979,92.766,550.755,92.472,551.575,92.472z"/>
			<path d="M589.953,100.522l2.139-7.979h29.813l-2.157,8.051c-0.22,0.82-0.7,1.518-1.439,2.091
				c-0.74,0.575-1.509,0.861-2.306,0.861c-0.82,0-1.45-0.292-1.891-0.878c-0.441-0.586-0.555-1.277-0.341-2.074l0.574-2.146h-5.977
				l-10.126,37.793c-0.221,0.821-0.7,1.518-1.439,2.093c-0.74,0.574-1.509,0.86-2.306,0.86c-0.844,0-1.481-0.286-1.913-0.86
				c-0.433-0.575-0.539-1.271-0.318-2.093l10.126-37.793h-5.977l-0.556,2.074c-0.22,0.821-0.693,1.519-1.422,2.093
				s-1.502,0.861-2.322,0.861s-1.441-0.287-1.861-0.861S589.733,101.344,589.953,100.522z"/>
			<path d="M647.088,116.771l-5.216,19.466c-0.221,0.822-0.7,1.521-1.44,2.096c-0.74,0.574-1.509,0.861-2.306,0.861
				c-0.844,0-1.481-0.286-1.913-0.86c-0.433-0.575-0.539-1.271-0.318-2.093l5.211-19.446l-7.854-15.041l1.678-6.259
				c0.226-0.844,0.704-1.559,1.436-2.145c0.73-0.585,1.507-0.879,2.327-0.879s1.448,0.301,1.886,0.902
				c0.436,0.602,0.544,1.314,0.322,2.14l-1.089,4.066l5.809,11.384l12.047-11.371l1.101-4.104c0.219-0.817,0.701-1.525,1.447-2.121
				c0.745-0.598,1.517-0.896,2.313-0.896c0.773,0,1.385,0.276,1.835,0.826c0.45,0.551,0.553,1.283,0.309,2.197l-1.658,6.188
				L647.088,116.771z"/>
		</g>
	</g>
	<g>
		<path fill="#FF00FF" d="M409.289,382.482h19.932c2.433,0,4.452,1.062,6.057,3.184c1.605,2.122,2.005,4.693,1.196,7.712
			c-0.304,1.132-0.949,2.091-1.934,2.877c-0.985,0.786-1.949,1.179-2.891,1.179c-1.305,0-2.119-0.307-2.44-0.92
			c-0.322-0.613-0.479-1.752-0.475-3.419c0.005-1.666-0.753-2.5-2.274-2.5h-18.942c-0.913,0-1.451,0.305-1.614,0.915
			c-0.127,0.384-0.061,0.828,0.201,1.33l18.392,37.563c0.882,1.822,1.046,3.771,0.489,5.847c-0.632,2.358-2.016,4.434-4.151,6.226
			s-4.222,2.688-6.256,2.688H393.94c-2.733,0-4.82-1.076-6.263-3.23c-1.444-2.154-1.819-4.52-1.129-7.099
			c0.792-2.955,2.525-4.434,5.198-4.434c1.032,0,1.81,0.386,2.332,1.155c0.522,0.771,0.645,1.675,0.367,2.712
			c-0.228,0.85-0.137,1.557,0.273,2.123c0.41,0.565,1.04,0.849,1.891,0.849h19.043c0.82,0,1.32-0.336,1.501-1.009
			c0.108-0.32,0.032-0.732-0.229-1.235l-18.345-37.564c-0.86-1.79-1.008-3.739-0.443-5.847c0.657-2.452,2.08-4.582,4.268-6.391
			C404.591,383.387,406.887,382.482,409.289,382.482z"/>
		<path fill="#FF00FF" d="M466.395,382.482h30.979c1.003,0,1.785,0.394,2.35,1.18c0.563,0.786,0.702,1.714,0.416,2.782
			c-0.295,1.101-0.93,2.052-1.903,2.854c-0.975,0.802-1.979,1.202-3.011,1.202h-11.571l-12.524,46.74H482.7
			c1.063,0,1.863,0.386,2.401,1.155c0.538,0.771,0.659,1.707,0.364,2.807c-0.295,1.101-0.926,2.036-1.891,2.807
			c-0.966,0.771-1.966,1.155-2.998,1.155h-30.979c-1.063,0-1.863-0.385-2.401-1.155s-0.659-1.706-0.364-2.807
			c0.295-1.1,0.918-2.035,1.868-2.807c0.95-0.77,1.957-1.155,3.021-1.155h11.754L476,390.5h-11.754
			c-1.063,0-1.862-0.392-2.396-1.179c-0.533-0.786-0.657-1.713-0.37-2.782c0.304-1.133,0.932-2.091,1.887-2.877
			S465.331,382.482,466.395,382.482z"/>
		<path fill="#FF00FF" d="M546.835,382.482h12.71c1.063,0,1.862,0.386,2.401,1.155c0.536,0.771,0.658,1.707,0.364,2.807
			c-0.313,1.164-0.976,2.131-1.987,2.9c-1.012,0.771-1.99,1.155-2.933,1.155h-12.138c-1.183-0.015-2.37,0.56-3.561,1.724
			l-14.569,14.305c-1.213,1.134-2.086,2.706-2.62,4.719l-5.877,21.937c-0.304,1.132-0.189,2.091,0.345,2.878
			c0.532,0.786,1.33,1.179,2.394,1.179h15.581c1.032,0,2.033-0.393,3.004-1.179c0.97-0.786,1.599-1.713,1.885-2.783l2.3-8.584
			h-7.928c-1.092,0-1.9-0.385-2.423-1.155c-0.522-0.77-0.636-1.705-0.341-2.807c0.295-1.1,0.909-2.035,1.844-2.806
			c0.937-0.77,1.951-1.156,3.044-1.156h15.581l-4.424,16.508c-0.876,3.271-2.75,6.069-5.62,8.396
			c-2.872,2.327-5.887,3.49-9.045,3.49h-15.581c-3.188,0-5.604-1.163-7.241-3.49c-1.641-2.326-2.021-5.125-1.146-8.396l5.877-21.932
			c1.053-3.93,2.959-7.247,5.719-9.951l15.279-14.856c1.123-1.133,2.525-2.091,4.21-2.877
			C543.623,382.876,545.255,382.482,546.835,382.482z"/>
	</g>
	<g>
		<path fill="#00FFFF" d="M403.789,382.482h19.932c2.433,0,4.452,1.062,6.057,3.184c1.605,2.122,2.005,4.693,1.196,7.712
			c-0.304,1.132-0.949,2.091-1.934,2.877c-0.985,0.786-1.949,1.179-2.891,1.179c-1.305,0-2.119-0.307-2.44-0.92
			c-0.322-0.613-0.479-1.752-0.475-3.419c0.005-1.666-0.753-2.5-2.274-2.5h-18.942c-0.913,0-1.451,0.305-1.614,0.915
			c-0.127,0.384-0.061,0.828,0.201,1.33l18.392,37.563c0.882,1.822,1.046,3.771,0.489,5.847c-0.632,2.358-2.016,4.434-4.151,6.226
			s-4.222,2.688-6.256,2.688H388.44c-2.733,0-4.82-1.076-6.263-3.23c-1.444-2.154-1.819-4.52-1.129-7.099
			c0.792-2.955,2.525-4.434,5.198-4.434c1.032,0,1.81,0.386,2.332,1.155c0.522,0.771,0.645,1.675,0.367,2.712
			c-0.228,0.85-0.137,1.557,0.273,2.123c0.41,0.565,1.04,0.849,1.891,0.849h19.043c0.82,0,1.32-0.336,1.501-1.009
			c0.108-0.32,0.032-0.732-0.229-1.235l-18.345-37.564c-0.86-1.79-1.008-3.739-0.443-5.847c0.657-2.452,2.08-4.582,4.268-6.391
			C399.091,383.387,401.387,382.482,403.789,382.482z"/>
		<path fill="#00FFFF" d="M460.895,382.482h30.979c1.003,0,1.785,0.394,2.35,1.18c0.563,0.786,0.702,1.714,0.416,2.782
			c-0.295,1.101-0.93,2.052-1.903,2.854c-0.975,0.802-1.979,1.202-3.011,1.202h-11.571l-12.524,46.74H477.2
			c1.063,0,1.863,0.386,2.401,1.155c0.538,0.771,0.659,1.707,0.364,2.807c-0.295,1.101-0.926,2.036-1.891,2.807
			c-0.966,0.771-1.966,1.155-2.998,1.155h-30.979c-1.063,0-1.863-0.385-2.401-1.155s-0.659-1.706-0.364-2.807
			c0.295-1.1,0.918-2.035,1.868-2.807c0.95-0.77,1.957-1.155,3.021-1.155h11.754L470.5,390.5h-11.754
			c-1.063,0-1.862-0.392-2.396-1.179c-0.533-0.786-0.657-1.713-0.37-2.782c0.304-1.133,0.932-2.091,1.887-2.877
			S459.831,382.482,460.895,382.482z"/>
		<path fill="#00FFFF" d="M541.335,382.482h12.71c1.063,0,1.862,0.386,2.401,1.155c0.536,0.771,0.658,1.707,0.364,2.807
			c-0.313,1.164-0.976,2.131-1.987,2.9c-1.012,0.771-1.99,1.155-2.933,1.155h-12.138c-1.183-0.015-2.37,0.56-3.561,1.724
			l-14.569,14.305c-1.213,1.134-2.086,2.706-2.62,4.719l-5.877,21.937c-0.304,1.132-0.189,2.091,0.345,2.878
			c0.532,0.786,1.33,1.179,2.394,1.179h15.581c1.032,0,2.033-0.393,3.004-1.179c0.97-0.786,1.599-1.713,1.885-2.783l2.3-8.584
			h-7.928c-1.092,0-1.9-0.385-2.423-1.155c-0.522-0.77-0.636-1.705-0.341-2.807c0.295-1.1,0.909-2.035,1.844-2.806
			c0.937-0.77,1.951-1.156,3.044-1.156h15.581l-4.424,16.508c-0.876,3.271-2.75,6.069-5.62,8.396
			c-2.872,2.327-5.887,3.49-9.045,3.49h-15.581c-3.188,0-5.604-1.163-7.241-3.49c-1.641-2.326-2.021-5.125-1.146-8.396l5.877-21.932
			c1.053-3.93,2.959-7.247,5.719-9.951l15.279-14.856c1.123-1.133,2.525-2.091,4.21-2.877
			C538.123,382.876,539.755,382.482,541.335,382.482z"/>
	</g>
	<g>
		<path d="M406.347,382.818h19.932c2.433,0,4.452,1.062,6.057,3.184c1.605,2.122,2.005,4.693,1.196,7.712
			c-0.304,1.132-0.949,2.091-1.934,2.877c-0.985,0.786-1.949,1.179-2.891,1.179c-1.305,0-2.119-0.307-2.44-0.92
			c-0.322-0.613-0.479-1.752-0.475-3.419c0.005-1.666-0.753-2.5-2.274-2.5h-18.942c-0.913,0-1.451,0.305-1.614,0.915
			c-0.127,0.384-0.061,0.828,0.201,1.33l18.392,37.563c0.882,1.822,1.046,3.771,0.489,5.847c-0.632,2.358-2.016,4.434-4.151,6.226
			s-4.222,2.688-6.256,2.688h-20.638c-2.733,0-4.82-1.076-6.263-3.23c-1.444-2.154-1.819-4.52-1.129-7.099
			c0.792-2.955,2.525-4.434,5.198-4.434c1.032,0,1.81,0.386,2.332,1.155c0.522,0.771,0.645,1.675,0.367,2.712
			c-0.228,0.85-0.137,1.557,0.273,2.123c0.41,0.565,1.04,0.849,1.891,0.849h19.043c0.82,0,1.32-0.336,1.501-1.009
			c0.108-0.32,0.032-0.732-0.229-1.235l-18.345-37.564c-0.86-1.79-1.008-3.739-0.443-5.847c0.657-2.452,2.08-4.582,4.268-6.391
			C401.648,383.723,403.944,382.818,406.347,382.818z"/>
		<path d="M463.452,382.818h30.979c1.003,0,1.785,0.394,2.35,1.18c0.563,0.786,0.702,1.714,0.416,2.782
			c-0.295,1.101-0.93,2.052-1.903,2.854c-0.975,0.802-1.979,1.202-3.011,1.202h-11.571l-12.524,46.74h11.571
			c1.063,0,1.863,0.386,2.401,1.155c0.538,0.771,0.659,1.707,0.364,2.807c-0.295,1.101-0.926,2.036-1.891,2.807
			c-0.966,0.771-1.966,1.155-2.998,1.155h-30.979c-1.063,0-1.863-0.385-2.401-1.155s-0.659-1.706-0.364-2.807
			c0.295-1.1,0.918-2.035,1.868-2.807c0.95-0.77,1.957-1.155,3.021-1.155h11.754l12.524-46.74h-11.754
			c-1.063,0-1.862-0.392-2.396-1.179c-0.533-0.786-0.657-1.713-0.37-2.782c0.304-1.133,0.932-2.091,1.887-2.877
			S462.389,382.818,463.452,382.818z"/>
		<path d="M543.893,382.818h12.71c1.063,0,1.862,0.386,2.401,1.155c0.536,0.771,0.658,1.707,0.364,2.807
			c-0.313,1.164-0.976,2.131-1.987,2.9c-1.012,0.771-1.99,1.155-2.933,1.155h-12.138c-1.183-0.015-2.37,0.56-3.561,1.724
			l-14.569,14.305c-1.213,1.134-2.086,2.706-2.62,4.719l-5.877,21.937c-0.304,1.132-0.189,2.091,0.345,2.878
			c0.532,0.786,1.33,1.179,2.394,1.179h15.581c1.032,0,2.033-0.393,3.004-1.179c0.97-0.786,1.599-1.713,1.885-2.783l2.3-8.584
			h-7.928c-1.092,0-1.9-0.385-2.423-1.155c-0.522-0.77-0.636-1.705-0.341-2.807c0.295-1.1,0.909-2.035,1.844-2.806
			c0.937-0.77,1.951-1.156,3.044-1.156h15.581l-4.424,16.508c-0.876,3.271-2.75,6.069-5.62,8.396
			c-2.872,2.327-5.887,3.49-9.045,3.49h-15.581c-3.188,0-5.604-1.163-7.241-3.49c-1.641-2.326-2.021-5.125-1.146-8.396l5.877-21.932
			c1.053-3.93,2.959-7.247,5.719-9.951l15.279-14.856c1.123-1.133,2.525-2.091,4.21-2.877
			C540.681,383.212,542.313,382.818,543.893,382.818z"/>
	</g>
</g>
</svg>
