<?xml version="1.0" encoding="utf-8"?>
<!-- Generator: Adobe Illustrator 22.1.0, SVG Export Plug-In . SVG Version: 6.00 Build 0)  -->
<svg version="1.1" id="Layer_1" xmlns="http://www.w3.org/2000/svg" xmlns:xlink="http://www.w3.org/1999/xlink" x="0px" y="0px"
	 viewBox="0 0 1000 200" style="enable-background:new 0 0 1000 200;" xml:space="preserve">
<style type="text/css">
	.st0{fill:#FFFFFF;}
	.st1{fill:#F7B418;}
</style>
<path class="st0" d="M96.2,63.4h48c0,0-2.2-39-46.2-46.5s-64.3,8.8-64.3,8.8s-23,10.9-21.1,41.8s35.5,39.4,35.5,39.4
	s41.7,11.4,43,12.5s9.1,2.8,8.9,10.8s-11.5,9.5-11.5,9.5s-9.6,1.1-15,0s-13.6-4.4-16.2-15.5l-48.4,0c0,0,1.8,11.8,3.2,15.2
	c1.3,3.3,8.8,21.7,33.2,30.8c24.3,9.2,52,4.2,52,4.2s18.8-2.3,33.3-13c14.5-10.7,16.7-26.7,16.7-26.7s3.9-10.2,0-24.3
	c-3.6-13.1-20.3-22.8-22.2-23.9c-0.1-0.1-0.2-0.1-0.3-0.2c-1.7-0.8-18-8.2-40.2-12.8c-23.5-4.8-23.7-13-23.7-13s-1.5-4.7,4-8.3
	s17.5-1.5,17.5-1.5S95.7,52.3,96.2,63.4z"/>
<g>
	<path class="st0" d="M251,64c-2.1-1.1-4.4-2-6.6-2.7c-5.1-1.6-15.1-4.1-26.3-3.9c0,0-58.3-3.7-61.7,56c0,0-7.1,59.9,61.7,61.2
		s64.3-58.6,64.3-58.6S286.3,82.1,251,64z M219.3,144.8c-20.4,0.5-18.6-28.9-18.6-28.9c-0.8-30.1,18.6-28.7,18.6-28.7
		c21.9,0.7,18.7,32.2,18.7,32.2S239.7,144.3,219.3,144.8z"/>
</g>
<path class="st0" d="M362.3,15.2c0,0-38.5-1.7-49.6,6.2c-11.1,7.9-13,27.1-13.1,39.2h-14.9V86h14.6l0.3,85.7h44.2l0.2-85.3l18.4,0
	V60.8l-18.2-0.2c0,0-1.1-8.7,0.8-12.3c1.8-3.6,4.8-5.8,17.4-4.8V15.2z"/>
<path class="st0" d="M384.5,26.2h44v34.3h21v26h-20.8l-0.2,45.7c0,0-0.8,7.4,7.7,7.9c8.4,0.5,12.6,0,12.6,0l0.8,31.8
	c0,0-35.4,2.1-42.5,0c-7.1-2.1-17.6-1.3-21.7-18.6c0,0-1.4-3.8-0.8-15.2c0.6-11.4-0.1-51.8-0.1-51.8l-15.9,0.1V60.8l16,0.1
	L384.5,26.2z"/>
<path class="st0" d="M506.7,19.3h-44.2l-0.1,152.6h44.3v-64.1c0,0,1.6-15.3,16.6-15.1s15.8,15,15.8,15v64.2h44.6v-71.3
	c0,0-0.6-18.8-9.8-29.7c0,0-10.3-12.6-27.1-12.8s-24.8-0.1-39.4,15.8L506.7,19.3z"/>
<path class="st1" d="M717.8,93.8l-32.5,27c0,0,1.1,11.5-5.8,17.3c-6.4,5.5-17.5,12.2-30.7-1.8l64-54c0,0-19.5-28.7-54-27.3
	c-34.5,1.3-55.3,33.3-55.3,33.3s-23.2,31.7,2.8,66.8s66.2,26,88,6.7C716.2,142.5,729.3,119.3,717.8,93.8z M630.3,100.5
	c4-8.7,17.8-21.6,33.6-7l-30.2,25.4C633.8,118.9,626.3,109.2,630.3,100.5z"/>
<path class="st0" d="M825.5,65c-2.1-1.1-4.4-2-6.6-2.7c-5.1-1.6-15.1-4.1-26.3-3.9c0,0-58.3-3.7-61.7,56c0,0-7.1,59.9,61.7,61.2
	s64.3-58.6,64.3-58.6S860.8,83.2,825.5,65z M793.8,145.9c-20.4,0.5-18.6-28.9-18.6-28.9c-0.8-30.1,18.6-28.7,18.6-28.7
	c21.9,0.7,18.7,32.2,18.7,32.2S814.2,145.4,793.8,145.9z"/>
<path class="st0" d="M909.3,61.8h-39.5v110.8h43.8V111c0,0-0.3-18,16-17.8S946,111,946,111v61.5h44.3v-72c0,0,0.3-25-17.8-36
	s-47-9.5-62.8,13.8L909.3,61.8z"/>
</svg>
