<?xml version="1.0" encoding="utf-8"?>
<!-- Generator: Adobe Illustrator 13.0.0, SVG Export Plug-In . SVG Version: 6.00 Build 14948)  -->
<!DOCTYPE svg PUBLIC "-//W3C//DTD SVG 1.1//EN" "http://www.w3.org/Graphics/SVG/1.1/DTD/svg11.dtd">
<svg version="1.1" id="Layer_1" xmlns="http://www.w3.org/2000/svg" xmlns:xlink="http://www.w3.org/1999/xlink" x="0px" y="0px"
	 width="2786.863px" height="2006.917px" viewBox="0 0 2786.863 2006.917" enable-background="new 0 0 2786.863 2006.917"
	 xml:space="preserve">
<g>
	<path fill="#436A86" d="M790.945,150.981c2.367-2.3,8.974-0.358,12.999-1c0,0.333,0,0.667,0,1
		C799.611,150.981,795.278,150.981,790.945,150.981z"/>
	<path fill="#2C373F" d="M803.943,150.981c0-0.333,0-0.667,0-1c7.333,0,14.665,0,21.997,0c0,0.333,0,0.667,0,1
		C818.608,150.981,811.276,150.981,803.943,150.981z"/>
	<path fill="#436A86" d="M825.94,150.981c0-0.333,0-0.667,0-1c4.333,0,8.666,0,12.999,0c0,0.333,0,0.667,0,1
		C834.606,150.981,830.273,150.981,825.94,150.981z"/>
	<path fill="#B0C0CC" d="M838.939,150.981c0-0.333,0-0.667,0-1c3.039,0.627,8.611-1.28,9.999,1c-1.333,0-2.667,0-4,0
		C842.938,150.981,840.939,150.981,838.939,150.981z"/>
	<path fill="#2C373F" d="M803.943,178.978c5.02-1.664,16.978-1.664,21.997,0C818.608,178.978,811.276,178.978,803.943,178.978z"/>
	<path fill="#2C373F" d="M1429.865,425.947c4.333,0,8.665,0,12.998,0c0,0.333,0,0.667,0,1
		C1438.839,426.305,1432.23,428.247,1429.865,425.947z"/>
	<path fill="#436A86" d="M1442.863,426.947c0-0.333,0-0.667,0-1c5,0,9.999,0,14.998,0c0,0.333,0,0.667,0,1
		C1452.862,426.947,1447.863,426.947,1442.863,426.947z"/>
	<path fill="#B0C0CC" d="M1457.861,426.947c0-0.333,0-0.667,0-1c8.999,0,17.998,0,26.996,0c0,0.333,0,0.667,0,1
		C1475.859,426.947,1466.86,426.947,1457.861,426.947z"/>
	<path fill="#436A86" d="M1484.858,426.947c0-0.333,0-0.667,0-1c4.999,0,9.999,0,14.998,0c0,0.333,0,0.667,0,1
		C1494.857,426.947,1489.857,426.947,1484.858,426.947z"/>
	<path fill="#2C373F" d="M1499.855,426.947c0-0.333,0-0.667,0-1c4.334,0,8.666,0,12.998,0
		C1510.488,428.247,1503.881,426.305,1499.855,426.947z"/>
	<path fill="#436A86" d="M1453.862,454.943c11.665,0,23.33,0,34.995,0C1479.518,456.608,1463.203,456.608,1453.862,454.943z"/>
	<path fill="#0095FF" d="M1800.818,464.942c7.434,27.896,11.486,59.17,16.998,88.988c-15.343,5.322-30.016,11.314-46.994,14.998
		c-5.461-29.201-10.793-58.53-15.998-87.989C1769.887,475.338,1786.694,471.482,1800.818,464.942z"/>
	<path fill="#B0C0CC" d="M1477.859,509.936c1.386-2.279,6.959-0.372,9.998-1C1486.472,511.216,1480.898,509.309,1477.859,509.936z"
		/>
	<path fill="#B0C0CC" d="M1439.864,510.936c6.01-2.321,16.323-0.341,23.997-1C1457.851,512.259,1447.537,510.277,1439.864,510.936z"
		/>
	<path fill="#0095FF" d="M1617.842,512.936c5.826,6.062,4.608,15.498,5.999,22.997c9.755,52.605,21.525,111.063,29.996,165.979
		c-16.324,3.673-34.692,5.302-51.993,7.999c-10.46-63.864-22.511-126.138-33.996-188.977
		C1584.057,517.813,1602.02,516.445,1617.842,512.936z"/>
	<path fill="#B0C0CC" d="M1473.859,527.934c2.037-2.295,8.304-0.361,11.999-1C1483.82,529.229,1477.555,527.296,1473.859,527.934z"
		/>
	<path fill="#B0C0CC" d="M1457.861,577.928c0.886,3.586-17.002,2.294-20.997,1C1443.54,578.271,1452.849,580.247,1457.861,577.928z"
		/>
	<path fill="#2C373F" d="M1079.909,674.916c9.008-1.665,24.988-1.665,33.996,0c-2.667,0-5.333,0-7.999,0c-6,0-11.999,0-17.998,0
		C1085.242,674.916,1082.575,674.916,1079.909,674.916z"/>
	<path fill="#B0C0CC" d="M1071.91,675.916c0-0.333,0-0.667,0-1c2.667,0,5.333,0,7.999,0c2.667,0,5.333,0,7.999,0
		C1084.552,677.226,1076.926,675.266,1071.91,675.916z"/>
	<path fill="#B0C0CC" d="M1105.906,674.916c2.666,0,5.333,0,7.999,0s5.333,0,7.999,0c0,0.333,0,0.667,0,1
		C1116.887,675.266,1109.261,677.226,1105.906,674.916z"/>
	<path fill="#B0C0CC" d="M1504.855,717.91c2.037-2.294,8.304-0.362,11.998-1C1514.816,719.205,1508.551,717.271,1504.855,717.91z"/>
	<path fill="#B0C0CC" d="M1498.855,735.908c3.025-2.309,10.313-0.354,14.998-1C1510.829,737.215,1503.542,735.26,1498.855,735.908z"
		/>
	<path fill="#2C373F" d="M1496.855,800.9c17.666,0,35.329,0,52.994,0C1534.515,802.566,1512.192,802.566,1496.855,800.9z"/>
	<path fill="#436A86" d="M1497.855,829.896c-3.365-0.634-9.286,1.288-10.998-1c3.666,0,7.332,0,10.998,0
		C1497.855,829.229,1497.855,829.563,1497.855,829.896z"/>
	<path fill="#B0C0CC" d="M1514.854,829.896c5.334,0,10.666,0,15.998,0C1527.817,831.558,1517.89,831.558,1514.854,829.896z"/>
	<path fill="#B0C0CC" d="M1108.905,933.883c0-0.333,0-0.667,0-1c4,0,7.999,0,11.999,0
		C1118.866,935.178,1112.6,933.245,1108.905,933.883z"/>
	<path fill="#B0C0CC" d="M1135.902,932.883c5,0,9.999,0,14.998,0c0,0.333,0,0.667,0,1
		C1146.215,933.236,1138.927,935.191,1135.902,932.883z"/>
	<path fill="#B0C0CC" d="M1038.914,1051.869c7.344-1.664,21.652-1.664,28.996,0
		C1058.245,1051.869,1048.58,1051.869,1038.914,1051.869z"/>
	<path fill="#2C373F" d="M1046.913,1063.867c2.378-1.66,11.621-1.66,13.998,0
		C1056.245,1063.867,1051.579,1063.867,1046.913,1063.867z"/>
	<path fill="#B0C0CC" d="M804.943,1072.867c12.002-2.33,28.326-0.336,41.994-1c0,0.332,0,0.666,0,1
		C832.94,1072.867,818.941,1072.867,804.943,1072.867z"/>
	<path fill="#436A86" d="M846.938,1072.867c0-0.334,0-0.668,0-1c8.334,0,16.665,0,24.997,0c0,0.332,0,0.666,0,1
		C863.604,1072.867,855.271,1072.867,846.938,1072.867z"/>
	<path fill="#2C373F" d="M871.935,1072.867c0-0.334,0-0.668,0-1c3.666,0,7.332,0,10.999,0
		C881.222,1074.154,875.301,1072.232,871.935,1072.867z"/>
	<path fill="#2C373F" d="M813.942,1083.865c15-2.33,34.327-0.336,50.992-1c0,0.334,0,0.666,0,1
		C847.938,1083.865,830.94,1083.865,813.942,1083.865z"/>
	<path fill="#436A86" d="M864.936,1083.865c0-0.334,0-0.666,0-1c4.667,0,9.333,0,13.999,0
		C876.239,1085.169,869.29,1083.22,864.936,1083.865z"/>
	<path d="M815.942,1121.859c58.699,3.768,62.136,96.994,2,104.986c-71.729,9.533-82.389-97.289-14.998-104.986
		C807.276,1121.859,811.609,1121.859,815.942,1121.859z M816.942,1220.847c59.958-7.938,46.966-109.824-20.998-91.988
		c-8.655,2.271-14.985,8.031-20.997,15C747.383,1175.796,771.568,1226.853,816.942,1220.847z"/>
	<path d="M836.939,1169.853c1.967,17.539-9.366,29.861-20.998,31.996c-47.283,8.68-42.413-71.287,5.999-52.992
		c-2.532,7.133-7.153,12.178-9.999,18.996c-0.852-0.184-0.943,0.393-1,1C817.618,1171.177,828.6,1169.195,836.939,1169.853z"/>
	<path fill="#436A86" d="M971.922,1185.851c-1.665-7.676-1.665-22.318,0-29.994C971.922,1165.853,971.922,1175.853,971.922,1185.851
		z"/>
	<path d="M971.922,1155.855c40.418,7.617,83.414,5.314,124.984,0c7.666,0,15.332,0,22.997,0
		c37.415,4.912,62.284,22.371,67.991,58.992c0,4.666,0,9.332,0,13.998c-3.8,28.863-20.129,45.197-38.994,58.992
		c13.842,4.49,25.593,11.068,35.995,18.998c2.914,3.752,6.247,7.084,9.999,9.998c9.248,12.084,16.508,26.154,17.998,45.994
		c0,6.334,0,12.666,0,18.998c-2.535,22.67-9.51,39.047-21.996,50.994c-29.197,27.938-81.32,22.848-131.983,16.998
		c-6.349-1.664-19.649-1.664-25.997,0c-21.279,0.385-36.38,6.945-54.993,9.998c-1.53-8.137-5.091-14.24-6-22.996
		c17-2.332,32.597-6.066,48.994-9c1,0,2,0,3,0c-0.667-79.322,1.333-161.313-1-238.969c-17.094-0.904-33.16-2.838-50.994-3
		C971.922,1175.853,971.922,1165.853,971.922,1155.855z M1094.907,1183.851c-13.857-0.189-25.057,2.275-36.996,4
		c-0.417,0.256-1.66-0.332-2,0c-5.534,5.422-2,32.148-2,44.994c0,19.424-0.771,35.127,1,46.994c8.666,0,17.331,0,25.997,0
		c3.039-0.627,8.611,1.281,9.999-1c37.919,1.553,74.939-29.619,63.991-68.99c-4.375-15.738-18.871-24.088-37.994-25.996
		C1111.885,1182.187,1099.926,1182.187,1094.907,1183.851z M1054.912,1307.837c-1.784,24.271-1,62.262-1,91.988
		c0,9.336-2.943,28.617,5,26.996c18.489,1.508,35.744,4.25,54.993,5c3.035,1.66,12.963,1.66,15.998,0
		c54.923,0.076,66.719-82.51,28.996-108.986C1134.123,1305.443,1093.32,1307.333,1054.912,1307.837z"/>
	<path fill="#2C373F" d="M811.942,1167.853c6.015,2.984,18.981-0.982,24.997,2c-8.34-0.658-19.322,1.324-25.997-1
		C810.999,1168.244,811.092,1167.669,811.942,1167.853z"/>
	<path fill="#2C373F" d="M1254.887,1215.847c25.998-1.666,58.991-1.666,84.989,0
		C1311.546,1215.847,1283.217,1215.847,1254.887,1215.847z"/>
	<path fill="#B0C0CC" d="M1469.86,1215.847c0-0.332,0-0.666,0-1c1.663,5.354,1.663,17.646,0,22.998c0-0.334,0-0.666,0-1
		C1469.86,1229.845,1469.86,1222.847,1469.86,1215.847z"/>
	<path d="M1254.887,1215.847c28.33,0,56.659,0,84.989,0c0,7,0,13.998,0,20.998c-8.803,1.109-31.64-2.342-31.996,2
		c17.364,30.297,36.471,58.852,53.993,88.988c19.456-28.537,37.26-58.729,54.994-88.988c0.851,0.186,0.941-0.391,0.999-1
		c-8.671-2.326-21.659-0.338-31.996-1c0-7,0-13.998,0-20.998c27.997,0,55.993,0,83.99,0c0,7,0,13.998,0,20.998
		c-8.007,0.66-18.654-1.322-24.997,1c-22.917,37.408-46.524,74.127-68.991,111.986c-2.333,25.33-0.334,54.992-1,81.99
		c15.333,2.33,34.994,0.334,51.993,0.998c0,7.334,0,14.666,0,21.998c-42.994,0-85.989,0-128.983,0c0-7.332,0-14.664,0-21.998
		c17-0.664,36.66,1.332,51.993-0.998c-3.639-29.061,4.94-55.129,0-79.99c-1.735-8.738-11.086-19.447-16.998-28.996
		c-17.59-28.416-35.251-56.713-51.994-83.99c-0.189-0.811-1.003-0.996-1-2c-8.332,0-16.665,0-24.996,0
		C1254.887,1229.845,1254.887,1222.847,1254.887,1215.847z"/>
	<path fill="#2C373F" d="M1339.876,1236.845c-8.342,2.99-23.654-0.99-31.996,2
		C1308.236,1234.503,1331.073,1237.955,1339.876,1236.845z"/>
	<path fill="#2C373F" d="M1444.863,1237.845c6.343-2.322,16.99-0.34,24.997-1c0,0.334,0,0.666,0,1
		C1461.527,1237.845,1453.195,1237.845,1444.863,1237.845z"/>
	<path fill="#B0C0CC" d="M1497.855,1274.841c0,0.332,0,0.666,0,1c0,20.664,0,41.328,0,61.992c0,0.332,0,0.666,0,1
		C1496.189,1319.832,1496.189,1293.841,1497.855,1274.841z"/>
	<path fill="#2C373F" d="M1497.855,1275.841c0-0.334,0-0.668,0-1c49.327,0.666,101.32-1.334,148.981,1
		C1597.177,1275.841,1547.518,1275.841,1497.855,1275.841z"/>
	<path d="M1497.855,1275.841c49.661,0,99.32,0,148.981,0c0,20.664,0,41.328,0,61.992c-5.999,0-11.998,0-17.998,0
		c-0.662-11.004,1.328-24.658-0.999-33.996c-0.131-6.869-2.895-11.105-9.999-11c-9.674-1.664-26.322-1.664-35.996,0
		c0,48.328,0,96.656,0,144.982c11.003,2.328,26.327,0.336,38.995,1c0,5.332,0,10.664,0,15.998c-32.329,0-64.658,0-96.987,0
		c0-5.334,0-10.666,0-15.998c12.998,0,25.997,0,38.995,0c1.663-46.666,1.669-100.316,0-146.98
		c-11.669,0.662-25.992-1.33-35.996,0.998c-7.767,0.232-10.555,5.443-9.998,14c-2.327,8.338-0.338,20.992-1,30.996
		c-5.999,0-11.999,0-17.998,0C1497.855,1317.169,1497.855,1296.505,1497.855,1275.841z"/>
	<path fill="#436A86" d="M1646.838,1275.841c1.666,18.334,1.666,43.658,0,61.992
		C1646.838,1317.169,1646.838,1296.505,1646.838,1275.841z"/>
	<path fill="#B0C0CC" d="M1054.912,1279.839c0-0.332,0-0.666,0-1c8.666,0,17.331,0,25.997,0c0,0.334,0,0.668,0,1
		C1072.243,1279.839,1063.578,1279.839,1054.912,1279.839z"/>
	<path fill="#B0C0CC" d="M1672.835,1304.837c0,0.332,0,0.666,0,1c0,4.332,0,8.664,0,12.998c0,0.334,0,0.666,0,1
		C1671.174,1317.128,1671.174,1307.542,1672.835,1304.837z"/>
	<path d="M1672.835,1305.837c39.328,0,78.656,0,117.985,0c0,14.33,0,28.662,0,42.994c-5,0-9.999,0-14.998,0
		c-0.777-12.223,3.794-29.791-9.999-28.996c-15.667-2.332-35.661-0.336-52.993-1c0,15.998,0,31.996,0,47.994
		c11.665,0,23.33,0,34.995,0c0-7,0-13.998,0-20.998c5,0,9.999,0,14.998,0c0,19.332,0,38.662,0,57.992c-4.999,0-9.998,0-14.998,0
		c0-7.664,0-15.33,0-22.996c-9.341-1.666-25.655-1.666-34.995,0c0,19.998,0,39.994,0,59.992c14.669,1.666,36.324,1.666,50.993,0
		c10.544,0.879,16.366-2.963,15.998-12.998c2.318-5.014,0.344-14.322,1-20.998c4.999,0,9.999,0,14.998,0c0,15.998,0,31.996,0,47.994
		c-40.995,0-81.99,0-122.984,0c0-4.332,0-8.666,0-12.998c8.006-0.66,18.654,1.322,24.997-1c0-40.328,0-80.656,0-120.984
		c-6.343-2.324-16.991-0.342-24.997-1C1672.835,1314.501,1672.835,1310.169,1672.835,1305.837z"/>
	<path fill="#436A86" d="M1672.835,1319.835c0-0.334,0-0.666,0-1c8.006,0.658,18.654-1.324,24.997,1c-0.334,0-0.667,0-1,0
		C1688.833,1319.835,1680.834,1319.835,1672.835,1319.835z"/>
	<path fill="#B0C0CC" d="M1696.832,1319.835c0.333,0,0.666,0,1,0c0,40.328,0,80.656,0,120.984c-0.334,0-0.667,0-1,0
		C1696.832,1400.492,1696.832,1360.164,1696.832,1319.835z"/>
	<path d="M1877.811,1445.82c15.555,1.361,28.606-17.207,18.996-32.996c-13.422-22.053-69.729-10.738-60.991-54.994
		c4.161-21.084,35.829-31.607,60.991-19.996c2.354-0.98,0.896-5.771,3-7c3.891,0.443,7.909,0.756,10.998,2
		c-1.207,10.781-3.965,26.092,0,35.996c-1.958,2.707-8.512,0.818-10.998,2.998c-2.146-7.598-0.688-11.6-3-16.998
		c-10.492-24.504-65.151-6.037-44.994,20.998c9.027,12.107,42.825,12.182,54.993,27.996c16.901,21.967,0.526,50.596-26.997,52.994
		c-4.998,0-9.998,0-14.998,0c-7.004-0.994-12.797-3.201-17.996-6c-3.778-0.445-1.442,5.225-4,6c-4.258,0.59-6.613-0.721-9.999-1
		c-0.407-7.072,1.779-11.553,1-18.998c1.654-1.078,1.654-8.922,0-9.998c0.781-4.449-1.331-6-1-9.998
		c4.771,0.77,6.436-1.564,10.999-1c1.498,16.498,5.806,30.188,23.996,29.994C1868.889,1447.474,1876.73,1447.474,1877.811,1445.82z"
		/>
	<path fill="#2C373F" d="M1646.838,1337.833c-3.695,1.662-14.303,1.662-17.998,0
		C1634.84,1337.833,1640.839,1337.833,1646.838,1337.833z"/>
	<path fill="#2C373F" d="M701.956,1365.83c1.774-2.668,0.729,5.857,1,7.998C701.182,1376.496,702.229,1367.97,701.956,1365.83z"/>
	<path fill="#2C373F" d="M1712.83,1380.828c9.34-1.666,25.654-1.666,34.995,0c-0.333,0-0.666,0-1,0c-10.998,0-21.997,0-32.996,0
		C1713.496,1380.828,1713.163,1380.828,1712.83,1380.828z"/>
	<path fill="#436A86" d="M1712.83,1380.828c0.333,0,0.666,0,0.999,0c0,19.998,0,39.994,0,59.992c-0.333,0-0.666,0-0.999,0
		C1712.83,1420.822,1712.83,1400.826,1712.83,1380.828z"/>
	<path fill="#436A86" d="M1746.825,1380.828c0.334,0,0.667,0,1,0c0,7.666,0,15.332,0,22.996c-0.333,0-0.666,0-1,0
		C1746.825,1396.16,1746.825,1388.494,1746.825,1380.828z"/>
	<path fill="#2C373F" d="M699.957,1390.826c1.773-2.668,0.729,5.857,1,8C699.182,1401.492,700.229,1392.966,699.957,1390.826z"/>
	<path fill="#2C373F" d="M1581.846,1437.82c12.999,0,25.997,0,38.995,0c0,0.334,0,0.666,0,1
		C1608.173,1438.156,1592.849,1440.15,1581.846,1437.82z"/>
	<path fill="#B0C0CC" d="M1620.841,1438.82c0-0.334,0-0.666,0-1c1.663,3.695,1.663,14.303,0,17.998c0-0.334,0-0.666,0-1
		C1620.841,1449.486,1620.841,1444.152,1620.841,1438.82z"/>
	<path fill="#B0C0CC" d="M1672.835,1440.82c0,0.334,0,0.666,0,1c0,4.332,0,8.666,0,12.998c0,0.334,0,0.666,0,1
		C1671.174,1453.113,1671.174,1443.525,1672.835,1440.82z"/>
	<path fill="#2C373F" d="M1672.835,1441.82c0-0.334,0-0.666,0-1c7.999,0,15.998,0,23.997,0c0.333,0,0.666,0,1,0
		C1691.489,1443.142,1680.841,1441.16,1672.835,1441.82z"/>
	<path fill="#2C373F" d="M1712.83,1440.82c0.333,0,0.666,0,0.999,0c16.665,0,33.33,0,49.994,0
		C1749.154,1442.486,1727.499,1442.486,1712.83,1440.82z"/>
	<path fill="#2C373F" d="M1867.811,1445.82c3.334,0,6.666,0,10,0C1876.73,1447.474,1868.889,1447.474,1867.811,1445.82z"/>
	<path fill="#2C373F" d="M2401.743,1449.818c0,4,0,8,0,12c-0.332,0-0.666,0-1,0
		C2401.382,1458.123,2399.449,1451.855,2401.743,1449.818z"/>
	<path fill="#436A86" d="M1523.854,1454.818c32.329,0,64.658,0,96.987,0c0,0.334,0,0.666,0,1
		C1588.845,1455.152,1554.184,1457.15,1523.854,1454.818z"/>
	<path fill="#436A86" d="M2390.745,1493.812c-1.666-10.672-1.666-28.322,0-38.994
		C2390.745,1467.816,2390.745,1480.814,2390.745,1493.812z"/>
	<path fill="#436A86" d="M2400.743,1461.818c0.334,0,0.668,0,1,0c0,8.664,0,17.33,0,25.994c-0.332,0-0.666,0-1,0
		C2400.743,1479.148,2400.743,1470.482,2400.743,1461.818z"/>
	<path fill="#2C373F" d="M705.956,1479.814c-1.661-2.705-1.661-12.293,0-14.998C705.956,1469.816,705.956,1474.814,705.956,1479.814
		z"/>
	<path fill="#2C373F" d="M2400.743,1487.812c0.334,0,0.668,0,1,0c0,3.668,0,7.334,0,11
		C2399.456,1497.101,2401.377,1491.181,2400.743,1487.812z"/>
	<path fill="#2C373F" d="M2079.784,1502.812c1.399-1.656,9.598-1.656,10.998,0
		C2087.116,1502.812,2083.45,1502.812,2079.784,1502.812z"/>
	<path fill="#436A86" d="M636.964,1503.812c6.342-2.322,16.991-0.34,24.997-1C659.511,1505.044,644.383,1503.22,636.964,1503.812z"
		/>
	<path fill="#2C373F" d="M634.964,1515.81c2.039-2.295,8.304-0.361,11.999-1c0,0.334,0,0.666,0,1
		C642.963,1515.81,638.964,1515.81,634.964,1515.81z"/>
	<path fill="#436A86" d="M646.963,1515.81c0-0.334,0-0.666,0-1c3.667,0,7.333,0,10.999,0c0,0.334,0,0.666,0,1
		C654.295,1515.81,650.629,1515.81,646.963,1515.81z"/>
	<path fill="#2C373F" d="M657.962,1515.81c0-0.334,0-0.666,0-1c5.348,0.652,13.312-1.313,16.998,1
		C669.293,1515.81,663.627,1515.81,657.962,1515.81z"/>
	<path fill="#B0C0CC" d="M1105.906,1764.779c0-0.332,0-0.666,0-1c4.023,0.643,10.632-1.301,12.998,1
		C1114.571,1764.779,1110.238,1764.779,1105.906,1764.779z"/>
	<path fill="#B0C0CC" d="M1204.893,1764.779c1.711-2.287,7.633-0.365,10.999-1c0,0.334,0,0.668,0,1
		C1212.226,1764.779,1208.561,1764.779,1204.893,1764.779z"/>
	<path fill="#2C373F" d="M1134.902,1764.779c18.665,0,37.328,0,55.992,0C1174.561,1766.445,1151.237,1766.445,1134.902,1764.779z"/>
	<path fill="#B0C0CC" d="M1107.905,1775.779c5,0,9.999,0,14.998,0c0,0.332,0,0.666,0,0.998
		C1118.218,1776.13,1110.931,1778.085,1107.905,1775.779z"/>
	<path fill="#436A86" d="M1122.903,1776.777c0-0.332,0-0.666,0-0.998c15.998,0,31.995,0,47.993,0c0,0.332,0,0.666,0,0.998
		C1154.899,1776.777,1138.901,1776.777,1122.903,1776.777z"/>
	<path fill="#B0C0CC" d="M1170.896,1776.777c0-0.332,0-0.666,0-0.998c5,0,10,0,14.998,0
		C1182.871,1778.085,1175.583,1776.13,1170.896,1776.777z"/>
	<path fill="#436A86" d="M1671.835,1781.777c-4.356,1.662-15.641,1.662-19.998,0
		C1658.503,1781.777,1665.169,1781.777,1671.835,1781.777z"/>
	<path fill="#436A86" d="M243.014,359.955c2.05-2.949,4.444-5.555,7.999-6.999c-3.041,2.292-5.002,5.663-7.999,7.999
		C243.014,360.622,243.014,360.288,243.014,359.955z"/>
	<path fill="#B0C0CC" d="M238.014,370.954c0.135-5.198,2.179-8.486,5-10.999c0,0.333,0,0.667,0,1c-0.138,1.862-0.658,3.342-2,3.999
		C238.37,365.31,240.109,370.049,238.014,370.954z"/>
	<path fill="#B0C0CC" d="M678.959,1499.812c0.319,2.318-0.161,3.84-1,5c-6.333,1-9.108-1.557-10.999-5
		c2.767,2.234,4.796,5.203,10.999,4C678.042,1502.228,677.479,1499.998,678.959,1499.812z"/>
	<path fill="#2C373F" d="M2111.78,1509.812c3.751,2.914,7.084,6.246,9.998,9.998
		C2118.027,1516.896,2114.694,1513.562,2111.78,1509.812z"/>
	<path fill="#436A86" d="M1030.915,958.88c5.249-6.083,10.915-11.749,16.998-16.998
		C1042.664,947.965,1036.999,953.631,1030.915,958.88z"/>
	<path fill="#B0C0CC" d="M1015.917,973.878c4.582-5.417,9.581-10.417,14.998-14.999
		C1026.333,964.297,1021.334,969.296,1015.917,973.878z"/>
	<path fill="#B0C0CC" d="M649.963,1196.851c5.083-3.584,8.242-9.09,13.998-12c-4.621,4.379-9.167,8.832-13.998,13
		C649.963,1197.517,649.963,1197.183,649.963,1196.851z"/>
	<path fill="#B0C0CC" d="M2130.777,590.926c4.582-5.417,9.581-10.417,14.998-14.999
		C2141.193,581.345,2136.194,586.344,2130.777,590.926z"/>
	<path fill="#B0C0CC" d="M2154.773,566.929c4.744-6.255,11.254-10.744,15.998-16.998c0.334,0,0.668,0,1,0
		C2166.523,556.015,2160.857,561.681,2154.773,566.929z"/>
	<path fill="#436A86" d="M2170.771,549.931c3.99-4.342,7.022-9.642,11.998-12.999c-3.521,4.479-7.373,8.625-10.998,12.999
		C2171.439,549.931,2171.105,549.931,2170.771,549.931z"/>
	<path fill="#B0C0CC" d="M2071.785,245.969c5.613-1.927,11.617,4.364,11.998,10.999c-0.333,0-0.667,0-1,0
		C2080.778,251.641,2077.112,247.975,2071.785,245.969z"/>
	<path fill="#2C373F" d="M2182.771,536.933c3.299-3.7,5.687-8.312,9.998-10.999C2189.313,529.477,2187.005,534.167,2182.771,536.933
		z"/>
	<path fill="#2C373F" d="M2116.779,602.925c18.248-17.415,35.645-35.68,53.992-52.994c-4.743,6.254-11.254,10.743-15.998,16.998
		c-2.58,3.418-5.58,6.418-8.998,8.999c-5.418,4.582-10.416,9.582-14.998,14.999C2126.034,594.849,2121.521,599.002,2116.779,602.925
		z"/>
	<path fill="#2C373F" d="M531.979,908.886c6.544-7.454,14.027-13.969,21.996-19.998C547.068,895.98,539.39,902.301,531.979,908.886z
		"/>
	<path fill="#2C373F" d="M649.963,1196.851c0,0.332,0,0.666,0,1c-2.063,3.604-5.937,5.396-7.999,8.998
		c-1.41-3.441,7.536-5.104,6.999-10.998C649.813,1195.666,649.906,1196.24,649.963,1196.851z"/>
	<path d="M784.946,150.981c2,0,4,0,5.999,0c4.333,0,8.666,0,12.999,0c7.333,0,14.665,0,21.997,0c4.333,0,8.666,0,12.999,0
		c2,0,4,0,6,0c3.024,2.308,10.313,0.353,14.998,1c1,0,2,0,3,0c1.711,2.288,7.632,0.367,10.999,1
		c133.984,11.316,245.552,60.03,336.957,120.985c11.338,7.56,31.071,19.138,36.995,27.997c4.93,7.371,6.513,18.092,9.999,26.997
		c10.211,26.075,20.857,50.95,30.996,77.99c32.518,9.478,69.385,14.604,108.986,16.998c1.387,2.279,6.96,0.373,9.999,1
		c1.333,0,2.666,0,3.999,0c2.695,2.304,9.644,0.354,13.998,1c1.334,0,2.667,0,4,0c2.366,2.3,8.974,0.357,12.998,1
		c5,0,9.999,0,14.998,0c8.999,0,17.998,0,26.997,0c4.999,0,9.999,0,14.998,0c4.023-0.643,10.632,1.3,12.998-1c1.667,0,3.333,0,5,0
		c4.354-0.646,11.303,1.304,13.998-1c1.333,0,2.666,0,3.999,0c3.365-0.633,9.288,1.289,10.999-1
		c203.513-17.249,358.542-79.768,495.938-163.979c8.982-5.506,17.583-13.818,28.997-13.999c5.327,2.005,8.993,5.672,10.998,10.999
		c-5.02,21.28-17.148,39.511-26.996,57.993c-29.408,55.197-57.252,111.415-86.988,167.979
		c85.537-11.451,169.551-24.425,253.968-36.995c5.225-0.227,9.981,0.017,13.999,1c1.24,2.091,2.906,3.758,4.999,4.999
		c0.679,3.653,1.395,7.271,1,11.999c-15.466,21.862-33.376,41.281-49.994,61.991c-4.313,2.688-6.7,7.298-9.999,10.999
		c-4.977,3.356-8.008,8.657-11.998,12.999c-18.35,17.314-35.745,35.579-53.993,52.994
		c-132.093,116.548-292.657,204.604-521.935,223.973c-3.366,0.633-9.287-1.288-10.999,1c-1.333,0-2.666,0-3.999,0
		c-4.687,0.646-11.975-1.309-14.998,1c-2,0-4,0-6,0c-20.33,0-40.661,0-60.992,0c-3.666,0-7.332,0-10.998,0c-1.667,0-3.333,0-5,0
		c-3.355-2.312-10.98-0.352-15.998-1c-1,0-1.999,0-2.999,0c-2.038-2.294-8.304-0.362-11.999-1c-1,0-2,0-2.999,0
		c-1.387-2.28-6.96-0.373-9.999-1c-55.768-5.013-109.989-14.885-160.98-27.996c-15.281-3.931-36.845-7.007-46.993-14.998
		c-11.609-9.142-21.635-38.155-28.997-51.994c-9.822-18.463-17.314-36.346-26.997-52.994c-7.298,0.299-12.229-1.77-19.998-1
		c-1.711-2.289-7.632-0.367-10.999-1c-1.333,0-2.666,0-4,0c-3.688-2.313-11.65-0.349-16.998-1c-2.667,0-5.333,0-7.999,0
		c-9.008-1.665-24.988-1.665-33.996,0c-2.666,0-5.333,0-7.999,0c-5.348,0.651-13.311-1.313-16.998,1c-1.333,0-2.667,0-4,0
		c-3.366,0.633-9.288-1.289-10.999,1c-213.241,19.395-359.63,105.65-485.938,211.973c-7.97,6.029-15.453,12.543-21.997,19.998
		c-12.282,5.827,2.896,29.014,8.999,42.995c35.019,80.247,73.838,167.215,107.986,243.969c0.537,5.896-8.409,7.557-6.999,10.998
		c2.063-3.602,5.937-5.395,7.999-8.998c4.832-4.166,9.377-8.619,13.998-12.998c16.467-18.486,39.504-24.561,54.993-43.994
		c15.327-19.23,19.211-47.836,41.995-59.992c12.102-6.457,26.625-6.674,43.995-7.998c13.998,0,27.997,0,41.995,0
		c8.333,0,16.665,0,24.997,0c3.365-0.635,9.286,1.287,10.999-1c19.781,0.449,37.35-1.314,53.992-4
		c22.105-35.555,52.437-62.885,78.99-93.989c5.417-4.582,10.416-9.582,14.998-14.999c6.083-5.249,11.749-10.915,16.998-16.998
		c9.578-14.419,31.07-16.923,51.993-19.998c3.366-0.633,9.288,1.288,10.999-1c12.666,0,25.331,0,37.996,0
		c3.354,2.312,10.98,0.351,15.998,1c15.188,3.81,38.308-0.313,50.994,5.999c6.111,10.447-3.405,19.877-3,30.996
		c10.316-3.685,14.424-22.234,24.997-28.996c0.667,0,1.333,0,2,0c5.666,0,11.332,0,16.998,0
		c207.214,21.097,377.361,89.887,539.933,162.979c14.038,6.313,57.097,22.305,62.992,36.996c2.545,6.342,1.23,11.516,0,19.998
		c9.531,0.494,10.188-13.205,18.997-14.998c19.755-4.021,46.354,26.195,54.993,35.994c-4.95,11.381-14.52,18.145-19.997,28.996
		c8.834-0.488,19.062-18.953,28.995-19.998c8.358-0.877,26.528,10.834,36.996,16.998c12.729,7.498,23.574,13.881,32.995,19.998
		c43.728,28.396,92.55,58.254,108.986,113.986c10.512,0.363,25.828,4.012,39.995,3.998c5.684,1.664,18.313,1.664,23.997,0
		c75.568-4.313,128.647-39.105,179.978-69.99c51.637-31.07,101.441-63.063,149.981-98.988
		c-19.979,35.217-41.627,73.953-67.992,106.986c-8.93,11.189-19.774,19.223-28.996,29.996c5.509,4.604,14.886-5.469,16.998-1
		c-17.118,43.541-36.762,84.557-33.996,147.98c-2.294,2.039-0.36,8.305-1,12c0,8.664,0,17.33,0,25.996
		c0.634,3.367-1.287,9.287,1,10.998c-3.428,73.814,16.884,122.875,36.996,172.98c6.707,16.707,14.773,33.994,14.998,52.992
		c-18.979-1.01-34.534-12.447-48.993-21.996c-71.114-46.965-133.78-100.506-200.976-152.98
		c-26.244-20.496-56.26-41.953-93.988-44.996c-2.3,0.789,1.72,3.498,2,5c2.914,3.752,6.247,7.084,9.998,9.998
		c16.358,13.566,27.136,43.969,7.999,63.992c-8.281,8.668-28.419,18.633-42.994,26.998
		c-88.418,50.742-180.699,95.104-284.965,130.982c-17.41,5.992-37.594,14.318-53.992,14.998
		c-20.592,0.854-33.74-9.516-48.994-11.998c1.906,7.77,16.713,14.115,11.999,24.996c-4.721,10.896-25.88,6.834-38.995,12
		c-6.666,0-13.332,0-19.998,0c-76.576-8.414-139.947-30.031-195.976-58.994c-65.107,25.215-129.883,50.762-219.973,50.994
		c-3.366,0.633-9.287-1.287-10.999,1c-4.333,0-8.666,0-12.998,0c-5.017,0.648-12.643-1.311-15.998,1c-3.333,0-6.666,0-9.999,0
		c-4.999,0-9.999,0-14.998,0c-15.998,0-31.996,0-47.994,0c-4.999,0-9.999,0-14.998,0c-3.333,0-6.666,0-9.999,0
		c-3.025-2.309-10.313-0.354-14.998-1c-167.475-8.109-297.414-65.643-414.948-130.984c-17.877-9.938-36.928-20.615-56.992-33.994
		c-31.389-20.932-61.116-37.84-63.992-83.99c7.755-2.244,14.287-5.711,21.997-7.998c3.608-26.721,6.711-53.947,16.998-73.99
		c8.919,14.896,12.899,36.688,22.997,50.992c3.216,4.559,7.137,12.494,13.997,10.998c5.185-5.131,2.771-13.623,4-19.996
		c2.558-13.248,9.455-24.754,14-34.996c8.477,16.52,12.909,37.084,25.996,48.994c1.891,3.441,4.666,6,10.999,5
		c0.84-1.16,1.319-2.682,1-5c4.231-15.77,17.183-28.143,26.997-34.996c-1.66,2.707-1.66,12.293,0,14.998
		c-0.684,10.684,1.501,18.498,4,25.998c6.678,1.654,15.854,0.811,22.997,2c-16.488-45.172-40.251-91.732-58.993-137.982
		c-14.593,9.758-24.127,33.182-35.994,48.992c-1.599-6.734-4.45-12.215-4-20.996c0-5.666,0-11.332,0-16.998
		c-0.637-14.361,4.514-28.068,3-39.996c-16.65,5.979-26.549,21.574-35.996,34.996c-9.757,13.863-17.951,29.668-26.997,43.994
		c-2.325-7.34-0.339-18.99-1-27.996c0.411-26.252,5.851-47.477,16.998-62.992c-12.213-38.648,12.034-70.691,27.997-93.988
		c-6.097,2.779-6.07-6.904-6.999-8.998C486.955,946.551,361.47,660.577,239.014,378.953c-0.75-6.083,1.647-9.019,2-13.999
		c1.342-0.657,1.862-2.137,2-3.999c2.997-2.336,4.958-5.708,7.999-7.999c137.15-97.814,291.606-178.345,504.937-199.975
		c3.039-0.627,8.612,1.28,9.999-1c1.333,0,2.667,0,4,0C774.633,151.333,781.92,153.289,784.946,150.981z M803.943,178.978
		c-3.666,0-7.333,0-10.999,0c-5.349,0.651-13.313-1.313-16.998,1c-1.667,0-3.333,0-4.999,0c-3.04,0.627-8.613-1.28-9.999,1
		c-202.275,18.037-347.175,93.432-477.94,182.977c76.743,174.213,153.236,348.708,229.971,522.935c0.678,2.188,3.323-1.895,4-3
		c4-2.999,8.237-5.761,10.999-9.999c132.235-111.738,285.203-202.731,506.938-224.972c3.366-0.633,9.287,1.288,10.999-1c1,0,2,0,3,0
		c4.686-0.646,11.973,1.308,14.999-1c2,0,3.999,0,5.999,0c17.998,0,35.996,0,53.993,0c2,0,4,0,6,0
		c3.024,2.308,10.313,0.354,14.998,1c1,0,2,0,3,0c1.386,2.28,6.959,0.373,9.999,1c80.125,6.865,149.709,24.269,213.974,46.994
		c-48.237-126.743-98.657-251.297-146.981-377.953c-95.104-69.211-203.637-124.987-355.956-136.982c-1.386-2.28-6.959-0.373-9.999-1
		c-1.667,0-3.333,0-5,0c-3.355-2.311-10.981-0.351-15.998-1c-4,0-7.999,0-11.999,0C820.921,177.314,808.963,177.314,803.943,178.978
		z M1930.803,495.938c34.28-66.041,68.713-131.93,102.987-197.975c-20.744,10.586-40.437,22.223-60.993,32.996
		c-6.556,2.443-12.557,5.441-17.997,8.999c-115.936,55.706-244.882,98.41-402.95,111.986c-3.365,0.633-9.286-1.288-10.998,1
		c-1,0-2,0-3,0c-4.023,0.642-10.632-1.301-12.998,1c-1.666,0-3.332,0-5,0c-6.344,0.654-15.315-1.318-19.996,1
		c-3.666,0-7.332,0-10.999,0c-11.665,0-23.33,0-34.995,0c-3.666,0-7.333,0-10.999,0c-4.35-2.317-12.985-0.347-18.997-1
		c-1.667,0-3.333,0-5,0c-2.038-2.295-8.304-0.362-11.998-1c-1.333,0-2.666,0-4,0c-1.386-2.28-6.959-0.373-9.999-1
		c-31.396-3.267-62.459-6.865-90.988-12.998c34.32,89,69.08,177.555,103.987,265.967c2.038,9.471-1.846,16.938-6.999,21.997
		c-37.711,15.616-78.865,27.789-114.986,44.994c49.802,11.856,100.982,22.335,158.98,25.997c1.387,2.279,6.96,0.373,9.999,1
		c1,0,2,0,3,0c2.037,2.295,8.303,0.361,11.998,1c1.667,0,3.333,0,4.999,0c3.355,2.311,10.981,0.35,15.998,1c2.667,0,5.333,0,7.999,0
		c15.336,1.666,37.657,1.666,52.994,0c2.332,0,4.666,0,6.998,0c5.349-0.651,13.312,1.313,16.997-1c1.334,0,2.667,0,4,0
		c3.694-0.639,9.96,1.295,11.998-1c1,0,2,0,3,0c3.039-0.627,8.612,1.279,9.999-1c213.489-19.145,364.471-100.809,487.938-209.975
		c9.386-7.278,18.183-15.146,25.997-23.997c9.838-8.827,19.17-18.158,27.996-27.997c9.229-8.103,17.258-17.404,24.997-26.997
		c5.021-3.642,9.172-10.376,13.998-15.998c4.24-4.939,12.004-10.642,10.999-14.997c-57.629,8.464-126.7,19.082-187.977,27.995
		c-21.168,3.08-53.716,9.576-69.991,7C1933.131,508.941,1929.579,504.827,1930.803,495.938z M1210.893,683.915
		c0.114-0.269-0.143-0.748,0-1c-2.982,5.283,6.909,19.412,10.999,25.997c2.994,8.338,7.448,15.216,10.999,22.997
		c4.965,6.374,6.864,21.124,13.999,21.998c33.097-12.231,67.489-23.167,97.988-37.995
		C1302.398,703.061,1259.839,690.295,1210.893,683.915z M1098.907,933.883c-23.912-1.248-38.978,6.352-47.994,19.998
		c-4.417,3.581-8.417,7.581-11.999,11.999c-4.75,3.915-9.083,8.248-12.999,12.998c-0.677,2.323-3.323,2.677-4,5
		c-25.066,25.594-50.166,51.155-70.991,80.991c28.069-5.594,55.636-11.689,87.989-13c9.666,0,19.331,0,28.996,0
		c2.667,0,5.333,0,7.999,0c1.711,2.289,7.632,0.367,10.999,1c109.678,8.307,223.666,12.307,308.961,44.994
		c-100.244-12.74-196.432-29.541-305.961-32.994c-1.711-2.289-7.632-0.367-10.999-1c-6,0-11.999,0-17.998,0
		c-2.377-1.66-11.62-1.66-13.998,0c-25.079-0.875-51.875,3.613-73.991,7.998c-9.074,1.799-25.201,8.416-25.997,1
		c1.03,4.611-1.775,4.146-4,5c-15.97,6.119-43.634,1.939-63.992,4.998c-4.666,0-9.332,0-13.999,0
		c-16.666,0.666-35.993-1.33-50.993,1c-22.224-0.453-43.921,0.168-55.992,11c-16.703,14.984-20.368,41.637-35.996,57.992
		c-18.39,19.244-39.409,23.773-55.993,43.994c-6.083,5.248-11.749,10.914-16.998,16.998
		c-23.042,29.451-57.782,57.311-49.994,110.984c23.578,5.234,50.922,7.283,78.99,10c28.281,2.736,59.259,1.588,81.99,10.998
		c17.81,7.373,29.374,20.355,42.995,29.996c7.892,7.439,15.288,15.375,22.996,22.998c27.82,34.23,56.836,68.248,75.991,112.984
		c3.047,7.117,19.798,41.512,5.999,45.994c-6.181,2.01-22.229-3.873-29.996-6c-30.017-8.217-55.398-21.434-83.988-23.996
		c9.433,23.229,22.729,42.598,27.996,69.99c-11.241,6.758-24.75,11.246-36.995,16.998c-20.126-27.201-29.745-64.91-45.994-95.988
		c-10.875-1.123-21.667-2.328-33.996-1.998c-2.038-2.295-8.303-0.361-11.999-1c-5.999,0-11.998,0-17.998,0
		c-3.688-2.313-11.65-0.35-16.998-1c-3.667,0-7.333,0-10.999,0c-3.695,0.639-9.96-1.295-11.999,1
		c-28.677,1.984-52.08,9.246-75.99,15.998c2.882,38.73,32.259,52.805,59.993,70.99c18.628,12.217,37.142,22.449,53.993,31.996
		c109.475,62.018,236.73,118.123,387.951,127.984c2.038,2.295,8.304,0.361,11.999,1c5,0,9.999,0,14.998,0
		c4.018,2.313,12.317,0.346,17.998,1c4.333,0,8.666,0,12.998,0c5.333,0,10.666,0,15.998,0c16.335,1.666,39.657,1.666,55.993,0
		c4.666,0,9.332,0,13.998,0c3.667,0,7.333,0,10.999,0c4.685-0.648,11.973,1.307,14.998-1c88.14,2.43,158.64-28,225.971-52.994
		c170.144-63.158,339.396-126.135,511.937-186.977c34.184-12.055,72.038-30.652,106.986-32.996
		c46.818-3.139,83.534,15.488,111.986,34.996c88.582,60.732,158.793,137.385,254.968,186.977
		c-25.308-65.016-54.751-125.893-51.993-218.973c0-13,0-25.996,0-38.994c0-5.334,0-10.666,0-15.998c2.279-1.389,0.373-6.961,1-10
		c0.184-47.145,14.94-79.715,27.996-113.984c-11.197,2.133-25.669,0.994-36.995,2.998c40.972-30.02,77.511-69.803,98.987-115.984
		c-91.655,55.664-165.761,128.865-297.963,143.982c-6.666,0-13.332,0-19.997,0c-56.853-7.141-110.87-17.115-152.981-38.996
		c31.965,7.365,64.604,19.385,99.988,19.998c-19.433-48.113-60.097-73.434-100.986-99.988
		c-20.959-13.607-42.875-27.574-65.992-36.994c-19.623,13.373-37.165,28.826-64.992,33.994
		c14.336-17.326,31.039-32.285,43.995-50.992c-4.058-4.709-10.099-10.992-16.998-15.998c-3.29-2.387-15.831-12.506-21.997-12
		c-7.413,0.611-13.804,13.6-18.998,17.998c-8.827,7.477-31.495,24.693-37.995,19.998c-8.728-6.305,2.991-14.613,9.999-21.998
		c5.848-6.158,17.118-15.918,13.998-26.996c-1.742-6.188-20.742-14.115-30.996-18.998c-34.369-16.359-71.822-32.396-103.986-45.992
		c-141.89-59.98-291.188-115.471-473.94-128.985c-20.107,22.888-29.595,56.396-63.992,64.993
		c10.004-21.66,22.628-40.698,28.997-65.992c4.444-4.511-4.172-4.444-7.999-4c-3,0-6,0-8.999,0c-1.386-2.28-6.959-0.373-9.999-1
		c-4.333,0-8.666,0-12.999,0c-3.354-2.311-10.98-0.35-15.998-1c-5,0-9.999,0-14.998,0s-9.999,0-14.998,0c-4,0-7.999,0-11.999,0
		C1105.866,933.51,1100.293,931.604,1098.907,933.883z M622.966,1341.832c-5.024-3.648-23.278-2.711-30.996-6.998
		c-11.072,15.258-15.755,42.234-12.998,67.99c9.575-17.754,20.904-33.756,32.996-48.992
		C616.188,1350.386,619.212,1345.744,622.966,1341.832z M683.958,1345.832c-14.785,0.119-26.89-2.439-40.995-3
		c-2.441,18.357-7.145,44.666-2,63.992C652.037,1383.89,671.895,1364.447,683.958,1345.832z M679.959,1359.83
		c3.898-2.928,12.215-11.564,11.999-11.998C688.059,1350.759,679.743,1359.396,679.959,1359.83z M702.956,1348.832
		c0.638,3.695-1.295,9.961,1,11.998c0-4.332,0-8.666,0-12.998C699.664,1345.839,698.071,1347.431,702.956,1348.832z
		 M727.953,1371.828c7.109-5.889,14.568-11.426,21.997-16.998c-12.47-3.193-26.74-4.588-40.995-5.998
		c0.12,13.117-2.229,23.768-2,36.996c-1.646,0.135-1.646,6.861,0,6.998C712.97,1384.841,721.435,1379.308,727.953,1371.828z
		 M796.944,1384.828c-10.953-6.898-24.938-27.584-39.995-26.998c-10.63,0.414-16.025,11.91-24.997,16.998
		c-4.926,3.408-8.073,8.592-12.999,11.998c-0.521,5.115,7.411-9.73,10.999-6.998c19.305,46.02,38.987,91.664,59.993,135.982
		c42.2,5.459,70.562,24.76,112.985,29.996c-17.446-58.879-51.042-101.605-86.988-141.982
		C810.026,1397.074,803.694,1390.742,796.944,1384.828z M702.956,1373.828c-0.271-2.141,0.774-10.666-1-7.998
		C702.229,1367.97,701.182,1376.496,702.956,1373.828z M700.956,1398.826c-0.271-2.143,0.774-10.668-1-8
		C700.229,1392.966,699.182,1401.492,700.956,1398.826z M700.956,1404.824c-0.156-1.178,0.172-2.838-1-3
		c0.547,1.453-1.168,5.168,1,5c1.936-4.084,9.553-7.75,8.999-10.998C707.375,1399.244,704.375,1402.244,700.956,1404.824z
		 M585.971,1454.818c-5.52,17.813-10.318,41.672-10.999,60.992c10.813-4.854,26.591-4.738,36.995-10
		C598.544,1493.572,593.578,1472.875,585.971,1454.818z M661.961,1502.812c-7.956-12.041-15.762-24.232-19.997-39.994
		c-8.792,8.871-9.846,25.482-11.999,40.994c2.333,0,4.666,0,6.999,0C644.383,1503.22,659.511,1505.044,661.961,1502.812z
		 M701.956,1504.812c1.177-0.156,2.838,0.172,3-1c-4.384-6.281-3.197-18.135-4.999-26.996c-7.647,6.684-15.486,13.178-15.998,26.996
		c1.667,0,3.333,0,5,0C691.324,1506.111,697.932,1504.169,701.956,1504.812z M2079.784,1502.812
		c-29,1.084-55.356,12.928-80.99,21.998c-178.571,63.186-353.622,129.162-529.935,194.977
		c55.732,21.924,108.674,46.641,182.978,49.992c4.357,1.662,15.642,1.662,19.998,0c11.294,0.629,19.165-2.166,27.996-3.998
		c-8.388-16.965-36.287-28.355-45.994-43.994c27.157,2.797,62.499,22.229,89.989,23.996c20.468,1.314,41.781-8.318,60.992-14.998
		c100.862-35.074,191.826-79.625,277.965-128.984c13.451-7.707,33.81-17.832,40.995-26.996
		c14.456-18.436,0.166-41.875-12.998-50.994c-6.433-6.564-12.075-13.922-18.998-19.998c-0.058-0.607-0.149-1.184-1-0.998
		C2089.382,1501.156,2081.186,1501.156,2079.784,1502.812z"/>
	<path fill="#2C373F" d="M516.979,883.89c3-4,7.456-6.542,11-9.999C525.217,878.128,520.98,880.891,516.979,883.89z"/>
	<path fill="#2C373F" d="M1954.8,339.958c5.44-3.558,11.441-6.556,17.997-8.999C1967.355,334.517,1961.355,337.515,1954.8,339.958z"
		/>
	<path fill="#2C373F" d="M1398.869,726.909c5.152-5.059,9.037-12.526,6.999-21.997
		C1410.11,712.428,1405.819,724.416,1398.869,726.909z"/>
	<path fill="#2C373F" d="M2090.782,587.926c8.466-8.197,17.266-16.063,25.997-23.997
		C2108.965,572.779,2100.168,580.646,2090.782,587.926z"/>
	<path fill="#436A86" d="M2116.779,563.93c8.915-9.749,18.247-19.082,27.996-27.997
		C2135.949,545.771,2126.617,555.104,2116.779,563.93z"/>
	<path fill="#2C373F" d="M2144.775,535.933c8.306-9.025,16.349-18.313,24.996-26.997
		C2162.033,518.528,2154.005,527.831,2144.775,535.933z"/>
	<path fill="#2C373F" d="M1930.803,495.938c-1.224,8.89,2.328,13.004,5.999,16.998
		C1930.809,511.915,1927.947,502.48,1930.803,495.938z"/>
	<path fill="#B0C0CC" d="M1679.834,546.932c4.779-18.75-6.881-51.497,1-65.991c0.151-0.28,1.729,0.214,1.999,0
		C1677.568,498.671,1683.45,527.55,1679.834,546.932z"/>
	<path fill="#2C373F" d="M1210.893,683.915c0.348,7.661,7.877,16.779,10.999,24.997c-4.089-6.584-13.98-20.713-10.999-25.997
		C1210.75,683.167,1211.007,683.646,1210.893,683.915z"/>
	<path fill="#2C373F" d="M1232.89,731.908c6.393,5.606,6.509,17.489,13.999,21.998
		C1239.754,753.032,1237.855,738.282,1232.89,731.908z"/>
	<path fill="#436A86" d="M1038.914,965.879c3.582-4.418,7.581-8.417,11.999-11.999
		C1047.331,958.298,1043.332,962.298,1038.914,965.879z"/>
	<path fill="#2C373F" d="M1025.916,978.877c3.915-4.75,8.248-9.083,12.999-12.998c-1.724,3.275-5.275,4.723-6.999,7.999
		C1029.283,974.913,1028.547,977.843,1025.916,978.877z"/>
	<path fill="#B0C0CC" d="M1021.916,983.877c0.677-2.323,3.323-2.677,4-5c2.632-1.034,3.368-3.965,6-4.999
		C1029,977.63,1025.668,980.963,1021.916,983.877z"/>
	<path fill="#2C373F" d="M648.963,1213.849c5.249-6.084,10.915-11.75,16.998-16.998
		C660.712,1202.933,655.046,1208.599,648.963,1213.849z"/>
	<path fill="#B0C0CC" d="M802.943,1375.828c8.861,6.471,16.527,14.135,22.997,22.998
		C818.232,1391.203,810.835,1383.267,802.943,1375.828z"/>
	<path fill="#436A86" d="M1022.916,1188.851c2.333,77.656,0.333,159.646,1,238.971c-1,0-2,0-3,0
		C1025.555,1352.312,1021.604,1268.207,1022.916,1188.851z"/>
	<path fill="#2C373F" d="M1184.896,1306.837c3.75,2.914,7.084,6.246,9.998,9.998
		C1191.143,1313.921,1187.811,1310.587,1184.896,1306.837z"/>
	<path fill="#2C373F" d="M1054.912,1279.839c-1.771-11.867-1-27.57-1-46.994c0-12.846-3.534-39.572,2-44.994
		c0.34-0.332,1.583,0.256,2,0c-5.121,4.748-3,30.604-3,44.994c0,17.436,0,33.855,0,45.994
		C1054.912,1279.173,1054.912,1279.507,1054.912,1279.839z"/>
	<path fill="#2C373F" d="M1254.887,1236.845c8.332,0,16.665,0,24.997,0c-0.003,1.004,0.811,1.189,1,2
		C1274.444,1235.953,1261.302,1239.763,1254.887,1236.845z"/>
	<path fill="#B0C0CC" d="M1297.882,1455.818c0.837-5.994-4.739-18.518-1-22.998c5.024-6.021,44.84,2.502,52.993-0.998
		c-15.333,2.328-34.994,0.334-51.993,0.998c0,7.334,0,14.666,0,21.998C1297.882,1455.152,1297.882,1455.484,1297.882,1455.818z"/>
	<path fill="#B0C0CC" d="M1375.872,1349.832c0,18.465,0,39.615,0,61.992c0,3.941-0.954,19.043,0,19.998c3.27,3.27,21.692,0,26.996,0
		c10.186,0,18.513-0.822,24.997,0.998c-0.333,0-0.666,0-1,0c-16.999-0.664-36.66,1.332-51.993-0.998
		C1375.538,1404.824,1373.54,1375.162,1375.872,1349.832z"/>
	<path fill="#2C373F" d="M1416.867,1238.845c-8.672-2.326-21.66-0.338-31.997-1c0-7.666,0-15.332,0-22.998c28.33,0,56.66,0,84.99,0
		c0,0.334,0,0.668,0,1c-27.997,0-55.993,0-83.99,0c0,7,0,13.998,0,20.998c10.336,0.662,23.325-1.326,31.996,1
		C1417.811,1238.455,1417.718,1239.029,1416.867,1238.845z"/>
	<path fill="#436A86" d="M1426.865,1432.82c0.334,0,0.667,0,1,0c-0.567,7.432,1.197,17.197-1,22.998c-42.994,0-85.989,0-128.983,0
		c0-0.334,0-0.666,0-1c42.995,0,85.989,0,128.983,0C1426.865,1447.486,1426.865,1440.154,1426.865,1432.82z"/>
	<path fill="#2C373F" d="M1562.849,1292.837c0-0.332,0-0.666,0-0.998c1.669,46.664,1.663,100.316,0,146.98
		c-12.998,0-25.997,0-38.995,0c10.671-2.328,25.66-0.338,37.995-1C1564.182,1391.492,1562.183,1340.832,1562.849,1292.837z"/>
	<path fill="#2C373F" d="M1516.854,1306.837c0,10.664,0,21.33,0,31.996c-6.332,0-12.664,0-18.998,0c0-0.334,0-0.668,0-1
		c6,0,12,0,17.998,0C1516.517,1327.83,1514.527,1315.175,1516.854,1306.837z"/>
	<path fill="#B0C0CC" d="M1762.823,1345.832c0-0.334,0-0.666,0-1c-2.853,4.764,6.771,52.076,1,58.992
		c-3.352,4.016-12.059,0.09-16.998,0c0.334,0,0.667,0,1,0c5,0,9.999,0,14.998,0
		C1762.823,1384.494,1762.823,1365.164,1762.823,1345.832z"/>
	<path fill="#436A86" d="M1765.823,1319.835c-17.331,0-34.662,0-51.994,0c0,15.33,0,30.662,0,45.994c10.999,0,21.998,0,32.996,0
		c-0.445-15.35-3.021-25.068,15.998-20.998c0,0.334,0,0.666,0,1c-4.999,0-9.998,0-14.998,0c0,7,0,13.998,0,20.998
		c-11.665,0-23.33,0-34.995,0c0-15.998,0-31.996,0-47.994C1730.162,1319.5,1750.156,1317.503,1765.823,1319.835z"/>
	<path fill="#2C373F" d="M1672.835,1305.837c0-0.334,0-0.668,0-1c39.661,0,79.323,0,118.984,0
		c-0.664,14.334,1.329,31.326-0.999,43.994c0-14.332,0-28.664,0-42.994C1751.491,1305.837,1712.163,1305.837,1672.835,1305.837z"/>
	<path fill="#436A86" d="M1780.821,1406.824c0-0.334,0-0.666,0-1c5.185,0.48,12.407-1.076,15.998,1
		c-0.644,16.021,1.3,34.629-1,48.994c-40.995,0-81.99,0-122.984,0c0-0.334,0-0.666,0-1c40.994,0,81.989,0,122.984,0
		c0-15.998,0-31.996,0-47.994C1790.82,1406.824,1785.82,1406.824,1780.821,1406.824z"/>
	<path fill="#2C373F" d="M1054.912,1307.837c0,25.049,0,58.984,0,89.988c0,9.693-2.634,27.779,4,28.996
		c-7.943,1.621-5-17.66-5-26.996C1053.912,1370.099,1053.128,1332.109,1054.912,1307.837z"/>
	<path fill="#B0C0CC" d="M611.967,1353.832c2.507-5.158,6.897-8.436,10.999-12C619.212,1345.744,616.188,1350.386,611.967,1353.832z
		"/>
	<path fill="#2C373F" d="M691.958,1347.832c0.216,0.434-8.1,9.07-11.999,11.998C679.743,1359.396,688.059,1350.759,691.958,1347.832
		z"/>
	<path fill="#2C373F" d="M703.956,1347.832c0,4.332,0,8.666,0,12.998c-2.295-2.037-0.362-8.303-1-11.998
		C698.071,1347.431,699.664,1345.839,703.956,1347.832z"/>
	<path fill="#436A86" d="M706.956,1385.828c0,1.666,0,3.332,0,4.998c7.456-5.875,12.843-13.82,20.998-18.998
		c-6.519,7.48-14.983,13.014-20.998,20.998C705.31,1392.689,705.31,1385.962,706.956,1385.828z"/>
	<path fill="#2C373F" d="M729.953,1379.828c-3.587-2.732-11.519,12.113-10.999,6.998c4.925-3.406,8.073-8.59,12.999-11.998
		C731.526,1376.736,729.096,1376.638,729.953,1379.828z"/>
	<path fill="#B0C0CC" d="M796.944,1384.828c6.75,5.914,13.082,12.246,18.998,18.996
		C809.192,1397.91,802.859,1391.576,796.944,1384.828z"/>
	<path fill="#2C373F" d="M709.955,1395.826c0.554,3.248-7.063,6.914-8.999,10.998c-2.168,0.168-0.453-3.547-1-5
		c1.171,0.162,0.843,1.822,1,3C704.375,1402.244,707.375,1399.244,709.955,1395.826z"/>
	<path fill="#B0C0CC" d="M2091.782,1503.812c6.923,6.076,12.565,13.432,18.998,19.998
		C2104.018,1517.574,2096.952,1511.64,2091.782,1503.812z"/>
	<path fill="#2C373F" d="M848.938,150.981c3.366,0.633,9.287-1.288,11,1c-4.687-0.647-11.974,1.308-14.998-1
		C846.271,150.981,847.604,150.981,848.938,150.981z"/>
	<path fill="#2C373F" d="M755.949,152.981c1.387-2.28,6.96-0.373,9.999-1C764.563,154.261,758.988,152.354,755.949,152.981z"/>
	<path fill="#2C373F" d="M862.936,151.981c3.366,0.633,9.287-1.288,10.999,1C870.568,152.348,864.646,154.269,862.936,151.981z"/>
	<path fill="#2C373F" d="M775.947,179.978c3.687-2.313,11.649-0.349,16.998-1C789.258,181.291,781.295,179.326,775.947,179.978z"/>
	<path fill="#2C373F" d="M760.949,180.978c1.386-2.28,6.959-0.373,9.999-1C769.561,182.257,763.988,180.35,760.949,180.978z"/>
	<path fill="#2C373F" d="M858.938,179.978c3.038,0.627,8.611-1.28,9.998,1C865.896,180.35,860.323,182.257,858.938,179.978z"/>
	<path fill="#0095FF" d="M868.935,180.978c152.318,11.996,260.853,67.771,355.956,136.982
		c48.325,126.656,98.744,251.21,146.982,377.953c-64.264-22.727-133.848-40.129-213.974-46.994c-1.387-2.28-6.959-0.373-9.999-1
		c-1,0-2,0-3,0c-3.025-2.308-10.313-0.353-14.998-1c-2,0-4,0-6,0c-15.668-1.666-38.325-1.666-53.993,0c-2,0-4,0-5.999,0
		c-4.687,0.647-11.974-1.308-14.999,1c-1,0-2,0-3,0c-3.366,0.633-9.287-1.288-10.999,1
		C813.178,671.158,660.21,762.152,527.975,873.891c-3.543,3.457-8,5.999-10.999,9.999c-0.677,1.105-3.323,5.188-4,3
		c-76.734-174.227-153.228-348.721-229.971-522.935c130.765-89.545,275.665-164.94,477.94-182.977c3.038-0.627,8.611,1.28,9.998-1
		c1.666,0,3.334,0,5,0c5.348-0.651,13.312,1.313,16.997-1c3.666,0,7.333,0,10.999,0c7.333,0,14.665,0,21.997,0c4,0,7.999,0,11.999,0
		c3.356,2.311,10.982,0.351,15.998,1c1.667,0,3.333,0,5,0C860.323,182.257,865.896,180.35,868.935,180.978z M858.938,268.966
		c-50.793,1.536-101.658,11.661-146.981,21.998c2.382,14.282,6.696,26.633,8.999,40.995c17.588-2.743,32.007-8.655,50.994-9.999
		c19.836,87.482,40.695,173.945,60.993,260.967c14.983-2.68,29.758-5.57,45.993-7c-20.32-87.333-41.578-173.727-60.992-261.967
		c16.061-2.938,35.972-2.024,50.994-6C864.863,295.702,863.008,281.226,858.938,268.966z M967.923,268.966
		c21.073,99.243,47.388,201.915,69.991,302.962c16.807,0.19,30.771,3.225,46.994,3.999c-9.004-44.655-22.245-90.407-29.996-132.982
		c24.509,2.487,46.941,7.051,68.991,11.999c-1.99-14.342-5.659-27.003-8.999-39.995c-22.7-5.296-47.444-8.549-70.991-12.999
		c-5.116-29.548-14.955-59.702-18.998-86.989c28.132,3.865,54.991,9.001,80.99,14.999c-2.639-14.027-6.918-26.411-8.999-40.995
		C1056.436,279.773,1013.727,272.823,967.923,268.966z M624.966,374.953c-4.756-20.123-7.055-51.644-31.996-41.995
		c-19.544,7.561-35.001,15.271-57.993,27.997c-18.656,10.326-44.666,22.958-49.993,36.995c-5.75,15.151,2.583,33.417,5.999,47.994
		c14.418,61.531,27.525,116.763,41.994,177.978c4.853,20.53,8.573,62.709,22.997,64.992c10.285,1.628,22.626-10.16,30.996-14.999
		c20.169-11.659,41.87-22.892,60.992-31.996c17.808-8.478,33.609-11.38,30.996-36.996c-2.631-25.797-15.32-54.648-18.998-79.99
		c-14.791,5.207-27.759,12.235-41.995,17.998c4.119,21.544,10.358,40.969,13.998,62.992c-18.388,7.294-35.831,20.803-52.993,25.997
		c-16.082-74.574-34.734-146.576-50.994-220.972c16.116-9.9,35.707-21.595,52.993-26.997c3.5,20.164,8.868,38.46,12.999,57.993
		c14.782-5.215,27.684-12.313,41.995-17.998C632.604,405.89,629.288,393.239,624.966,374.953z"/>
	<path fill="#436A86" d="M238.014,370.954c2.095-0.904,0.355-5.644,3-6c-0.353,4.98-2.75,7.916-2,13.999
		C236.759,378.208,238.623,373.344,238.014,370.954z"/>
	<path fill="#2C373F" d="M1397.869,423.947c3.039,0.627,8.612-1.28,9.999,1C1404.829,424.32,1399.256,426.227,1397.869,423.947z"/>
	<path fill="#2C373F" d="M1535.852,424.947c1.713-2.288,7.634-0.367,11-1C1545.14,426.235,1539.218,424.313,1535.852,424.947z"/>
	<path fill="#2C373F" d="M1411.867,424.947c4.354,0.645,11.303-1.305,13.998,1C1421.511,425.302,1414.563,427.251,1411.867,424.947z
		"/>
	<path fill="#2C373F" d="M1517.854,425.947c2.695-2.305,9.645-0.355,13.998-1C1529.157,427.251,1522.209,425.302,1517.854,425.947z"
		/>
	<path fill="#2C373F" d="M2222.766,445.944c2.793-1.748,12.51-1.877,14,1C2232.748,445.961,2227.99,445.719,2222.766,445.944z"/>
	<path fill="#2C373F" d="M1392.87,451.943c3.04,0.627,8.613-1.28,9.999,1C1399.829,452.316,1394.256,454.224,1392.87,451.943z"/>
	<path fill="#2C373F" d="M1540.852,452.943c1.712-2.288,7.633-0.367,10.998-1C1550.139,454.231,1544.218,452.31,1540.852,452.943z"
		/>
	<path fill="#2C373F" d="M1406.868,452.943c3.694,0.638,9.96-1.295,11.998,1C1415.172,453.305,1408.906,455.238,1406.868,452.943z"
		/>
	<path fill="#2C373F" d="M1524.854,453.943c2.366-2.301,8.975-0.358,12.998-1C1535.485,455.243,1528.878,453.301,1524.854,453.943z"
		/>
	<path fill="#2C373F" d="M2241.764,451.943c2.644,1.066,2.885,9.723,1,11.999C2243.158,459.214,2242.441,455.597,2241.764,451.943z"
		/>
	<path fill="#2C373F" d="M1499.855,454.943c4.682-2.318,13.653-0.346,19.997-1C1515.173,456.261,1506.2,454.288,1499.855,454.943z"
		/>
	<path fill="#0095FF" d="M1936.802,512.936c16.276,2.576,48.824-3.92,69.991-7c61.275-8.915,130.348-19.531,187.977-27.995
		c1.006,4.355-6.759,10.058-10.998,14.997c-4.826,5.622-8.979,12.356-13.998,15.998c-8.648,8.683-16.691,17.971-24.998,26.997
		c-9.748,8.915-19.08,18.248-27.996,27.997c-8.73,7.935-17.53,15.798-25.996,23.997
		c-123.47,109.167-274.449,190.831-487.938,209.975c-3.039,0.627-8.612-1.28-9.999,1c-1,0-2,0-3,0c-3.694,0.638-9.96-1.294-11.998,1
		c-1.333,0-2.666,0-4,0c-5.348,0.65-13.311-1.313-16.997,1c-2.333,0-4.666,0-6.999,0c-17.665,0-35.329,0-52.994,0
		c-2.666,0-5.332,0-7.999,0c-3.354-2.312-10.98-0.351-15.998-1c-1.666,0-3.332,0-4.999,0c-2.038-2.294-8.304-0.362-11.998-1
		c-1,0-2,0-3,0c-1.387-2.28-6.96-0.373-9.999-1c-57.998-3.662-109.178-14.141-158.979-25.997
		c36.121-17.206,77.273-29.378,114.985-44.994c6.95-2.494,11.241-14.481,6.999-21.997
		c-34.906-88.412-69.667-176.967-103.986-265.967c28.529,6.133,59.592,9.731,90.988,12.998c1.386,2.279,6.959,0.372,9.998,1
		c1.334,0,2.668,0,4,0c2.038,2.294,8.305,0.361,11.998,1c1.668,0,3.334,0,5,0c4.35,2.315,12.985,0.346,18.997,1
		c3.666,0,7.333,0,10.999,0c9.342,1.665,25.655,1.665,34.995,0c3.667,0,7.333,0,10.999,0c6.344-0.656,15.316,1.317,19.997-1
		c1.667,0,3.333,0,5,0c4.024-0.643,10.632,1.3,12.998-1c1,0,2,0,3,0c3.366-0.634,9.287,1.287,10.998-1
		c158.068-13.576,287.015-56.28,402.95-111.986c6.557-2.443,12.557-5.441,17.997-8.999c20.557-10.772,40.249-22.41,60.993-32.996
		c-34.275,66.045-68.707,131.935-102.987,197.975C1927.947,502.48,1930.809,511.915,1936.802,512.936z M1782.821,689.914
		c11.003,1.458,25.394-6.159,36.995-9.999c11.002-3.641,27.857-7.819,32.996-14.998c7.705-10.771,1.598-23.023-1-36.996
		c-8.389-45.117-15.496-86.259-23.997-131.982c-4.124-22.182-1.835-52.782-22.997-50.994c-9.947,0.841-22.12,6.736-34.996,10.999
		c-9.834,3.255-26.268,6.848-30.996,11.999c-8.417,9.17-2.504,26.885,0,40.995c1.72,9.686,3.277,19.639,5,28.995
		c3.224,17.517,5.82,49.229,16.997,51.994c10.081,2.495,22.237-5.167,30.996-7.999c11.219-3.627,19.63-6.09,29.997-8.999
		c4.026,27.968,10.48,53.511,13.998,81.99c-15.239,4.095-32.114,11.877-45.994,13.999c-2.434-15.565-5.823-30.173-7.999-45.995
		c-7.74,0.593-12.539,4.125-19.998,5C1768.873,649.834,1763.724,687.383,1782.821,689.914z M1679.834,546.932
		c0,2.333,0,4.666,0,6.999c3.364,0.632,7.289-3.286,8.999-1c9.28,51.714,18.973,103.013,27.996,154.981
		c8.309-0.023,13.009-3.656,20.997-4c-12.999-75.99-26.842-151.136-40.994-225.972c-5.014,0.651-9.449,1.883-13.999,3
		c-0.271,0.214-1.849-0.28-1.999,0C1672.953,495.435,1684.613,528.182,1679.834,546.932z M1617.842,493.938
		c-16.202,3.11-64.766,4.59-69.99,16.998c-2.436,5.78,0.248,18.553,2,27.997c9.223,49.744,15.748,88.233,24.995,137.983
		c2.693,14.485,5.662,44.759,15.998,49.994c12.74,6.452,30.167-0.878,43.995-3c13.881-2.13,33.729-1.407,38.995-12.999
		c4.636-10.207-3.032-36.868-6-52.993c-7.033-38.217-13.255-69.35-19.997-105.987c-4.145-22.519-1.19-58.464-27.996-57.992
		C1619.211,493.949,1618.46,493.819,1617.842,493.938z M1504.855,717.91c-6.666,0-13.332,0-19.997,0
		c8.553-36.827,32.585-89.202,40.995-132.983c2.813-14.651-2.355-27.735-5-42.995c-3.8-21.923-6.888-38.29-32.996-32.996
		c-3.039,0.628-8.612-1.279-9.998,1c-4.666,0-9.332,0-13.998,0c-7.674,0.659-17.987-1.321-23.997,1
		c-26.843,3.469-1.92,48.3-3,67.992c3.995,1.294,21.883,2.586,20.997-1c-1.617-17.38-6.125-31.87-7.999-48.994
		c7.574-0.757,15.313-1.35,23.997-1c3.694-0.638,9.961,1.294,11.998-1c3.675,0.325,8.853-0.853,10.998,1
		c-0.4,19.041,9.985,34.883,9,51.994c-0.655,11.366-8.166,25.563-11.998,37.995c-8.412,27.286-15.747,51.333-23.997,76.99
		c-4.135,12.855-10.68,26.654-7.999,40.995c12.332,0,24.662,0,36.994,0c4.687-0.648,11.974,1.307,14.998-1
		c14.731-0.268,30.297,0.3,41.995-3c-1.591-5.075-2.845-10.487-3-16.998c-12.35,0.314-23.435,1.895-35.995,2
		C1513.159,717.548,1506.895,715.616,1504.855,717.91z"/>
	<path fill="#2C373F" d="M1129.903,646.919c4.685,0.647,11.973-1.308,14.998,1C1140.215,647.271,1132.928,649.227,1129.903,646.919z
		"/>
	<path fill="#2C373F" d="M1034.915,648.919c1.711-2.288,7.632-0.367,10.999-1C1044.202,650.207,1038.281,648.286,1034.915,648.919z"
		/>
	<path fill="#2C373F" d="M1147.9,647.919c3.039,0.627,8.611-1.28,9.999,1C1154.86,648.292,1149.287,650.199,1147.9,647.919z"/>
	<path fill="#2C373F" d="M1054.912,675.916c3.687-2.313,11.65-0.349,16.998-1c0,0.333,0,0.667,0,1
		C1066.244,675.916,1060.578,675.916,1054.912,675.916z"/>
	<path fill="#2C373F" d="M1121.904,674.916c5.348,0.651,13.311-1.313,16.998,1c-5.666,0-11.332,0-16.998,0
		C1121.904,675.582,1121.904,675.249,1121.904,674.916z"/>
	<path fill="#2C373F" d="M1039.914,676.916c1.711-2.289,7.632-0.367,10.999-1C1049.201,678.204,1043.28,676.282,1039.914,676.916z"
		/>
	<path fill="#2C373F" d="M1142.901,675.916c3.365,0.633,9.288-1.289,10.999,1C1150.533,676.282,1144.612,678.204,1142.901,675.916z"
		/>
	<path fill="#436A86" d="M1210.893,683.915c48.946,6.38,91.506,19.146,133.983,31.996c-30.499,14.829-64.892,25.764-97.988,37.995
		c-7.489-4.508-7.606-16.391-13.999-21.998c-3.55-7.781-8.005-14.659-10.999-22.997
		C1218.77,700.693,1211.24,691.576,1210.893,683.915z"/>
	<path fill="#2C373F" d="M1442.863,797.9c3.039,0.627,8.611-1.28,9.999,1C1449.823,798.273,1444.25,800.18,1442.863,797.9z"/>
	<path fill="#2C373F" d="M1592.845,798.9c1.388-2.28,6.96-0.373,9.999-1C1601.457,800.18,1595.884,798.273,1592.845,798.9z"/>
	<path fill="#2C373F" d="M1455.862,798.9c3.693,0.638,9.96-1.294,11.998,1C1464.165,799.262,1457.9,801.195,1455.862,798.9z"/>
	<path fill="#2C373F" d="M1577.847,799.9c2.038-2.294,8.305-0.362,11.998-1C1587.807,801.195,1581.541,799.262,1577.847,799.9z"/>
	<path fill="#2C373F" d="M1472.859,799.9c5.017,0.649,12.643-1.312,15.998,1C1483.842,800.25,1476.216,802.21,1472.859,799.9z"/>
	<path fill="#2C373F" d="M1437.864,825.896c3.039,0.627,8.612-1.28,9.999,1C1444.824,826.27,1439.25,828.177,1437.864,825.896z"/>
	<path fill="#2C373F" d="M1450.862,826.896c3.694,0.638,9.961-1.295,11.999,1C1459.166,827.258,1452.9,829.191,1450.862,826.896z"/>
	<path fill="#2C373F" d="M1583.846,827.896c1.712-2.288,7.633-0.367,10.999-1C1593.133,829.185,1587.212,827.263,1583.846,827.896z"
		/>
	<path fill="#2C373F" d="M1564.849,828.896c3.024-2.309,10.313-0.354,14.998-1C1576.821,830.204,1569.533,828.249,1564.849,828.896z
		"/>
	<path fill="#2C373F" d="M1497.855,828.896c20.332,0,40.662,0,60.992,0c-7.34,2.324-18.99,0.339-27.996,1
		c-5.333,0-10.665,0-15.998,0c-5.666,0-11.332,0-16.998,0C1497.855,829.563,1497.855,829.229,1497.855,828.896z"/>
	<path fill="#2C373F" d="M1099.906,921.885c1.711-2.288,7.632-0.367,10.999-1C1109.194,923.173,1103.271,921.251,1099.906,921.885z"
		/>
	<path fill="#2C373F" d="M1148.9,920.885c5.016,0.65,12.642-1.311,15.998,1C1159.882,921.235,1152.256,923.195,1148.9,920.885z"/>
	<path fill="#436A86" d="M1098.907,933.883c1.386-2.28,6.959-0.373,9.999-1c0,0.333,0,0.667,0,1
		C1105.572,933.883,1102.239,933.883,1098.907,933.883z"/>
	<path fill="#436A86" d="M1150.9,932.883c5.017,0.65,12.643-1.311,15.998,1c-5.333,0-10.665,0-15.998,0
		C1150.9,933.55,1150.9,933.217,1150.9,932.883z"/>
	<path fill="#436A86" d="M1179.896,933.883c3.038,0.627,8.611-1.28,9.998,1C1186.855,934.256,1181.283,936.163,1179.896,933.883z"/>
	<path fill="#436A86" d="M1198.895,934.883c3.826-0.445,12.442-0.512,7.998,4c0-0.667,0-1.333,0-2
		C1206.449,933.994,1199.338,937.771,1198.895,934.883z"/>
	<path fill="#2C373F" d="M1075.909,1051.869c3.367,0.633,9.288-1.289,10.999,1
		C1083.542,1052.236,1077.621,1054.156,1075.909,1051.869z"/>
	<path fill="#436A86" d="M1078.909,1063.867c3.366,0.633,9.287-1.287,10.999,1
		C1086.542,1064.234,1080.62,1066.156,1078.909,1063.867z"/>
	<path fill="#2C373F" d="M802.943,1121.859c2.051-1.658,10.947-1.658,12.999,0C811.609,1121.859,807.276,1121.859,802.943,1121.859z
		"/>
	<path fill="#2C373F" d="M1187.896,1214.847c1.659,2.379,1.659,11.621,0,14C1187.896,1224.181,1187.896,1219.515,1187.896,1214.847z
		"/>
	<path fill="#436A86" d="M1080.909,1278.839c3.333,0,6.666,0,9.999,0c-1.387,2.281-6.96,0.373-9.999,1
		C1080.909,1279.507,1080.909,1279.173,1080.909,1278.839z"/>
	<path fill="#B0C0CC" d="M1526.854,1292.837c10.004-2.328,24.326-0.336,35.995-0.998c0,0.332,0,0.666,0,0.998
		C1550.85,1292.837,1538.852,1292.837,1526.854,1292.837z"/>
	<path fill="#B0C0CC" d="M1581.846,1292.837c9.674-1.664,26.322-1.664,35.996,0
		C1605.843,1292.837,1593.845,1292.837,1581.846,1292.837z"/>
	<path fill="#436A86" d="M2163.773,1345.832c6.664,0,13.33,0,19.996,0C2179.414,1347.496,2168.13,1347.496,2163.773,1345.832z"/>
	<path fill="#436A86" d="M633.965,1380.828c0,5.666,0,11.332,0,16.998C632.303,1394.46,632.303,1384.193,633.965,1380.828z"/>
	<path fill="#B0C0CC" d="M1780.821,1406.824c-0.656,6.676,1.318,15.984-1,20.998c0.657-7.01-1.32-16.652,1-21.998
		C1780.821,1406.158,1780.821,1406.49,1780.821,1406.824z"/>
	<path fill="#436A86" d="M1833.814,1426.822c1.654,1.078,1.654,8.92,0,9.998C1833.814,1433.488,1833.814,1430.154,1833.814,1426.822
		z"/>
	<path fill="#436A86" d="M2391.745,1428.822c-0.627,3.039,1.279,8.611-1,9.998
		C2391.372,1435.781,2389.465,1430.208,2391.745,1428.822z"/>
	<path fill="#2C373F" d="M1864.811,1456.818c5,0,10,0,14.998,0C1877.104,1458.478,1867.517,1458.478,1864.811,1456.818z"/>
	<path fill="#2C373F" d="M688.958,1503.812c4.024,0.643,10.632-1.301,12.998,1C697.932,1504.169,691.324,1506.111,688.958,1503.812z
		"/>
	<path fill="#436A86" d="M692.957,1515.81c3.695,0.639,9.96-1.295,11.999,1C701.261,1516.171,694.996,1518.105,692.957,1515.81z"/>
	<path fill="#436A86" d="M1060.911,1762.779c3.694,0.639,9.96-1.295,11.999,1
		C1069.215,1763.142,1062.949,1765.074,1060.911,1762.779z"/>
	<path fill="#436A86" d="M1215.892,1763.779c4.999,0,9.999,0,14.998,0c-3.024,2.309-10.313,0.354-14.998,1
		C1215.892,1764.447,1215.892,1764.113,1215.892,1763.779z"/>
	<path fill="#2C373F" d="M1651.837,1769.779c6.666,0,13.332,0,19.998,0C1667.479,1771.441,1656.194,1771.441,1651.837,1769.779z"/>
	<path fill="#2C373F" d="M1224.891,1774.779c1.711-2.289,7.633-0.367,10.999-1
		C1234.178,1776.066,1228.257,1774.144,1224.891,1774.779z"/>
	<path fill="#2C373F" d="M1082.909,1774.779c4.685,0.646,11.973-1.309,14.998,1
		C1093.222,1775.13,1085.934,1777.085,1082.909,1774.779z"/>
	<path fill="#2C373F" d="M1195.895,1775.779c3.355-2.313,10.981-0.352,15.998-1
		C1208.537,1777.089,1200.911,1775.128,1195.895,1775.779z"/>
	<g id="XMLID_1_">
		<g>
			<path fill="none" d="M815.941,1403.829c35.95,40.37,69.54,83.1,86.99,141.979c-42.42-5.239-70.79-24.54-112.99-30
				c-21-44.319-40.68-89.96-59.99-135.979c-0.86-3.19,1.57-3.09,2-5c8.97-5.09,14.37-16.58,25-17c15.06-0.58,29.04,20.1,39.99,27
				C802.862,1391.579,809.191,1397.909,815.941,1403.829z"/>
			<path fill="#FFFFFF" d="M2481.731,1201.848c-21.479,46.181-58.02,85.971-98.99,115.99c11.33-2.01,25.801-0.87,37-3
				c-13.06,34.271-27.819,66.84-28,113.98c-2.279,1.39-0.369,6.96-1,10c0,5.33,0,10.67,0,16c-1.659,10.67-1.659,28.319,0,38.989
				c-2.76,93.091,26.69,153.96,51.99,218.98c-96.17-49.6-166.38-126.25-254.96-186.98c-28.46-19.51-65.17-38.14-111.99-35
				c-34.949,2.351-72.8,20.94-106.989,33c-172.53,60.841-341.79,123.82-511.931,186.98c-67.33,24.99-137.84,55.42-225.97,52.99
				c-5,0-10,0-15,0c-3.37,0.63-9.29-1.29-11,1c-4.67,0-9.33,0-14,0c-18.66,0-37.33,0-55.99,0c-5.34,0-10.67,0-16,0
				c-2.37-2.301-8.97-0.36-13-1c-6,0-12,0-18,0c-5,0-10,0-14.99,0c-2.04-2.29-8.31-0.36-12-1
				c-151.22-9.86-278.48-65.971-387.95-127.98c-16.86-9.55-35.37-19.78-54-32c-27.73-18.189-57.11-32.26-59.99-70.99
				c23.91-6.75,47.31-14.01,75.99-16c4,0,8,0,12,0c3.67,0,7.33,0,11,0c5.66,0,11.33,0,17,0c6,0,12,0,17.99,0
				c2.04,2.301,8.31,0.36,12,1c12.33-0.33,23.12,0.881,34,2c16.25,31.08,25.87,68.79,45.99,95.99c12.25-5.75,25.76-10.24,37-17
				c-5.27-27.39-18.56-46.76-28-69.99c28.59,2.561,53.97,15.78,83.99,24c7.77,2.12,23.82,8.011,30,6c13.8-4.489-2.96-38.88-6-46
				c-19.16-44.729-48.17-78.75-75.99-112.979c-6.47-8.87-14.14-16.53-23-23c-13.62-9.64-25.18-22.62-43-30
				c-22.73-9.41-53.7-8.26-81.99-10.99c-28.06-2.72-55.41-4.77-78.98-10c-7.79-53.68,26.95-81.54,49.99-110.99
				c6.08-5.25,11.75-10.909,17-17c16.58-20.22,37.6-24.75,55.99-43.989c15.63-16.36,19.29-43.011,36-57.99
				c12.07-10.84,33.77-11.46,55.99-11c17,0,33.99,0,50.99,0c4.36-0.65,11.3,1.3,14-1c20.36-3.061,48.02,1.12,63.99-5
				c2.11-0.811,4.73-0.44,4.13-4.29c1.77,6.25,17.11,0.03,25.87-1.71c22.12-4.391,48.91-8.87,73.99-8c4.67,0,9.33,0,14,0
				c6,0,12,0,18,0c1.71,2.29,7.63,0.37,11,1c109.53,3.45,205.71,20.25,305.96,32.99c-85.3-32.681-199.291-36.681-308.96-44.99
				c-1.72-2.29-7.64-0.37-11-1c-2.67,0-5.34,0-8,0c-7.35-1.66-21.65-1.66-29,0c-32.35,1.31-59.92,7.41-87.99,13
				c20.83-29.84,45.93-55.4,70.99-80.99c3.76-2.91,7.09-6.25,10-10c1.73-3.27,5.28-4.72,7-8c4.42-3.58,8.42-7.58,12-12
				c9.02-13.64,24.08-21.24,47.99-20c3.34,0,6.67,0,10,0c3.7-0.63,9.96,1.3,12-1c5,0,10,0,15,0c3.03,2.31,10.31,0.36,15,1
				c5.33,0,10.66,0,16,0c4.33,0,8.66,0,13,0c1.38,2.28,6.96,0.38,9.99,1c3,0,6,0,9,0c0.45,2.89,7.56-0.88,8,2c0,0.67,0,1.34,0,2
				c-6.37,25.3-18.99,44.34-29,66c34.4-8.6,43.89-42.11,64-65c182.75,13.52,332.05,69.01,473.94,128.99
				c32.159,13.59,69.609,29.63,103.979,45.99c10.26,4.88,29.26,12.81,31,19c3.12,11.08-8.149,20.84-14,26.989
				c-7.01,7.391-18.729,15.7-10,22c6.5,4.7,29.17-12.52,38-20c5.19-4.39,11.58-17.38,19-17.989c6.16-0.511,18.7,9.609,21.99,12
				c6.899,5,12.939,11.29,17,15.989c-12.96,18.71-29.66,33.67-43.99,51c27.82-5.17,45.36-20.62,64.99-34
				c23.11,9.42,45.03,23.391,65.99,37c40.89,26.551,81.55,51.87,100.989,99.99c-35.39-0.62-68.029-12.64-99.989-20
				c42.109,21.88,96.13,31.851,152.979,38.99c4.36,1.67,15.641,1.67,20,0C2315.972,1330.718,2390.071,1257.508,2481.731,1201.848z
				 M1910.802,1368.829c-3.96-9.9-1.2-25.21,0-35.99c-3.09-1.25-7.101-1.56-10.99-2c-2.11,1.22-0.649,6.01-3,7
				c-25.17-11.62-56.84-1.09-61,19.99c-8.729,44.26,47.57,32.939,61,55c9.61,15.78-3.45,34.35-19,32.99c-3.34,0-6.67,0-10,0
				c-18.189,0.189-22.5-13.5-24-29.99c-4.56-0.57-6.229,1.76-11,1c-0.33,3.99,1.79,5.54,1,9.99c0,3.34,0,6.67,0,10
				c0.78,7.449-1.399,11.93-1,19c3.39,0.279,5.74,1.59,10,1c2.561-0.78,0.22-6.45,4-6c5.2,2.8,11,5.01,18,6
				c2.7,1.659,12.29,1.659,15,0c27.521-2.4,43.9-31.03,26.99-52.99c-12.16-15.82-45.96-15.89-54.99-28c-20.16-27.04,34.5-45.5,45-21
				c2.311,5.399,0.851,9.399,3,17C1902.292,1369.649,1908.852,1371.539,1910.802,1368.829z M1795.821,1455.819
				c2.301-14.37,0.351-32.971,1-48.99c-3.59-2.08-10.819-0.521-16-1c-2.319,5.34-0.34,14.979-1,21.99c0.37,10.04-5.449,13.88-16,13
				c-16.659,0-33.33,0-49.989,0c0-20,0-39.99,0-59.99c11,0,22,0,32.989,0c0,7.67,0,15.33,0,23c4.94,0.09,13.65,4.01,17,0
				c5.771-6.92-3.85-54.23-1-59c-19.02-4.07-16.439,5.649-16,21c-10.989,0-21.989,0-32.989,0c0-15.33,0-30.66,0-45.99
				c17.33,0,34.659,0,51.989,0c13.79-0.8,9.221,16.771,10,28.99c5,0,10,0,15,0c2.33-12.66,0.33-29.66,1-43.99
				c-39.659,0-79.33,0-118.989,0c-1.66,2.7-1.66,12.29,0,15c8,0,16,0,24,0c0,40.33,0,80.65,0,120.98c-8,0-16,0-24,0
				c-1.66,2.71-1.66,12.29,0,15C1713.832,1455.819,1754.821,1455.819,1795.821,1455.819z M1646.842,1337.838
				c1.66-18.34,1.66-43.66,0-62c-47.67-2.33-99.66-0.33-148.99-1c-1.66,19-1.66,44.99,0,64c6.34,0,12.67,0,19,0
				c0-10.67,0-21.34,0-32c-0.55-8.56,2.23-13.77,10-14c12,0,24,0,36,0c-0.67,47.99,1.33,98.65-1,144.98c-12.34,0.67-27.33-1.33-38,1
				c0,5.33,0,10.67,0,16c30.33,2.33,64.99,0.33,96.99,1c1.66-3.7,1.66-14.301,0-18c-13,0-26,0-39,0c0-48.32,0-96.65,0-144.98
				c12,0,24,0,36,0c7.1-0.11,9.87,4.13,10,11c0.66,11-1.33,24.66,1,34C1632.531,1339.499,1643.142,1339.499,1646.842,1337.838z
				 M1469.861,1237.848c1.66-5.35,1.66-17.649,0-23c-28.33,0-56.66,0-84.99,0c0,7.66,0,15.33,0,23c10.34,0.66,23.32-1.33,32,1
				c-17.74,30.261-35.541,60.45-55,88.99c-17.52-30.14-36.63-58.7-53.99-88.99c8.34-2.989,23.65,0.99,32-2c0-7,0-14,0-21
				c-26-1.67-59-1.67-84.99,0c0,7,0,14,0,21c6.41,2.91,19.55-0.899,25.99,2c16.74,27.271,34.41,55.57,52,83.99
				c5.91,9.55,15.26,20.25,16.99,28.99c4.94,24.86-3.63,50.93,0,79.99c-8.15,3.5-47.96-5.021-52.99,1c-3.74,4.479,1.84,17.01,1,23
				c43,0,85.99,0,128.979,0c2.2-5.801,0.44-15.57,1-23c-6.479-1.82-14.81-1-24.989-1c-5.311,0-23.73,3.27-27,0
				c-0.95-0.95,0-16.051,0-19.99c0-22.38,0-43.53,0-62c22.47-37.86,46.08-74.58,68.99-111.98
				C1453.191,1237.848,1461.531,1237.848,1469.861,1237.848z M1212.892,1381.829c1.66-4.03,1.66-14.97,0-19
				c-1.49-19.84-8.75-33.91-18-45.99c-2.91-3.76-6.25-7.09-10-10c-10.4-7.93-22.15-14.51-35.99-19
				c18.86-13.8,35.19-30.13,38.99-58.99c1.66-2.38,1.66-11.62,0-14c-5.71-36.62-30.58-54.08-67.99-58.989
				c-5.35-1.67-17.65-1.67-23,0c-41.57,5.31-84.56,7.609-124.98,0c-1.66,7.67-1.66,22.31,0,29.989c17.83,0.17,33.9,2.101,50.99,3
				c-1.31,79.36,2.64,163.46-2,238.971c-16.39,2.93-31.99,6.67-48.99,9c0.91,8.76,4.47,14.859,6,23c18.61-3.051,33.71-9.62,54.99-10
				c8.67,0,17.34,0,26,0c50.66,5.85,102.79,10.939,131.98-17C1203.382,1420.869,1210.352,1404.499,1212.892,1381.829z
				 M817.941,1226.848c60.14-8,56.7-101.22-2-104.989c-2.05-1.66-10.95-1.66-13,0
				C735.552,1129.558,746.211,1236.378,817.941,1226.848z"/>
			<path fill="#FFFFFF" d="M2110.781,1523.808c13.16,9.12,27.45,32.561,13,50.99c-7.189,9.17-27.55,19.29-41,27
				c-86.14,49.36-177.1,93.91-277.96,128.98c-19.21,6.689-40.529,16.319-61,15c-27.489-1.771-62.83-21.2-89.979-23.99
				c9.7,15.63,37.6,27.03,45.99,43.99c-8.83,1.83-16.7,4.63-28,4c-6.66,0-13.33,0-19.99,0c-74.311-3.351-127.25-28.07-182.98-49.99
				c176.311-65.82,351.36-131.79,529.931-194.98c25.64-9.069,51.989-20.909,80.989-22c3.67,0,7.33,0,11,0c0.851-0.18,0.94,0.391,1,1
				C2096.951,1511.638,2104.021,1517.579,2110.781,1523.808z"/>
			<path fill="#FFFFFF" d="M1851.812,627.918c2.601,13.97,8.71,26.23,1,37c-5.14,7.18-21.99,11.35-33,14.99
				c-11.6,3.84-25.99,11.46-36.99,10c-19.1-2.53-13.949-40.07-21-61.99c7.46-0.87,12.261-4.4,20-5c2.181,15.82,5.57,30.43,8,46
				c13.88-2.12,30.75-9.91,45.99-14c-3.51-28.48-9.97-54.02-14-81.99c-10.36,2.91-18.77,5.37-29.99,9c-8.76,2.83-20.92,10.49-31,8
				c-11.18-2.77-13.77-34.48-17-52c-1.72-9.35-3.279-19.31-5-28.99c-2.5-14.11-8.409-31.83,0-41c4.73-5.15,21.17-8.74,31-12
				c12.88-4.26,25.051-10.16,35-11c21.16-1.78,18.87,28.82,22.99,51C1836.312,541.659,1843.422,582.798,1851.812,627.918z
				 M1817.812,553.929c-5.51-29.82-9.56-61.09-16.99-88.99c-14.13,6.54-30.93,10.4-46,16c5.21,29.46,10.54,58.79,16,87.99
				C1787.802,565.249,1802.472,559.249,1817.812,553.929z"/>
			<path fill="#FFFFFF" d="M1737.821,703.909c-7.979,0.35-12.68,3.98-20.989,4c-9.021-51.97-18.721-103.26-28-154.98
				c-1.71-2.28-5.631,1.63-9,1c0-2.33,0-4.66,0-7c3.619-19.38-2.261-48.26,3-65.99c4.55-1.11,8.989-2.35,14-3
				C1710.981,552.778,1724.832,627.918,1737.821,703.909z"/>
			<path fill="#FFFFFF" d="M1667.832,657.918c2.97,16.12,10.64,42.79,6,52.99c-5.261,11.59-25.11,10.87-38.99,13
				c-13.83,2.12-31.26,9.45-44,3c-10.33-5.23-13.3-35.51-15.99-49.99c-9.25-49.75-15.78-88.24-25-137.99
				c-1.75-9.44-4.439-22.21-2-27.99c5.23-12.41,53.79-13.89,69.99-17c0.62-0.12,1.37,0.01,2,0c26.81-0.47,23.85,35.47,28,57.99
				C1654.582,588.568,1660.802,619.699,1667.832,657.918z M1653.842,701.909c-8.48-54.91-20.25-113.37-30-165.98
				c-1.391-7.5-0.17-16.93-6-22.99c-15.82,3.51-33.79,4.87-49.99,8c11.48,62.83,23.53,125.11,33.99,188.97
				C1619.142,707.218,1637.512,705.588,1653.842,701.909z"/>
			<path fill="#FFFFFF" d="M1552.852,714.909c0.15,6.51,1.41,11.92,3,17c-11.7,3.3-27.27,2.73-42,3c-4.68,0.65-11.97-1.31-15,1
				c-12.33,0-24.66,0-36.99,0c-2.68-14.34,3.86-28.14,8-40.99c8.25-25.66,15.58-49.71,24-76.99c3.83-12.44,11.34-26.63,11.99-38
				c0.99-17.11-9.4-32.95-9-51.99c-2.14-1.86-7.32-0.68-10.99-1c-3.699,0.63-9.97-1.3-12,1c-8.689-0.35-16.43,0.24-24,1
				c1.87,17.12,6.38,31.61,8,48.99c-5.01,2.32-14.319,0.34-21,1c1.08-19.69-23.84-64.52,3-67.99c7.681-0.66,17.99,1.32,24-1
				c4.67,0,9.33,0,14,0c3.04-0.63,8.61,1.28,10-1c26.101-5.3,29.19,11.07,32.99,32.99c2.65,15.26,7.82,28.35,5,43
				c-8.41,43.78-32.439,96.16-40.99,132.98c6.66,0,13.33,0,19.99,0c3.7-0.64,9.96,1.3,12-1
				C1529.412,716.809,1540.502,715.229,1552.852,714.909z"/>
			<path fill="#FFFFFF" d="M1158.902,1322.838c37.72,26.48,25.92,109.061-29,108.98c-5.33,0-10.66,0-16,0
				c-19.25-0.75-36.5-3.49-54.99-5c-6.63-1.21-4-19.301-4-28.99c0-31.01,0-64.94,0-89.99
				C1093.322,1307.338,1134.122,1305.439,1158.902,1322.838z"/>
			<path fill="#FFFFFF" d="M1154.902,1209.848c10.95,39.37-26.07,70.54-63.99,68.99c-3.34,0-6.67,0-10,0c-8.67,0-17.33,0-26,0
				c0-12.14,0-28.56,0-45.99c0-14.399-2.12-40.25,3-45c11.94-1.72,23.14-4.189,37-4c7.33,0,14.66,0,21.99,0
				C1136.032,1185.758,1150.521,1194.109,1154.902,1209.848z"/>
			<path fill="#FFFFFF" d="M1114.902,414.949c3.34,12.99,7.01,25.65,9,39.99c-22.05-4.94-44.48-9.51-68.99-11.99
				c7.75,42.57,20.99,88.32,30,132.98c-16.23-0.78-30.19-3.81-47-4c-22.6-101.05-48.91-203.72-69.99-302.96
				c45.8,3.85,88.51,10.8,128.99,20c2.08,14.58,6.36,26.96,8.99,40.99c-25.99-6-52.85-11.13-80.99-15
				c4.05,27.29,13.89,57.44,19,86.99C1067.461,406.398,1092.202,409.648,1114.902,414.949z"/>
			<path fill="#FFFFFF" d="M946.922,1072.869c0.06,0.25,0.1,0.49,0.13,0.71C946.992,1073.359,946.952,1073.119,946.922,1072.869z"/>
			<path fill="#FFFFFF" d="M858.932,268.968c4.08,12.26,5.93,26.73,10,38.99c-15.02,3.98-34.93,3.06-50.99,6
				c19.41,88.24,40.67,174.64,60.99,261.97c-16.23,1.43-31.01,4.32-45.99,7c-20.3-87.02-41.16-173.49-60.99-260.97
				c-18.99,1.35-33.41,7.26-51,10c-2.3-14.36-6.61-26.71-9-40.99C757.282,280.628,808.142,270.499,858.932,268.968z"/>
			<path fill="#FFFFFF" d="M795.941,1128.859c67.97-17.841,80.96,84.05,21,91.989c-45.37,6-69.56-45.05-41.99-76.989
				C780.961,1136.888,787.292,1131.128,795.941,1128.859z M815.941,1201.848c11.63-2.13,22.97-14.46,21-31.989
				c-6.02-2.99-18.98,0.979-25-2.011c2.85-6.81,7.47-11.859,10-18.989C773.532,1130.569,768.662,1210.529,815.941,1201.848z"/>
			<path fill="#FFFFFF" d="M708.952,1348.829c14.26,1.41,28.53,2.81,41,6c-7.43,5.57-14.89,11.11-22,17
				c-8.15,5.18-13.54,13.12-21,19c0-1.67,0-3.33,0-5C706.722,1372.598,709.072,1361.949,708.952,1348.829z"/>
			<path fill="#FFFFFF" d="M704.952,1503.808c-0.16,1.181-1.82,0.851-3,1c-2.36-2.3-8.97-0.35-12.99-1c-1.67,0-3.34,0-5,0
				c0.51-13.81,8.35-20.31,15.99-26.989C701.762,1485.678,700.572,1497.529,704.952,1503.808z"/>
			<path fill="#FFFFFF" d="M642.961,1342.829c14.11,0.56,26.21,3.12,41,3c-12.07,18.62-31.92,38.06-43,61
				C635.822,1387.499,640.521,1361.189,642.961,1342.829z"/>
			<path fill="#FFFFFF" d="M678.961,604.929c2.61,25.61-13.19,28.51-31,36.99c-19.12,9.1-40.82,20.34-60.99,32
				c-8.37,4.84-20.71,16.62-31,15c-14.42-2.29-18.14-44.47-22.99-65c-14.47-61.21-27.58-116.44-42-177.97
				c-3.41-14.58-11.75-32.85-6-48c5.33-14.03,31.34-26.67,50-36.99c22.99-12.73,38.44-20.44,57.99-28c24.94-9.65,27.24,21.87,32,42
				c4.32,18.28,7.63,30.93,10.99,48.99c-14.31,5.68-27.21,12.78-41.99,18c-4.13-19.54-9.5-37.83-13-58c-17.29,5.41-36.88,17.1-53,27
				c16.26,74.4,34.92,146.4,51,220.97c17.16-5.19,34.6-18.7,52.99-25.99c-3.64-22.03-9.88-41.45-14-63
				c14.24-5.76,27.21-12.79,42-17.99C663.642,550.278,676.332,579.128,678.961,604.929z"/>
			<path fill="#FFFFFF" d="M661.961,1502.808c-8.01,0.66-18.65-1.319-25,1c-2.33,0-4.66,0-7,0c2.16-15.51,3.21-32.119,12-40.989
				C646.202,1478.579,654.001,1490.768,661.961,1502.808z"/>
			<path fill="#FFFFFF" d="M622.961,1341.829c-4.1,3.57-8.49,6.84-10.99,12c-12.1,15.24-23.43,31.24-33,49
				c-2.76-25.76,1.92-52.74,13-67.99C599.682,1339.119,617.941,1338.178,622.961,1341.829z"/>
			<path fill="#FFFFFF" d="M585.972,1454.819c7.61,18.06,12.57,38.75,26,50.989c-10.41,5.271-26.19,5.15-37,10
				C575.652,1496.489,580.452,1472.628,585.972,1454.819z"/>
		</g>
		<g>
		</g>
	</g>
	<path fill="#2C373F" d="M769.948,151.981c3.024-2.307,10.313-0.353,14.998-1C781.92,153.289,774.633,151.333,769.948,151.981z"/>
	<path fill="#2C373F" d="M837.939,178.978c5.017,0.649,12.643-1.311,15.998,1C848.921,179.328,841.295,181.288,837.939,178.978z"/>
	<path fill="#2C373F" d="M1423.866,453.943c6.012,0.653,14.647-1.317,18.997,1C1436.852,454.289,1428.215,456.26,1423.866,453.943z"
		/>
	<path fill="#2C373F" d="M1069.91,646.919c15.668-1.666,38.325-1.666,53.993,0C1105.906,646.919,1087.908,646.919,1069.91,646.919z"
		/>
	<path fill="#2C373F" d="M1048.913,647.919c3.024-2.308,10.313-0.353,14.999-1C1060.886,649.227,1053.598,647.271,1048.913,647.919z
		"/>
	<path fill="#2C373F" d="M1556.85,800.9c3.688-2.313,11.649-0.35,16.997-1C1570.16,802.213,1562.197,800.249,1556.85,800.9z"/>
	<path fill="#2C373F" d="M1465.86,827.896c5.017,0.648,12.643-1.312,15.998,1C1476.843,828.247,1469.216,830.207,1465.86,827.896z"
		/>
	<path fill="#2C373F" d="M1239.889,929.884c3.365-1.662,13.634-1.662,16.998,0C1251.221,929.884,1245.555,929.884,1239.889,929.884z
		"/>
	<path fill="#2C373F" d="M1096.907,1155.855c5.351-1.664,17.646-1.664,22.997,0
		C1112.238,1155.855,1104.573,1155.855,1096.907,1155.855z"/>
	<path fill="#436A86" d="M1094.907,1183.851c5.019-1.662,16.978-1.662,21.997,0
		C1109.572,1183.851,1102.239,1183.851,1094.907,1183.851z"/>
	<path fill="#436A86" d="M1627.841,1303.837c2.327,9.338,0.337,22.992,0.999,33.996
		C1626.513,1328.496,1628.503,1314.839,1627.841,1303.837z"/>
	<path fill="#436A86" d="M2161.773,1334.833c7.998,0,15.998,0,23.996,0C2180.087,1336.498,2167.457,1336.498,2161.773,1334.833z"/>
	<path fill="#2C373F" d="M1212.892,1362.83c1.663,4.025,1.663,14.973,0,18.998
		C1212.892,1375.494,1212.892,1369.162,1212.892,1362.83z"/>
	<path fill="#2C373F" d="M572.972,1391.826c0.661,9.006-1.325,20.656,1,27.996C570.751,1429.789,571.534,1396.263,572.972,1391.826z
		"/>
	<path fill="#436A86" d="M1113.905,1431.822c5.333,0,10.665,0,15.998,0C1126.868,1433.482,1116.939,1433.482,1113.905,1431.822z"/>
	<path fill="#436A86" d="M1032.915,1449.818c6.348-1.664,19.649-1.664,25.997,0
		C1050.246,1449.818,1041.58,1449.818,1032.915,1449.818z"/>
	<path fill="#436A86" d="M1087.908,1763.779c6,0,11.999,0,17.998,0c0,0.334,0,0.668,0,1
		C1100.226,1764.126,1091.926,1766.093,1087.908,1763.779z"/>
</g>
</svg>
